G75*
G70*
%OFA0B0*%
%FSLAX24Y24*%
%IPPOS*%
%LPD*%
%AMOC8*
5,1,8,0,0,1.08239X$1,22.5*
%
%ADD10OC8,0.0560*%
%ADD11C,0.0640*%
%ADD12C,0.0555*%
%ADD13C,0.0740*%
%ADD14C,0.0250*%
%ADD15C,0.0436*%
%ADD16C,0.0100*%
%ADD17C,0.0080*%
%ADD18C,0.0160*%
D10*
X005851Y006351D03*
X006851Y006351D03*
X006851Y013851D03*
X005851Y013851D03*
X005851Y021351D03*
X006851Y021351D03*
X006851Y028851D03*
X005851Y028851D03*
X005851Y036351D03*
X006851Y036351D03*
X015851Y036351D03*
X016851Y036351D03*
X016851Y043851D03*
X015851Y043851D03*
X025851Y043851D03*
X026851Y043851D03*
X026851Y036351D03*
X025851Y036351D03*
X025851Y028851D03*
X026851Y028851D03*
X026851Y021351D03*
X025851Y021351D03*
X025851Y013851D03*
X026851Y013851D03*
X026851Y006351D03*
X025851Y006351D03*
X016851Y006351D03*
X015851Y006351D03*
X015851Y013851D03*
X016851Y013851D03*
X016851Y021351D03*
X015851Y021351D03*
X015851Y028851D03*
X016851Y028851D03*
D11*
X034701Y047581D02*
X034701Y048221D01*
X035701Y048221D02*
X035701Y047581D01*
X036701Y047581D02*
X036701Y048221D01*
X037701Y048221D02*
X037701Y047581D01*
X038701Y047581D02*
X038701Y048221D01*
X039701Y048221D02*
X039701Y047581D01*
X040701Y047581D02*
X040701Y048221D01*
X041701Y048221D02*
X041701Y047581D01*
X011901Y048081D02*
X011901Y048721D01*
X010901Y048721D02*
X010901Y048081D01*
X009901Y048081D02*
X009901Y048721D01*
X008901Y048721D02*
X008901Y048081D01*
X007901Y048081D02*
X007901Y048721D01*
X006901Y048721D02*
X006901Y048081D01*
X024101Y004421D02*
X024101Y003781D01*
X025101Y003781D02*
X025101Y004421D01*
X026101Y004421D02*
X026101Y003781D01*
D12*
X035601Y006201D03*
X036601Y006201D03*
D13*
X018181Y046711D03*
X018181Y048491D03*
X015621Y048491D03*
X015621Y046711D03*
D14*
X015031Y047301D01*
X013401Y047301D01*
X007301Y047301D01*
X006901Y047701D01*
X006901Y048401D01*
X015621Y048491D02*
X018181Y048491D01*
X018181Y046711D02*
X015621Y046711D01*
X016851Y043851D02*
X016851Y036351D01*
X015901Y039801D02*
X012401Y036301D01*
X015901Y039801D02*
X015901Y039901D01*
X015901Y041701D01*
X026851Y043851D02*
X026851Y036351D01*
D15*
X027701Y038001D03*
X020801Y034801D03*
X015901Y039901D03*
X015901Y041701D03*
X012301Y041301D03*
X011701Y042101D03*
X011301Y042801D03*
X009801Y044601D03*
X009701Y045501D03*
X010601Y046201D03*
X013301Y045201D03*
X008301Y040801D03*
X006601Y039801D03*
X006801Y038701D03*
X008801Y038701D03*
X009801Y038001D03*
X012401Y036301D03*
X010801Y034901D03*
X012201Y033301D03*
X015201Y033801D03*
X015201Y026201D03*
X015101Y018801D03*
X015201Y011301D03*
X015301Y003801D03*
X007901Y002901D03*
X005675Y003827D03*
X032801Y006201D03*
X041001Y007901D03*
X045901Y008501D03*
X045901Y004901D03*
X044101Y020801D03*
X044301Y035601D03*
X023701Y046001D03*
X020801Y046601D03*
X006701Y043701D03*
X005301Y045501D03*
X003401Y044601D03*
D16*
X001101Y049101D02*
X001101Y001101D01*
X049101Y001101D01*
X049101Y009101D01*
X028101Y009101D01*
X028101Y037822D01*
X028072Y037753D01*
X027949Y037629D01*
X027788Y037563D01*
X027614Y037563D01*
X027453Y037629D01*
X027329Y037753D01*
X027263Y037914D01*
X027263Y038088D01*
X027329Y038249D01*
X027441Y038360D01*
X027441Y042349D01*
X027441Y042452D01*
X027480Y042548D01*
X027604Y042671D01*
X027196Y042671D01*
X027196Y042573D02*
X027505Y042573D01*
X027450Y042474D02*
X027196Y042474D01*
X027196Y042376D02*
X027441Y042376D01*
X027441Y042277D02*
X027196Y042277D01*
X027196Y042179D02*
X027441Y042179D01*
X027441Y042080D02*
X027196Y042080D01*
X027196Y041982D02*
X027441Y041982D01*
X027441Y041883D02*
X027196Y041883D01*
X027196Y041785D02*
X027441Y041785D01*
X027441Y041686D02*
X027196Y041686D01*
X027196Y041588D02*
X027441Y041588D01*
X027441Y041489D02*
X027196Y041489D01*
X027196Y041390D02*
X027441Y041390D01*
X027441Y041292D02*
X027196Y041292D01*
X027196Y041193D02*
X027441Y041193D01*
X027441Y041095D02*
X027196Y041095D01*
X027196Y040996D02*
X027441Y040996D01*
X027441Y040898D02*
X027196Y040898D01*
X027196Y040799D02*
X027441Y040799D01*
X027441Y040701D02*
X027196Y040701D01*
X027196Y040602D02*
X027441Y040602D01*
X027441Y040504D02*
X027196Y040504D01*
X027196Y040405D02*
X027441Y040405D01*
X027441Y040306D02*
X027196Y040306D01*
X027196Y040208D02*
X027441Y040208D01*
X027441Y040109D02*
X027196Y040109D01*
X027196Y040011D02*
X027441Y040011D01*
X027441Y039912D02*
X027196Y039912D01*
X027196Y039814D02*
X027441Y039814D01*
X027441Y039715D02*
X027196Y039715D01*
X027196Y039617D02*
X027441Y039617D01*
X027441Y039518D02*
X027196Y039518D01*
X027196Y039420D02*
X027441Y039420D01*
X027441Y039321D02*
X027196Y039321D01*
X027196Y039222D02*
X027441Y039222D01*
X027441Y039124D02*
X027196Y039124D01*
X027196Y039025D02*
X027441Y039025D01*
X027441Y038927D02*
X027196Y038927D01*
X027196Y038828D02*
X027441Y038828D01*
X027441Y038730D02*
X027196Y038730D01*
X027196Y038631D02*
X027441Y038631D01*
X027441Y038533D02*
X027196Y038533D01*
X027196Y038434D02*
X027441Y038434D01*
X027416Y038336D02*
X027196Y038336D01*
X027196Y038237D02*
X027324Y038237D01*
X027284Y038139D02*
X027196Y038139D01*
X027196Y038040D02*
X027263Y038040D01*
X027263Y037941D02*
X027196Y037941D01*
X027196Y037843D02*
X027292Y037843D01*
X027338Y037744D02*
X027196Y037744D01*
X027196Y037646D02*
X027436Y037646D01*
X027196Y037547D02*
X028101Y037547D01*
X028101Y037449D02*
X027196Y037449D01*
X027196Y037350D02*
X028101Y037350D01*
X028101Y037252D02*
X027196Y037252D01*
X027196Y037153D02*
X028101Y037153D01*
X028101Y037055D02*
X027196Y037055D01*
X027196Y036956D02*
X028101Y036956D01*
X028101Y036857D02*
X027196Y036857D01*
X027196Y036759D02*
X028101Y036759D01*
X028101Y036660D02*
X027248Y036660D01*
X027196Y036713D02*
X027196Y043489D01*
X027351Y043644D01*
X027351Y044058D01*
X027058Y044351D01*
X026644Y044351D01*
X026351Y044058D01*
X026351Y043644D01*
X026351Y044058D01*
X026058Y044351D01*
X025718Y044351D01*
X025148Y044921D01*
X025052Y044961D01*
X024949Y044961D01*
X016649Y044961D01*
X016554Y044921D01*
X016480Y044848D01*
X015983Y044351D01*
X015818Y044351D01*
X016708Y045241D01*
X019649Y045241D01*
X019752Y045241D01*
X019848Y045280D01*
X020730Y046163D01*
X020888Y046163D01*
X021049Y046229D01*
X021172Y046353D01*
X021239Y046514D01*
X021239Y046688D01*
X021172Y046849D01*
X021049Y046972D01*
X020888Y047039D01*
X020714Y047039D01*
X020553Y046972D01*
X020429Y046849D01*
X020363Y046688D01*
X020363Y046530D01*
X019593Y045761D01*
X016652Y045761D01*
X016549Y045761D01*
X016454Y045721D01*
X014454Y043721D01*
X014380Y043648D01*
X014341Y043552D01*
X014341Y040208D01*
X013093Y038961D01*
X009160Y038961D01*
X009049Y039072D01*
X008888Y039139D01*
X008714Y039139D01*
X008553Y039072D01*
X008451Y038971D01*
X007150Y038971D01*
X007049Y039072D01*
X006888Y039139D01*
X006714Y039139D01*
X006553Y039072D01*
X006429Y038949D01*
X006363Y038788D01*
X006363Y038614D01*
X006429Y038453D01*
X006553Y038329D01*
X006714Y038263D01*
X006888Y038263D01*
X007049Y038329D01*
X007150Y038431D01*
X008451Y038431D01*
X008553Y038329D01*
X008714Y038263D01*
X008888Y038263D01*
X009049Y038329D01*
X009160Y038441D01*
X013252Y038441D01*
X013348Y038480D01*
X013421Y038554D01*
X014821Y039954D01*
X014861Y040049D01*
X014861Y040152D01*
X014861Y043393D01*
X015351Y043883D01*
X015351Y043644D01*
X015644Y043351D01*
X016058Y043351D01*
X016351Y043644D01*
X016506Y043489D01*
X016506Y036713D01*
X016351Y036558D01*
X016351Y036218D01*
X016351Y036218D01*
X016351Y036558D01*
X016058Y036851D01*
X015644Y036851D01*
X015351Y036558D01*
X015351Y036218D01*
X014993Y035861D01*
X007068Y035861D01*
X007351Y036144D01*
X007351Y036558D01*
X007058Y036851D01*
X006644Y036851D01*
X006351Y036558D01*
X006351Y036218D01*
X006351Y036218D01*
X006351Y036558D01*
X006058Y036851D01*
X005644Y036851D01*
X005351Y036558D01*
X005351Y036144D01*
X005644Y035851D01*
X005983Y035851D01*
X006454Y035380D01*
X006549Y035341D01*
X006652Y035341D01*
X015152Y035341D01*
X015248Y035380D01*
X015321Y035454D01*
X015718Y035851D01*
X015983Y035851D01*
X016380Y035454D01*
X016454Y035380D01*
X016549Y035341D01*
X025049Y035341D01*
X025152Y035341D01*
X025248Y035380D01*
X025718Y035851D01*
X026058Y035851D01*
X026351Y036144D01*
X026351Y036558D01*
X026351Y036144D01*
X026644Y035851D01*
X027058Y035851D01*
X027351Y036144D01*
X027351Y036558D01*
X027196Y036713D01*
X027347Y036562D02*
X028101Y036562D01*
X028101Y036463D02*
X027351Y036463D01*
X027351Y036365D02*
X028101Y036365D01*
X028101Y036266D02*
X027351Y036266D01*
X027351Y036168D02*
X028101Y036168D01*
X028101Y036069D02*
X027276Y036069D01*
X027178Y035971D02*
X028101Y035971D01*
X028101Y035872D02*
X027079Y035872D01*
X026622Y035872D02*
X026079Y035872D01*
X026178Y035971D02*
X026524Y035971D01*
X026425Y036069D02*
X026276Y036069D01*
X026351Y036168D02*
X026351Y036168D01*
X026351Y036266D02*
X026351Y036266D01*
X026351Y036365D02*
X026351Y036365D01*
X026351Y036463D02*
X026351Y036463D01*
X026351Y036558D02*
X026058Y036851D01*
X025644Y036851D01*
X025351Y036558D01*
X025351Y036218D01*
X024993Y035861D01*
X017068Y035861D01*
X017351Y036144D01*
X017351Y036558D01*
X017196Y036713D01*
X017196Y043489D01*
X017351Y043644D01*
X017351Y044058D01*
X017058Y044351D01*
X016718Y044351D01*
X016808Y044441D01*
X024893Y044441D01*
X025351Y043983D01*
X025351Y043644D01*
X025644Y043351D01*
X026058Y043351D01*
X026351Y043644D01*
X026506Y043489D01*
X026506Y036713D01*
X026351Y036558D01*
X026347Y036562D02*
X026355Y036562D01*
X026453Y036660D02*
X026248Y036660D01*
X026150Y036759D02*
X026506Y036759D01*
X026506Y036857D02*
X017196Y036857D01*
X017196Y036759D02*
X025552Y036759D01*
X025453Y036660D02*
X017248Y036660D01*
X017347Y036562D02*
X025355Y036562D01*
X025351Y036463D02*
X017351Y036463D01*
X017351Y036365D02*
X025351Y036365D01*
X025351Y036266D02*
X017351Y036266D01*
X017351Y036168D02*
X025300Y036168D01*
X025201Y036069D02*
X017276Y036069D01*
X017178Y035971D02*
X025103Y035971D01*
X025004Y035872D02*
X017079Y035872D01*
X016456Y035379D02*
X015245Y035379D01*
X015345Y035478D02*
X016356Y035478D01*
X016257Y035576D02*
X015444Y035576D01*
X015543Y035675D02*
X016159Y035675D01*
X016060Y035773D02*
X015641Y035773D01*
X015300Y036168D02*
X012820Y036168D01*
X012839Y036214D02*
X012772Y036053D01*
X012649Y035929D01*
X012488Y035863D01*
X012314Y035863D01*
X012153Y035929D01*
X012029Y036053D01*
X011963Y036214D01*
X011963Y036388D01*
X012029Y036549D01*
X012153Y036672D01*
X012314Y036739D01*
X012351Y036739D01*
X015463Y039851D01*
X015463Y039988D01*
X015529Y040149D01*
X015556Y040175D01*
X015556Y041426D01*
X015529Y041453D01*
X015463Y041614D01*
X015463Y041788D01*
X015529Y041949D01*
X015653Y042072D01*
X015814Y042139D01*
X015988Y042139D01*
X016149Y042072D01*
X016272Y041949D01*
X016339Y041788D01*
X016339Y041614D01*
X016272Y041453D01*
X016246Y041426D01*
X016246Y040175D01*
X016272Y040149D01*
X016339Y039988D01*
X016339Y039814D01*
X016506Y039814D01*
X016506Y039912D02*
X016339Y039912D01*
X016339Y039814D02*
X016272Y039653D01*
X016149Y039529D01*
X016095Y039507D01*
X012839Y036251D01*
X012839Y036214D01*
X012854Y036266D02*
X015351Y036266D01*
X015351Y036365D02*
X012953Y036365D01*
X013051Y036463D02*
X015351Y036463D01*
X015355Y036562D02*
X013150Y036562D01*
X013248Y036660D02*
X015453Y036660D01*
X015552Y036759D02*
X013347Y036759D01*
X013445Y036857D02*
X016506Y036857D01*
X016506Y036759D02*
X016150Y036759D01*
X016248Y036660D02*
X016453Y036660D01*
X016355Y036562D02*
X016347Y036562D01*
X016351Y036463D02*
X016351Y036463D01*
X016351Y036365D02*
X016351Y036365D01*
X016351Y036266D02*
X016351Y036266D01*
X016506Y036956D02*
X013544Y036956D01*
X013642Y037055D02*
X016506Y037055D01*
X016506Y037153D02*
X013741Y037153D01*
X013839Y037252D02*
X016506Y037252D01*
X016506Y037350D02*
X013938Y037350D01*
X014037Y037449D02*
X016506Y037449D01*
X016506Y037547D02*
X014135Y037547D01*
X014234Y037646D02*
X016506Y037646D01*
X016506Y037744D02*
X014332Y037744D01*
X014431Y037843D02*
X016506Y037843D01*
X016506Y037941D02*
X014529Y037941D01*
X014628Y038040D02*
X016506Y038040D01*
X016506Y038139D02*
X014726Y038139D01*
X014825Y038237D02*
X016506Y038237D01*
X016506Y038336D02*
X014923Y038336D01*
X015022Y038434D02*
X016506Y038434D01*
X016506Y038533D02*
X015121Y038533D01*
X015219Y038631D02*
X016506Y038631D01*
X016506Y038730D02*
X015318Y038730D01*
X015416Y038828D02*
X016506Y038828D01*
X016506Y038927D02*
X015515Y038927D01*
X015613Y039025D02*
X016506Y039025D01*
X016506Y039124D02*
X015712Y039124D01*
X015810Y039222D02*
X016506Y039222D01*
X016506Y039321D02*
X015909Y039321D01*
X016007Y039420D02*
X016506Y039420D01*
X016506Y039518D02*
X016122Y039518D01*
X016236Y039617D02*
X016506Y039617D01*
X016506Y039715D02*
X016298Y039715D01*
X016329Y040011D02*
X016506Y040011D01*
X016506Y040109D02*
X016289Y040109D01*
X016246Y040208D02*
X016506Y040208D01*
X016506Y040306D02*
X016246Y040306D01*
X016246Y040405D02*
X016506Y040405D01*
X016506Y040504D02*
X016246Y040504D01*
X016246Y040602D02*
X016506Y040602D01*
X016506Y040701D02*
X016246Y040701D01*
X016246Y040799D02*
X016506Y040799D01*
X016506Y040898D02*
X016246Y040898D01*
X016246Y040996D02*
X016506Y040996D01*
X016506Y041095D02*
X016246Y041095D01*
X016246Y041193D02*
X016506Y041193D01*
X016506Y041292D02*
X016246Y041292D01*
X016246Y041390D02*
X016506Y041390D01*
X016506Y041489D02*
X016287Y041489D01*
X016328Y041588D02*
X016506Y041588D01*
X016506Y041686D02*
X016339Y041686D01*
X016339Y041785D02*
X016506Y041785D01*
X016506Y041883D02*
X016299Y041883D01*
X016239Y041982D02*
X016506Y041982D01*
X016506Y042080D02*
X016129Y042080D01*
X016506Y042179D02*
X014861Y042179D01*
X014861Y042277D02*
X016506Y042277D01*
X016506Y042376D02*
X014861Y042376D01*
X014861Y042474D02*
X016506Y042474D01*
X016506Y042573D02*
X014861Y042573D01*
X014861Y042671D02*
X016506Y042671D01*
X016506Y042770D02*
X014861Y042770D01*
X014861Y042869D02*
X016506Y042869D01*
X016506Y042967D02*
X014861Y042967D01*
X014861Y043066D02*
X016506Y043066D01*
X016506Y043164D02*
X014861Y043164D01*
X014861Y043263D02*
X016506Y043263D01*
X016506Y043361D02*
X016068Y043361D01*
X016167Y043460D02*
X016506Y043460D01*
X016436Y043558D02*
X016265Y043558D01*
X016351Y043644D02*
X016351Y043983D01*
X016351Y043644D01*
X016351Y043657D02*
X016351Y043657D01*
X016351Y043755D02*
X016351Y043755D01*
X016351Y043854D02*
X016351Y043854D01*
X016351Y043953D02*
X016351Y043953D01*
X016351Y043983D02*
X016351Y043983D01*
X016078Y044445D02*
X015913Y044445D01*
X016011Y044544D02*
X016176Y044544D01*
X016110Y044642D02*
X016275Y044642D01*
X016209Y044741D02*
X016373Y044741D01*
X016307Y044839D02*
X016472Y044839D01*
X016406Y044938D02*
X016594Y044938D01*
X016504Y045037D02*
X037441Y045037D01*
X037441Y045135D02*
X016603Y045135D01*
X016701Y045234D02*
X037441Y045234D01*
X037441Y045332D02*
X019900Y045332D01*
X019998Y045431D02*
X037441Y045431D01*
X037441Y045529D02*
X020097Y045529D01*
X020195Y045628D02*
X037441Y045628D01*
X037441Y045726D02*
X020294Y045726D01*
X020393Y045825D02*
X037441Y045825D01*
X037441Y045923D02*
X020491Y045923D01*
X020590Y046022D02*
X037441Y046022D01*
X037441Y046121D02*
X020688Y046121D01*
X021024Y046219D02*
X037441Y046219D01*
X037441Y046318D02*
X021137Y046318D01*
X021198Y046416D02*
X037441Y046416D01*
X037441Y046515D02*
X021239Y046515D01*
X021239Y046613D02*
X037441Y046613D01*
X037441Y046712D02*
X021229Y046712D01*
X021188Y046810D02*
X037441Y046810D01*
X037441Y046909D02*
X021112Y046909D01*
X020964Y047007D02*
X037441Y047007D01*
X037441Y047104D02*
X037441Y044208D01*
X037093Y043861D01*
X028849Y043861D01*
X028754Y043821D01*
X028680Y043748D01*
X027604Y042671D01*
X027604Y042671D01*
X027702Y042770D02*
X027196Y042770D01*
X027196Y042869D02*
X027801Y042869D01*
X027899Y042967D02*
X027196Y042967D01*
X027196Y043066D02*
X027998Y043066D01*
X028097Y043164D02*
X027196Y043164D01*
X027196Y043263D02*
X028195Y043263D01*
X028294Y043361D02*
X027196Y043361D01*
X027196Y043460D02*
X028392Y043460D01*
X028491Y043558D02*
X027265Y043558D01*
X027351Y043657D02*
X028589Y043657D01*
X028688Y043755D02*
X027351Y043755D01*
X027351Y043854D02*
X028833Y043854D01*
X029008Y043341D02*
X037149Y043341D01*
X037252Y043341D01*
X037348Y043380D01*
X037848Y043880D01*
X037921Y043954D01*
X037961Y044049D01*
X037961Y047104D01*
X038007Y047123D01*
X038159Y047275D01*
X038201Y047377D01*
X038243Y047275D01*
X038395Y047123D01*
X038593Y047041D01*
X038808Y047041D01*
X039007Y047123D01*
X039159Y047275D01*
X039201Y047377D01*
X039243Y047275D01*
X039395Y047123D01*
X039593Y047041D01*
X039808Y047041D01*
X040007Y047123D01*
X040159Y047275D01*
X040201Y047377D01*
X040243Y047275D01*
X040395Y047123D01*
X040593Y047041D01*
X040808Y047041D01*
X041007Y047123D01*
X041159Y047275D01*
X041241Y047473D01*
X041241Y047481D01*
X041242Y047471D01*
X041265Y047400D01*
X041299Y047334D01*
X041342Y047275D01*
X041395Y047222D01*
X041454Y047179D01*
X041520Y047145D01*
X041591Y047122D01*
X041651Y047113D01*
X041651Y047851D01*
X041751Y047851D01*
X041751Y047951D01*
X041651Y047951D01*
X041651Y048689D01*
X041591Y048679D01*
X041520Y048656D01*
X041454Y048623D01*
X041395Y048579D01*
X041342Y048527D01*
X041299Y048467D01*
X041265Y048401D01*
X041242Y048331D01*
X041241Y048320D01*
X041241Y048328D01*
X041159Y048527D01*
X041007Y048679D01*
X040808Y048761D01*
X040593Y048761D01*
X040395Y048679D01*
X040243Y048527D01*
X040201Y048425D01*
X040159Y048527D01*
X040007Y048679D01*
X039808Y048761D01*
X039593Y048761D01*
X039395Y048679D01*
X039243Y048527D01*
X039201Y048425D01*
X039159Y048527D01*
X039007Y048679D01*
X038808Y048761D01*
X038593Y048761D01*
X038395Y048679D01*
X038243Y048527D01*
X038201Y048425D01*
X038159Y048527D01*
X038007Y048679D01*
X037808Y048761D01*
X037593Y048761D01*
X037395Y048679D01*
X037243Y048527D01*
X037201Y048425D01*
X037159Y048527D01*
X037007Y048679D01*
X036808Y048761D01*
X036593Y048761D01*
X036395Y048679D01*
X036243Y048527D01*
X036201Y048425D01*
X036159Y048527D01*
X036007Y048679D01*
X035808Y048761D01*
X035593Y048761D01*
X035395Y048679D01*
X035243Y048527D01*
X035201Y048425D01*
X035159Y048527D01*
X035007Y048679D01*
X034808Y048761D01*
X034593Y048761D01*
X034395Y048679D01*
X034243Y048527D01*
X034161Y048328D01*
X034161Y047473D01*
X034243Y047275D01*
X034395Y047123D01*
X034593Y047041D01*
X034808Y047041D01*
X035007Y047123D01*
X035159Y047275D01*
X035201Y047377D01*
X035243Y047275D01*
X035395Y047123D01*
X035593Y047041D01*
X035808Y047041D01*
X036007Y047123D01*
X036159Y047275D01*
X036201Y047377D01*
X036243Y047275D01*
X036395Y047123D01*
X036593Y047041D01*
X036808Y047041D01*
X037007Y047123D01*
X037159Y047275D01*
X037201Y047377D01*
X037243Y047275D01*
X037395Y047123D01*
X037441Y047104D01*
X037436Y047106D02*
X036965Y047106D01*
X037088Y047204D02*
X037313Y047204D01*
X037231Y047303D02*
X037170Y047303D01*
X036436Y047106D02*
X035965Y047106D01*
X036088Y047204D02*
X036313Y047204D01*
X036231Y047303D02*
X036170Y047303D01*
X035436Y047106D02*
X034965Y047106D01*
X035088Y047204D02*
X035313Y047204D01*
X035231Y047303D02*
X035170Y047303D01*
X034436Y047106D02*
X018620Y047106D01*
X018681Y047045D02*
X018515Y047211D01*
X018298Y047301D01*
X018063Y047301D01*
X017847Y047211D01*
X017691Y047056D01*
X016110Y047056D01*
X015955Y047211D01*
X015738Y047301D01*
X015519Y047301D01*
X015226Y047593D01*
X015099Y047646D01*
X014962Y047646D01*
X013332Y047646D01*
X012229Y047646D01*
X012359Y047775D01*
X012441Y047973D01*
X012441Y048828D01*
X012359Y049027D01*
X012284Y049101D01*
X049101Y049101D01*
X049101Y043101D01*
X028768Y043101D01*
X029008Y043341D01*
X028930Y043263D02*
X049101Y043263D01*
X049101Y043361D02*
X037302Y043361D01*
X037428Y043460D02*
X049101Y043460D01*
X049101Y043558D02*
X037526Y043558D01*
X037625Y043657D02*
X049101Y043657D01*
X049101Y043755D02*
X037723Y043755D01*
X037822Y043854D02*
X049101Y043854D01*
X049101Y043953D02*
X037920Y043953D01*
X037961Y044051D02*
X049101Y044051D01*
X049101Y044150D02*
X037961Y044150D01*
X037961Y044248D02*
X049101Y044248D01*
X049101Y044347D02*
X037961Y044347D01*
X037961Y044445D02*
X049101Y044445D01*
X049101Y044544D02*
X037961Y044544D01*
X037961Y044642D02*
X049101Y044642D01*
X049101Y044741D02*
X037961Y044741D01*
X037961Y044839D02*
X049101Y044839D01*
X049101Y044938D02*
X037961Y044938D01*
X037961Y045037D02*
X049101Y045037D01*
X049101Y045135D02*
X037961Y045135D01*
X037961Y045234D02*
X049101Y045234D01*
X049101Y045332D02*
X037961Y045332D01*
X037961Y045431D02*
X049101Y045431D01*
X049101Y045529D02*
X037961Y045529D01*
X037961Y045628D02*
X049101Y045628D01*
X049101Y045726D02*
X037961Y045726D01*
X037961Y045825D02*
X049101Y045825D01*
X049101Y045923D02*
X037961Y045923D01*
X037961Y046022D02*
X049101Y046022D01*
X049101Y046121D02*
X037961Y046121D01*
X037961Y046219D02*
X049101Y046219D01*
X049101Y046318D02*
X037961Y046318D01*
X037961Y046416D02*
X049101Y046416D01*
X049101Y046515D02*
X037961Y046515D01*
X037961Y046613D02*
X049101Y046613D01*
X049101Y046712D02*
X037961Y046712D01*
X037961Y046810D02*
X047236Y046810D01*
X047108Y046863D02*
X047428Y046731D01*
X047774Y046731D01*
X048094Y046863D01*
X048338Y047108D01*
X048471Y047428D01*
X048471Y047774D01*
X048338Y048094D01*
X048094Y048338D01*
X047774Y048471D01*
X047428Y048471D01*
X047108Y048338D01*
X046863Y048094D01*
X046731Y047774D01*
X046731Y047428D01*
X046863Y047108D01*
X047108Y046863D01*
X047062Y046909D02*
X037961Y046909D01*
X037961Y047007D02*
X046964Y047007D01*
X046865Y047106D02*
X040965Y047106D01*
X041088Y047204D02*
X041419Y047204D01*
X041322Y047303D02*
X041170Y047303D01*
X041211Y047402D02*
X041265Y047402D01*
X041651Y047402D02*
X041751Y047402D01*
X041751Y047500D02*
X041651Y047500D01*
X041651Y047599D02*
X041751Y047599D01*
X041751Y047697D02*
X041651Y047697D01*
X041651Y047796D02*
X041751Y047796D01*
X041751Y047851D02*
X041751Y047113D01*
X041811Y047122D01*
X041881Y047145D01*
X041947Y047179D01*
X042007Y047222D01*
X042059Y047275D01*
X042103Y047334D01*
X042136Y047400D01*
X042159Y047471D01*
X042171Y047544D01*
X042171Y047851D01*
X041751Y047851D01*
X041751Y047894D02*
X046781Y047894D01*
X046740Y047796D02*
X042171Y047796D01*
X042171Y047697D02*
X046731Y047697D01*
X046731Y047599D02*
X042171Y047599D01*
X042164Y047500D02*
X046731Y047500D01*
X046742Y047402D02*
X042137Y047402D01*
X042080Y047303D02*
X046782Y047303D01*
X046823Y047204D02*
X041982Y047204D01*
X041751Y047204D02*
X041651Y047204D01*
X041651Y047303D02*
X041751Y047303D01*
X041751Y047951D02*
X042171Y047951D01*
X042171Y048258D01*
X042159Y048331D01*
X042136Y048401D01*
X042103Y048467D01*
X042059Y048527D01*
X042007Y048579D01*
X041947Y048623D01*
X041881Y048656D01*
X041811Y048679D01*
X041751Y048689D01*
X041751Y047951D01*
X041751Y047993D02*
X041651Y047993D01*
X041651Y048091D02*
X041751Y048091D01*
X041751Y048190D02*
X041651Y048190D01*
X041651Y048288D02*
X041751Y048288D01*
X041751Y048387D02*
X041651Y048387D01*
X041651Y048486D02*
X041751Y048486D01*
X041751Y048584D02*
X041651Y048584D01*
X041651Y048683D02*
X041751Y048683D01*
X041789Y048683D02*
X049101Y048683D01*
X049101Y048781D02*
X018613Y048781D01*
X018626Y048763D02*
X018577Y048830D01*
X018520Y048887D01*
X018453Y048936D01*
X018380Y048973D01*
X018303Y048998D01*
X018231Y049009D01*
X018231Y048541D01*
X018699Y048541D01*
X018688Y048613D01*
X018663Y048690D01*
X018626Y048763D01*
X018665Y048683D02*
X034405Y048683D01*
X034300Y048584D02*
X018692Y048584D01*
X018699Y048441D02*
X018231Y048441D01*
X018231Y048541D01*
X018131Y048541D01*
X018131Y049009D01*
X018059Y048998D01*
X017981Y048973D01*
X017908Y048936D01*
X017842Y048887D01*
X017784Y048830D01*
X017736Y048763D01*
X017699Y048690D01*
X017674Y048613D01*
X017662Y048541D01*
X018131Y048541D01*
X018131Y048441D01*
X018231Y048441D01*
X018231Y047972D01*
X018303Y047984D01*
X018380Y048009D01*
X018453Y048046D01*
X018520Y048094D01*
X018577Y048152D01*
X018626Y048218D01*
X018663Y048291D01*
X018688Y048369D01*
X018699Y048441D01*
X018691Y048387D02*
X034185Y048387D01*
X034161Y048288D02*
X018661Y048288D01*
X018605Y048190D02*
X034161Y048190D01*
X034161Y048091D02*
X018516Y048091D01*
X018331Y047993D02*
X034161Y047993D01*
X034161Y047894D02*
X012408Y047894D01*
X012441Y047993D02*
X015471Y047993D01*
X015499Y047984D02*
X015571Y047972D01*
X015571Y048441D01*
X015671Y048441D01*
X015671Y048541D01*
X016139Y048541D01*
X016128Y048613D01*
X016103Y048690D01*
X016066Y048763D01*
X016017Y048830D01*
X015960Y048887D01*
X015893Y048936D01*
X015820Y048973D01*
X015743Y048998D01*
X015671Y049009D01*
X015671Y048541D01*
X015571Y048541D01*
X015571Y049009D01*
X015499Y048998D01*
X015421Y048973D01*
X015348Y048936D01*
X015282Y048887D01*
X015224Y048830D01*
X015176Y048763D01*
X015139Y048690D01*
X015114Y048613D01*
X015102Y048541D01*
X015571Y048541D01*
X015571Y048441D01*
X015102Y048441D01*
X015114Y048369D01*
X015139Y048291D01*
X015176Y048218D01*
X015224Y048152D01*
X015282Y048094D01*
X015348Y048046D01*
X015421Y048009D01*
X015499Y047984D01*
X015571Y047993D02*
X015671Y047993D01*
X015671Y047972D02*
X015743Y047984D01*
X015820Y048009D01*
X015893Y048046D01*
X015960Y048094D01*
X016017Y048152D01*
X016066Y048218D01*
X016103Y048291D01*
X016128Y048369D01*
X016139Y048441D01*
X015671Y048441D01*
X015671Y047972D01*
X015771Y047993D02*
X018031Y047993D01*
X018059Y047984D02*
X018131Y047972D01*
X018131Y048441D01*
X017662Y048441D01*
X017674Y048369D01*
X017699Y048291D01*
X017736Y048218D01*
X017784Y048152D01*
X017842Y048094D01*
X017908Y048046D01*
X017981Y048009D01*
X018059Y047984D01*
X018131Y047993D02*
X018231Y047993D01*
X018231Y048091D02*
X018131Y048091D01*
X018131Y048190D02*
X018231Y048190D01*
X018231Y048288D02*
X018131Y048288D01*
X018131Y048387D02*
X018231Y048387D01*
X018231Y048486D02*
X034226Y048486D01*
X034161Y047796D02*
X012367Y047796D01*
X012281Y047697D02*
X034161Y047697D01*
X034161Y047599D02*
X015213Y047599D01*
X015319Y047500D02*
X034161Y047500D01*
X034191Y047402D02*
X015418Y047402D01*
X015516Y047303D02*
X034231Y047303D01*
X034313Y047204D02*
X018521Y047204D01*
X018681Y047045D02*
X018771Y046828D01*
X018771Y046593D01*
X018681Y046377D01*
X018515Y046211D01*
X018298Y046121D01*
X018063Y046121D01*
X017847Y046211D01*
X017691Y046366D01*
X016110Y046366D01*
X015955Y046211D01*
X015738Y046121D01*
X015503Y046121D01*
X015287Y046211D01*
X015121Y046377D01*
X015031Y046593D01*
X015031Y046813D01*
X014888Y046956D01*
X013561Y046956D01*
X013561Y045560D01*
X013672Y045449D01*
X013739Y045288D01*
X013739Y045114D01*
X013672Y044953D01*
X013549Y044829D01*
X013388Y044763D01*
X013214Y044763D01*
X013053Y044829D01*
X012929Y044953D01*
X012863Y045114D01*
X012863Y045288D01*
X012929Y045449D01*
X013041Y045560D01*
X013041Y046956D01*
X007232Y046956D01*
X007105Y047008D01*
X007008Y047105D01*
X006608Y047505D01*
X006556Y047632D01*
X006556Y047662D01*
X006443Y047775D01*
X006361Y047973D01*
X006361Y048828D01*
X006443Y049027D01*
X006517Y049101D01*
X001101Y049101D01*
X001101Y049077D02*
X006493Y049077D01*
X006423Y048978D02*
X001101Y048978D01*
X001101Y048880D02*
X006382Y048880D01*
X006361Y048781D02*
X001101Y048781D01*
X001101Y048683D02*
X006361Y048683D01*
X006361Y048584D02*
X001101Y048584D01*
X001101Y048486D02*
X006361Y048486D01*
X006361Y048387D02*
X001101Y048387D01*
X001101Y048288D02*
X002229Y048288D01*
X002108Y048238D02*
X001863Y047994D01*
X001731Y047674D01*
X001731Y047328D01*
X001863Y047008D01*
X002108Y046763D01*
X002428Y046631D01*
X002774Y046631D01*
X003094Y046763D01*
X003338Y047008D01*
X003471Y047328D01*
X003471Y047674D01*
X003338Y047994D01*
X003094Y048238D01*
X002774Y048371D01*
X002428Y048371D01*
X002108Y048238D01*
X002060Y048190D02*
X001101Y048190D01*
X001101Y048091D02*
X001961Y048091D01*
X001863Y047993D02*
X001101Y047993D01*
X001101Y047894D02*
X001822Y047894D01*
X001781Y047796D02*
X001101Y047796D01*
X001101Y047697D02*
X001741Y047697D01*
X001731Y047599D02*
X001101Y047599D01*
X001101Y047500D02*
X001731Y047500D01*
X001731Y047402D02*
X001101Y047402D01*
X001101Y047303D02*
X001741Y047303D01*
X001782Y047204D02*
X001101Y047204D01*
X001101Y047106D02*
X001823Y047106D01*
X001864Y047007D02*
X001101Y047007D01*
X001101Y046909D02*
X001962Y046909D01*
X002061Y046810D02*
X001101Y046810D01*
X001101Y046712D02*
X002232Y046712D01*
X002969Y046712D02*
X013041Y046712D01*
X013041Y046810D02*
X003141Y046810D01*
X003239Y046909D02*
X013041Y046909D01*
X013041Y046613D02*
X010750Y046613D01*
X010688Y046639D02*
X010514Y046639D01*
X010353Y046572D01*
X010241Y046461D01*
X004049Y046461D01*
X003954Y046421D01*
X003880Y046348D01*
X002080Y044548D01*
X002041Y044452D01*
X002041Y044349D01*
X002041Y013849D01*
X002080Y013754D01*
X002154Y013680D01*
X004754Y011080D01*
X004849Y011041D01*
X004952Y011041D01*
X014841Y011041D01*
X014953Y010929D01*
X015114Y010863D01*
X015288Y010863D01*
X015449Y010929D01*
X015572Y011053D01*
X015639Y011214D01*
X015639Y011388D01*
X015572Y011549D01*
X015449Y011672D01*
X015288Y011739D01*
X015114Y011739D01*
X014953Y011672D01*
X014841Y011561D01*
X005008Y011561D01*
X002561Y014008D01*
X002561Y020673D01*
X004654Y018580D01*
X004749Y018541D01*
X004852Y018541D01*
X014741Y018541D01*
X014853Y018429D01*
X015014Y018363D01*
X015188Y018363D01*
X015349Y018429D01*
X015472Y018553D01*
X015539Y018714D01*
X015539Y018888D01*
X015472Y019049D01*
X015349Y019172D01*
X015188Y019239D01*
X015014Y019239D01*
X014853Y019172D01*
X014741Y019061D01*
X004908Y019061D01*
X002961Y021008D01*
X002961Y027701D01*
X002980Y027654D01*
X003054Y027580D01*
X004654Y025980D01*
X004749Y025941D01*
X004852Y025941D01*
X014841Y025941D01*
X014953Y025829D01*
X015114Y025763D01*
X015288Y025763D01*
X015449Y025829D01*
X015572Y025953D01*
X015639Y026114D01*
X015639Y026288D01*
X015572Y026449D01*
X015449Y026572D01*
X015288Y026639D01*
X015114Y026639D01*
X014953Y026572D01*
X014841Y026461D01*
X004908Y026461D01*
X003461Y027908D01*
X003461Y041493D01*
X003708Y041741D01*
X011441Y041741D01*
X011453Y041729D01*
X011614Y041663D01*
X011788Y041663D01*
X011949Y041729D01*
X012072Y041853D01*
X012139Y042014D01*
X012139Y042188D01*
X012072Y042349D01*
X011949Y042472D01*
X011788Y042539D01*
X011658Y042539D01*
X011672Y042553D01*
X011739Y042714D01*
X011739Y042888D01*
X011672Y043049D01*
X011549Y043172D01*
X011388Y043239D01*
X011214Y043239D01*
X011053Y043172D01*
X010941Y043061D01*
X003349Y043061D01*
X003254Y043021D01*
X003180Y042948D01*
X002561Y042328D01*
X002561Y044293D01*
X002968Y044700D01*
X002963Y044688D01*
X002963Y044514D01*
X003029Y044353D01*
X003153Y044229D01*
X003314Y044163D01*
X003488Y044163D01*
X003649Y044229D01*
X003760Y044341D01*
X009441Y044341D01*
X009553Y044229D01*
X009714Y044163D01*
X009888Y044163D01*
X010049Y044229D01*
X010172Y044353D01*
X010239Y044514D01*
X010239Y044688D01*
X010172Y044849D01*
X010049Y044972D01*
X009888Y045039D01*
X009714Y045039D01*
X009553Y044972D01*
X009441Y044861D01*
X003760Y044861D01*
X003649Y044972D01*
X003488Y045039D01*
X003314Y045039D01*
X003301Y045034D01*
X004208Y045941D01*
X010241Y045941D01*
X010353Y045829D01*
X010514Y045763D01*
X010688Y045763D01*
X010849Y045829D01*
X010972Y045953D01*
X011039Y046114D01*
X011039Y046288D01*
X010972Y046449D01*
X010849Y046572D01*
X010688Y046639D01*
X010452Y046613D02*
X001101Y046613D01*
X001101Y046515D02*
X010295Y046515D01*
X010259Y045923D02*
X009825Y045923D01*
X009788Y045939D02*
X009614Y045939D01*
X009453Y045872D01*
X009341Y045761D01*
X005660Y045761D01*
X005549Y045872D01*
X005388Y045939D01*
X005214Y045939D01*
X005053Y045872D01*
X004929Y045749D01*
X004863Y045588D01*
X004863Y045414D01*
X004929Y045253D01*
X005053Y045129D01*
X005214Y045063D01*
X005388Y045063D01*
X005549Y045129D01*
X005660Y045241D01*
X009341Y045241D01*
X009453Y045129D01*
X009614Y045063D01*
X009788Y045063D01*
X009949Y045129D01*
X010072Y045253D01*
X010139Y045414D01*
X010139Y045588D01*
X010072Y045749D01*
X009949Y045872D01*
X009788Y045939D01*
X009576Y045923D02*
X005425Y045923D01*
X005596Y045825D02*
X009405Y045825D01*
X009996Y045825D02*
X010363Y045825D01*
X010082Y045726D02*
X013041Y045726D01*
X013041Y045628D02*
X010122Y045628D01*
X010139Y045529D02*
X013010Y045529D01*
X012922Y045431D02*
X010139Y045431D01*
X010105Y045332D02*
X012881Y045332D01*
X012863Y045234D02*
X010053Y045234D01*
X009955Y045135D02*
X012863Y045135D01*
X012895Y045037D02*
X009894Y045037D01*
X009708Y045037D02*
X003494Y045037D01*
X003403Y045135D02*
X005047Y045135D01*
X004948Y045234D02*
X003501Y045234D01*
X003600Y045332D02*
X004896Y045332D01*
X004863Y045431D02*
X003698Y045431D01*
X003797Y045529D02*
X004863Y045529D01*
X004879Y045628D02*
X003895Y045628D01*
X003994Y045726D02*
X004920Y045726D01*
X005005Y045825D02*
X004093Y045825D01*
X004191Y045923D02*
X005176Y045923D01*
X005653Y045234D02*
X009348Y045234D01*
X009447Y045135D02*
X005555Y045135D01*
X003683Y044938D02*
X009518Y044938D01*
X009534Y044248D02*
X003668Y044248D01*
X003134Y044248D02*
X002561Y044248D01*
X002561Y044150D02*
X014882Y044150D01*
X014981Y044248D02*
X010068Y044248D01*
X010166Y044347D02*
X015079Y044347D01*
X015178Y044445D02*
X010211Y044445D01*
X010239Y044544D02*
X015276Y044544D01*
X015375Y044642D02*
X010239Y044642D01*
X010217Y044741D02*
X015473Y044741D01*
X015572Y044839D02*
X013559Y044839D01*
X013658Y044938D02*
X015670Y044938D01*
X015769Y045037D02*
X013707Y045037D01*
X013739Y045135D02*
X015867Y045135D01*
X015966Y045234D02*
X013739Y045234D01*
X013721Y045332D02*
X016064Y045332D01*
X016163Y045431D02*
X013680Y045431D01*
X013592Y045529D02*
X016262Y045529D01*
X016360Y045628D02*
X013561Y045628D01*
X013561Y045726D02*
X016466Y045726D01*
X015963Y046219D02*
X017838Y046219D01*
X017740Y046318D02*
X016062Y046318D01*
X016060Y047106D02*
X017742Y047106D01*
X017840Y047204D02*
X015961Y047204D01*
X015956Y048091D02*
X017846Y048091D01*
X017757Y048190D02*
X016045Y048190D01*
X016101Y048288D02*
X017700Y048288D01*
X017671Y048387D02*
X016131Y048387D01*
X016132Y048584D02*
X017669Y048584D01*
X017696Y048683D02*
X016105Y048683D01*
X016053Y048781D02*
X017749Y048781D01*
X017834Y048880D02*
X015967Y048880D01*
X015803Y048978D02*
X017998Y048978D01*
X018131Y048978D02*
X018231Y048978D01*
X018231Y048880D02*
X018131Y048880D01*
X018131Y048781D02*
X018231Y048781D01*
X018231Y048683D02*
X018131Y048683D01*
X018131Y048584D02*
X018231Y048584D01*
X018131Y048486D02*
X015671Y048486D01*
X015671Y048584D02*
X015571Y048584D01*
X015571Y048486D02*
X012441Y048486D01*
X012441Y048584D02*
X015109Y048584D01*
X015136Y048683D02*
X012441Y048683D01*
X012441Y048781D02*
X015189Y048781D01*
X015274Y048880D02*
X012419Y048880D01*
X012379Y048978D02*
X015438Y048978D01*
X015571Y048978D02*
X015671Y048978D01*
X015671Y048880D02*
X015571Y048880D01*
X015571Y048781D02*
X015671Y048781D01*
X015671Y048683D02*
X015571Y048683D01*
X015571Y048387D02*
X015671Y048387D01*
X015671Y048288D02*
X015571Y048288D01*
X015571Y048190D02*
X015671Y048190D01*
X015671Y048091D02*
X015571Y048091D01*
X015286Y048091D02*
X012441Y048091D01*
X012441Y048190D02*
X015197Y048190D01*
X015140Y048288D02*
X012441Y048288D01*
X012441Y048387D02*
X015111Y048387D01*
X014935Y046909D02*
X013561Y046909D01*
X013561Y046810D02*
X015031Y046810D01*
X015031Y046712D02*
X013561Y046712D01*
X013561Y046613D02*
X015031Y046613D01*
X015063Y046515D02*
X013561Y046515D01*
X013561Y046416D02*
X015104Y046416D01*
X015180Y046318D02*
X013561Y046318D01*
X013561Y046219D02*
X015278Y046219D01*
X013561Y046121D02*
X019953Y046121D01*
X020051Y046219D02*
X018523Y046219D01*
X018622Y046318D02*
X020150Y046318D01*
X020248Y046416D02*
X018697Y046416D01*
X018738Y046515D02*
X020347Y046515D01*
X020363Y046613D02*
X018771Y046613D01*
X018771Y046712D02*
X020373Y046712D01*
X020413Y046810D02*
X018771Y046810D01*
X018737Y046909D02*
X020489Y046909D01*
X020638Y047007D02*
X018697Y047007D01*
X019756Y045923D02*
X013561Y045923D01*
X013561Y045825D02*
X019657Y045825D01*
X019854Y046022D02*
X013561Y046022D01*
X013041Y046022D02*
X011001Y046022D01*
X011039Y046121D02*
X013041Y046121D01*
X013041Y046219D02*
X011039Y046219D01*
X011027Y046318D02*
X013041Y046318D01*
X013041Y046416D02*
X010986Y046416D01*
X010906Y046515D02*
X013041Y046515D01*
X013041Y045923D02*
X010943Y045923D01*
X010838Y045825D02*
X013041Y045825D01*
X012944Y044938D02*
X010083Y044938D01*
X010176Y044839D02*
X013043Y044839D01*
X014389Y043657D02*
X002561Y043657D01*
X002561Y043755D02*
X014488Y043755D01*
X014586Y043854D02*
X002561Y043854D01*
X002561Y043953D02*
X014685Y043953D01*
X014783Y044051D02*
X002561Y044051D01*
X002614Y044347D02*
X003035Y044347D01*
X002991Y044445D02*
X002713Y044445D01*
X002811Y044544D02*
X002963Y044544D01*
X002963Y044642D02*
X002910Y044642D01*
X002569Y045037D02*
X001101Y045037D01*
X001101Y045135D02*
X002667Y045135D01*
X002766Y045234D02*
X001101Y045234D01*
X001101Y045332D02*
X002864Y045332D01*
X002963Y045431D02*
X001101Y045431D01*
X001101Y045529D02*
X003062Y045529D01*
X003160Y045628D02*
X001101Y045628D01*
X001101Y045726D02*
X003259Y045726D01*
X003357Y045825D02*
X001101Y045825D01*
X001101Y045923D02*
X003456Y045923D01*
X003554Y046022D02*
X001101Y046022D01*
X001101Y046121D02*
X003653Y046121D01*
X003751Y046219D02*
X001101Y046219D01*
X001101Y046318D02*
X003850Y046318D01*
X003948Y046416D02*
X001101Y046416D01*
X001101Y044938D02*
X002470Y044938D01*
X002372Y044839D02*
X001101Y044839D01*
X001101Y044741D02*
X002273Y044741D01*
X002175Y044642D02*
X001101Y044642D01*
X001101Y044544D02*
X002079Y044544D01*
X002041Y044445D02*
X001101Y044445D01*
X001101Y044347D02*
X002041Y044347D01*
X002041Y044248D02*
X001101Y044248D01*
X001101Y044150D02*
X002041Y044150D01*
X002041Y044051D02*
X001101Y044051D01*
X001101Y043953D02*
X002041Y043953D01*
X002041Y043854D02*
X001101Y043854D01*
X001101Y043755D02*
X002041Y043755D01*
X002041Y043657D02*
X001101Y043657D01*
X001101Y043558D02*
X002041Y043558D01*
X002041Y043460D02*
X001101Y043460D01*
X001101Y043361D02*
X002041Y043361D01*
X002041Y043263D02*
X001101Y043263D01*
X001101Y043164D02*
X002041Y043164D01*
X002041Y043066D02*
X001101Y043066D01*
X001101Y042967D02*
X002041Y042967D01*
X002041Y042869D02*
X001101Y042869D01*
X001101Y042770D02*
X002041Y042770D01*
X002041Y042671D02*
X001101Y042671D01*
X001101Y042573D02*
X002041Y042573D01*
X002041Y042474D02*
X001101Y042474D01*
X001101Y042376D02*
X002041Y042376D01*
X002041Y042277D02*
X001101Y042277D01*
X001101Y042179D02*
X002041Y042179D01*
X002041Y042080D02*
X001101Y042080D01*
X001101Y041982D02*
X002041Y041982D01*
X002041Y041883D02*
X001101Y041883D01*
X001101Y041785D02*
X002041Y041785D01*
X002041Y041686D02*
X001101Y041686D01*
X001101Y041588D02*
X002041Y041588D01*
X002041Y041489D02*
X001101Y041489D01*
X001101Y041390D02*
X002041Y041390D01*
X002041Y041292D02*
X001101Y041292D01*
X001101Y041193D02*
X002041Y041193D01*
X002041Y041095D02*
X001101Y041095D01*
X001101Y040996D02*
X002041Y040996D01*
X002041Y040898D02*
X001101Y040898D01*
X001101Y040799D02*
X002041Y040799D01*
X002041Y040701D02*
X001101Y040701D01*
X001101Y040602D02*
X002041Y040602D01*
X002041Y040504D02*
X001101Y040504D01*
X001101Y040405D02*
X002041Y040405D01*
X002041Y040306D02*
X001101Y040306D01*
X001101Y040208D02*
X002041Y040208D01*
X002041Y040109D02*
X001101Y040109D01*
X001101Y040011D02*
X002041Y040011D01*
X002041Y039912D02*
X001101Y039912D01*
X001101Y039814D02*
X002041Y039814D01*
X002041Y039715D02*
X001101Y039715D01*
X001101Y039617D02*
X002041Y039617D01*
X002041Y039518D02*
X001101Y039518D01*
X001101Y039420D02*
X002041Y039420D01*
X002041Y039321D02*
X001101Y039321D01*
X001101Y039222D02*
X002041Y039222D01*
X002041Y039124D02*
X001101Y039124D01*
X001101Y039025D02*
X002041Y039025D01*
X002041Y038927D02*
X001101Y038927D01*
X001101Y038828D02*
X002041Y038828D01*
X002041Y038730D02*
X001101Y038730D01*
X001101Y038631D02*
X002041Y038631D01*
X002041Y038533D02*
X001101Y038533D01*
X001101Y038434D02*
X002041Y038434D01*
X002041Y038336D02*
X001101Y038336D01*
X001101Y038237D02*
X002041Y038237D01*
X002041Y038139D02*
X001101Y038139D01*
X001101Y038040D02*
X002041Y038040D01*
X002041Y037941D02*
X001101Y037941D01*
X001101Y037843D02*
X002041Y037843D01*
X002041Y037744D02*
X001101Y037744D01*
X001101Y037646D02*
X002041Y037646D01*
X002041Y037547D02*
X001101Y037547D01*
X001101Y037449D02*
X002041Y037449D01*
X002041Y037350D02*
X001101Y037350D01*
X001101Y037252D02*
X002041Y037252D01*
X002041Y037153D02*
X001101Y037153D01*
X001101Y037055D02*
X002041Y037055D01*
X002041Y036956D02*
X001101Y036956D01*
X001101Y036857D02*
X002041Y036857D01*
X002041Y036759D02*
X001101Y036759D01*
X001101Y036660D02*
X002041Y036660D01*
X002041Y036562D02*
X001101Y036562D01*
X001101Y036463D02*
X002041Y036463D01*
X002041Y036365D02*
X001101Y036365D01*
X001101Y036266D02*
X002041Y036266D01*
X002041Y036168D02*
X001101Y036168D01*
X001101Y036069D02*
X002041Y036069D01*
X002041Y035971D02*
X001101Y035971D01*
X001101Y035872D02*
X002041Y035872D01*
X002041Y035773D02*
X001101Y035773D01*
X001101Y035675D02*
X002041Y035675D01*
X002041Y035576D02*
X001101Y035576D01*
X001101Y035478D02*
X002041Y035478D01*
X002041Y035379D02*
X001101Y035379D01*
X001101Y035281D02*
X002041Y035281D01*
X002041Y035182D02*
X001101Y035182D01*
X001101Y035084D02*
X002041Y035084D01*
X002041Y034985D02*
X001101Y034985D01*
X001101Y034887D02*
X002041Y034887D01*
X002041Y034788D02*
X001101Y034788D01*
X001101Y034689D02*
X002041Y034689D01*
X002041Y034591D02*
X001101Y034591D01*
X001101Y034492D02*
X002041Y034492D01*
X002041Y034394D02*
X001101Y034394D01*
X001101Y034295D02*
X002041Y034295D01*
X002041Y034197D02*
X001101Y034197D01*
X001101Y034098D02*
X002041Y034098D01*
X002041Y034000D02*
X001101Y034000D01*
X001101Y033901D02*
X002041Y033901D01*
X002041Y033803D02*
X001101Y033803D01*
X001101Y033704D02*
X002041Y033704D01*
X002041Y033606D02*
X001101Y033606D01*
X001101Y033507D02*
X002041Y033507D01*
X002041Y033408D02*
X001101Y033408D01*
X001101Y033310D02*
X002041Y033310D01*
X002041Y033211D02*
X001101Y033211D01*
X001101Y033113D02*
X002041Y033113D01*
X002041Y033014D02*
X001101Y033014D01*
X001101Y032916D02*
X002041Y032916D01*
X002041Y032817D02*
X001101Y032817D01*
X001101Y032719D02*
X002041Y032719D01*
X002041Y032620D02*
X001101Y032620D01*
X001101Y032522D02*
X002041Y032522D01*
X002041Y032423D02*
X001101Y032423D01*
X001101Y032324D02*
X002041Y032324D01*
X002041Y032226D02*
X001101Y032226D01*
X001101Y032127D02*
X002041Y032127D01*
X002041Y032029D02*
X001101Y032029D01*
X001101Y031930D02*
X002041Y031930D01*
X002041Y031832D02*
X001101Y031832D01*
X001101Y031733D02*
X002041Y031733D01*
X002041Y031635D02*
X001101Y031635D01*
X001101Y031536D02*
X002041Y031536D01*
X002041Y031438D02*
X001101Y031438D01*
X001101Y031339D02*
X002041Y031339D01*
X002041Y031240D02*
X001101Y031240D01*
X001101Y031142D02*
X002041Y031142D01*
X002041Y031043D02*
X001101Y031043D01*
X001101Y030945D02*
X002041Y030945D01*
X002041Y030846D02*
X001101Y030846D01*
X001101Y030748D02*
X002041Y030748D01*
X002041Y030649D02*
X001101Y030649D01*
X001101Y030551D02*
X002041Y030551D01*
X002041Y030452D02*
X001101Y030452D01*
X001101Y030354D02*
X002041Y030354D01*
X002041Y030255D02*
X001101Y030255D01*
X001101Y030156D02*
X002041Y030156D01*
X002041Y030058D02*
X001101Y030058D01*
X001101Y029959D02*
X002041Y029959D01*
X002041Y029861D02*
X001101Y029861D01*
X001101Y029762D02*
X002041Y029762D01*
X002041Y029664D02*
X001101Y029664D01*
X001101Y029565D02*
X002041Y029565D01*
X002041Y029467D02*
X001101Y029467D01*
X001101Y029368D02*
X002041Y029368D01*
X002041Y029270D02*
X001101Y029270D01*
X001101Y029171D02*
X002041Y029171D01*
X002041Y029073D02*
X001101Y029073D01*
X001101Y028974D02*
X002041Y028974D01*
X002041Y028875D02*
X001101Y028875D01*
X001101Y028777D02*
X002041Y028777D01*
X002041Y028678D02*
X001101Y028678D01*
X001101Y028580D02*
X002041Y028580D01*
X002041Y028481D02*
X001101Y028481D01*
X001101Y028383D02*
X002041Y028383D01*
X002041Y028284D02*
X001101Y028284D01*
X001101Y028186D02*
X002041Y028186D01*
X002041Y028087D02*
X001101Y028087D01*
X001101Y027989D02*
X002041Y027989D01*
X002041Y027890D02*
X001101Y027890D01*
X001101Y027791D02*
X002041Y027791D01*
X002041Y027693D02*
X001101Y027693D01*
X001101Y027594D02*
X002041Y027594D01*
X002041Y027496D02*
X001101Y027496D01*
X001101Y027397D02*
X002041Y027397D01*
X002041Y027299D02*
X001101Y027299D01*
X001101Y027200D02*
X002041Y027200D01*
X002041Y027102D02*
X001101Y027102D01*
X001101Y027003D02*
X002041Y027003D01*
X002041Y026905D02*
X001101Y026905D01*
X001101Y026806D02*
X002041Y026806D01*
X002041Y026707D02*
X001101Y026707D01*
X001101Y026609D02*
X002041Y026609D01*
X002041Y026510D02*
X001101Y026510D01*
X001101Y026412D02*
X002041Y026412D01*
X002041Y026313D02*
X001101Y026313D01*
X001101Y026215D02*
X002041Y026215D01*
X002041Y026116D02*
X001101Y026116D01*
X001101Y026018D02*
X002041Y026018D01*
X002041Y025919D02*
X001101Y025919D01*
X001101Y025821D02*
X002041Y025821D01*
X002041Y025722D02*
X001101Y025722D01*
X001101Y025624D02*
X002041Y025624D01*
X002041Y025525D02*
X001101Y025525D01*
X001101Y025426D02*
X002041Y025426D01*
X002041Y025328D02*
X001101Y025328D01*
X001101Y025229D02*
X002041Y025229D01*
X002041Y025131D02*
X001101Y025131D01*
X001101Y025032D02*
X002041Y025032D01*
X002041Y024934D02*
X001101Y024934D01*
X001101Y024835D02*
X002041Y024835D01*
X002041Y024737D02*
X001101Y024737D01*
X001101Y024638D02*
X002041Y024638D01*
X002041Y024540D02*
X001101Y024540D01*
X001101Y024441D02*
X002041Y024441D01*
X002041Y024342D02*
X001101Y024342D01*
X001101Y024244D02*
X002041Y024244D01*
X002041Y024145D02*
X001101Y024145D01*
X001101Y024047D02*
X002041Y024047D01*
X002041Y023948D02*
X001101Y023948D01*
X001101Y023850D02*
X002041Y023850D01*
X002041Y023751D02*
X001101Y023751D01*
X001101Y023653D02*
X002041Y023653D01*
X002041Y023554D02*
X001101Y023554D01*
X001101Y023456D02*
X002041Y023456D01*
X002041Y023357D02*
X001101Y023357D01*
X001101Y023258D02*
X002041Y023258D01*
X002041Y023160D02*
X001101Y023160D01*
X001101Y023061D02*
X002041Y023061D01*
X002041Y022963D02*
X001101Y022963D01*
X001101Y022864D02*
X002041Y022864D01*
X002041Y022766D02*
X001101Y022766D01*
X001101Y022667D02*
X002041Y022667D01*
X002041Y022569D02*
X001101Y022569D01*
X001101Y022470D02*
X002041Y022470D01*
X002041Y022372D02*
X001101Y022372D01*
X001101Y022273D02*
X002041Y022273D01*
X002041Y022174D02*
X001101Y022174D01*
X001101Y022076D02*
X002041Y022076D01*
X002041Y021977D02*
X001101Y021977D01*
X001101Y021879D02*
X002041Y021879D01*
X002041Y021780D02*
X001101Y021780D01*
X001101Y021682D02*
X002041Y021682D01*
X002041Y021583D02*
X001101Y021583D01*
X001101Y021485D02*
X002041Y021485D01*
X002041Y021386D02*
X001101Y021386D01*
X001101Y021288D02*
X002041Y021288D01*
X002041Y021189D02*
X001101Y021189D01*
X001101Y021091D02*
X002041Y021091D01*
X002041Y020992D02*
X001101Y020992D01*
X001101Y020893D02*
X002041Y020893D01*
X002041Y020795D02*
X001101Y020795D01*
X001101Y020696D02*
X002041Y020696D01*
X002041Y020598D02*
X001101Y020598D01*
X001101Y020499D02*
X002041Y020499D01*
X002041Y020401D02*
X001101Y020401D01*
X001101Y020302D02*
X002041Y020302D01*
X002041Y020204D02*
X001101Y020204D01*
X001101Y020105D02*
X002041Y020105D01*
X002041Y020007D02*
X001101Y020007D01*
X001101Y019908D02*
X002041Y019908D01*
X002041Y019809D02*
X001101Y019809D01*
X001101Y019711D02*
X002041Y019711D01*
X002041Y019612D02*
X001101Y019612D01*
X001101Y019514D02*
X002041Y019514D01*
X002041Y019415D02*
X001101Y019415D01*
X001101Y019317D02*
X002041Y019317D01*
X002041Y019218D02*
X001101Y019218D01*
X001101Y019120D02*
X002041Y019120D01*
X002041Y019021D02*
X001101Y019021D01*
X001101Y018923D02*
X002041Y018923D01*
X002041Y018824D02*
X001101Y018824D01*
X001101Y018725D02*
X002041Y018725D01*
X002041Y018627D02*
X001101Y018627D01*
X001101Y018528D02*
X002041Y018528D01*
X002041Y018430D02*
X001101Y018430D01*
X001101Y018331D02*
X002041Y018331D01*
X002041Y018233D02*
X001101Y018233D01*
X001101Y018134D02*
X002041Y018134D01*
X002041Y018036D02*
X001101Y018036D01*
X001101Y017937D02*
X002041Y017937D01*
X002041Y017839D02*
X001101Y017839D01*
X001101Y017740D02*
X002041Y017740D01*
X002041Y017641D02*
X001101Y017641D01*
X001101Y017543D02*
X002041Y017543D01*
X002041Y017444D02*
X001101Y017444D01*
X001101Y017346D02*
X002041Y017346D01*
X002041Y017247D02*
X001101Y017247D01*
X001101Y017149D02*
X002041Y017149D01*
X002041Y017050D02*
X001101Y017050D01*
X001101Y016952D02*
X002041Y016952D01*
X002041Y016853D02*
X001101Y016853D01*
X001101Y016755D02*
X002041Y016755D01*
X002041Y016656D02*
X001101Y016656D01*
X001101Y016558D02*
X002041Y016558D01*
X002041Y016459D02*
X001101Y016459D01*
X001101Y016360D02*
X002041Y016360D01*
X002041Y016262D02*
X001101Y016262D01*
X001101Y016163D02*
X002041Y016163D01*
X002041Y016065D02*
X001101Y016065D01*
X001101Y015966D02*
X002041Y015966D01*
X002041Y015868D02*
X001101Y015868D01*
X001101Y015769D02*
X002041Y015769D01*
X002041Y015671D02*
X001101Y015671D01*
X001101Y015572D02*
X002041Y015572D01*
X002041Y015474D02*
X001101Y015474D01*
X001101Y015375D02*
X002041Y015375D01*
X002041Y015276D02*
X001101Y015276D01*
X001101Y015178D02*
X002041Y015178D01*
X002041Y015079D02*
X001101Y015079D01*
X001101Y014981D02*
X002041Y014981D01*
X002041Y014882D02*
X001101Y014882D01*
X001101Y014784D02*
X002041Y014784D01*
X002041Y014685D02*
X001101Y014685D01*
X001101Y014587D02*
X002041Y014587D01*
X002041Y014488D02*
X001101Y014488D01*
X001101Y014390D02*
X002041Y014390D01*
X002041Y014291D02*
X001101Y014291D01*
X001101Y014192D02*
X002041Y014192D01*
X002041Y014094D02*
X001101Y014094D01*
X001101Y013995D02*
X002041Y013995D01*
X002041Y013897D02*
X001101Y013897D01*
X001101Y013798D02*
X002062Y013798D01*
X002134Y013700D02*
X001101Y013700D01*
X001101Y013601D02*
X002233Y013601D01*
X002331Y013503D02*
X001101Y013503D01*
X001101Y013404D02*
X002430Y013404D01*
X002528Y013306D02*
X001101Y013306D01*
X001101Y013207D02*
X002627Y013207D01*
X002725Y013109D02*
X001101Y013109D01*
X001101Y013010D02*
X002824Y013010D01*
X002922Y012911D02*
X001101Y012911D01*
X001101Y012813D02*
X003021Y012813D01*
X003120Y012714D02*
X001101Y012714D01*
X001101Y012616D02*
X003218Y012616D01*
X003317Y012517D02*
X001101Y012517D01*
X001101Y012419D02*
X003415Y012419D01*
X003514Y012320D02*
X001101Y012320D01*
X001101Y012222D02*
X003612Y012222D01*
X003711Y012123D02*
X001101Y012123D01*
X001101Y012025D02*
X003809Y012025D01*
X003908Y011926D02*
X001101Y011926D01*
X001101Y011827D02*
X004006Y011827D01*
X004105Y011729D02*
X001101Y011729D01*
X001101Y011630D02*
X004204Y011630D01*
X004302Y011532D02*
X001101Y011532D01*
X001101Y011433D02*
X004401Y011433D01*
X004499Y011335D02*
X001101Y011335D01*
X001101Y011236D02*
X004598Y011236D01*
X004696Y011138D02*
X001101Y011138D01*
X001101Y011039D02*
X014843Y011039D01*
X014941Y010941D02*
X001101Y010941D01*
X001101Y010842D02*
X028101Y010842D01*
X028101Y010941D02*
X015460Y010941D01*
X015559Y011039D02*
X028101Y011039D01*
X028101Y011138D02*
X015607Y011138D01*
X015639Y011236D02*
X028101Y011236D01*
X028101Y011335D02*
X015639Y011335D01*
X015620Y011433D02*
X028101Y011433D01*
X028101Y011532D02*
X015579Y011532D01*
X015491Y011630D02*
X028101Y011630D01*
X028101Y011729D02*
X015312Y011729D01*
X015090Y011729D02*
X004840Y011729D01*
X004742Y011827D02*
X028101Y011827D01*
X028101Y011926D02*
X004643Y011926D01*
X004545Y012025D02*
X028101Y012025D01*
X028101Y012123D02*
X004446Y012123D01*
X004348Y012222D02*
X028101Y012222D01*
X028101Y012320D02*
X004249Y012320D01*
X004151Y012419D02*
X028101Y012419D01*
X028101Y012517D02*
X004052Y012517D01*
X003953Y012616D02*
X028101Y012616D01*
X028101Y012714D02*
X003855Y012714D01*
X003756Y012813D02*
X006521Y012813D01*
X006554Y012780D02*
X006480Y012854D01*
X005983Y013351D01*
X005644Y013351D01*
X005351Y013644D01*
X005351Y014058D01*
X005644Y014351D01*
X006058Y014351D01*
X006351Y014058D01*
X006351Y013718D01*
X006351Y013718D01*
X006351Y014058D01*
X006644Y014351D01*
X007058Y014351D01*
X007351Y014058D01*
X007351Y013644D01*
X007058Y013351D01*
X006718Y013351D01*
X006808Y013261D01*
X014893Y013261D01*
X015351Y013718D01*
X015351Y014058D01*
X015644Y014351D01*
X016058Y014351D01*
X016351Y014058D01*
X016351Y013718D01*
X016351Y013718D01*
X016351Y014058D01*
X016644Y014351D01*
X017058Y014351D01*
X017351Y014058D01*
X017351Y013644D01*
X017058Y013351D01*
X016718Y013351D01*
X016808Y013261D01*
X024893Y013261D01*
X025351Y013718D01*
X025351Y014058D01*
X025644Y014351D01*
X026058Y014351D01*
X026351Y014058D01*
X026351Y013644D01*
X026644Y013351D01*
X027058Y013351D01*
X027351Y013644D01*
X027351Y014058D01*
X027058Y014351D01*
X026644Y014351D01*
X026351Y014058D01*
X026351Y013644D01*
X026058Y013351D01*
X025718Y013351D01*
X025148Y012780D01*
X025052Y012741D01*
X024949Y012741D01*
X016649Y012741D01*
X016554Y012780D01*
X016480Y012854D01*
X015983Y013351D01*
X015718Y013351D01*
X015148Y012780D01*
X015052Y012741D01*
X014949Y012741D01*
X006649Y012741D01*
X006554Y012780D01*
X006422Y012911D02*
X003658Y012911D01*
X003559Y013010D02*
X006324Y013010D01*
X006225Y013109D02*
X003461Y013109D01*
X003362Y013207D02*
X006127Y013207D01*
X006028Y013306D02*
X003264Y013306D01*
X003165Y013404D02*
X005590Y013404D01*
X005492Y013503D02*
X003067Y013503D01*
X002968Y013601D02*
X005393Y013601D01*
X005351Y013700D02*
X002869Y013700D01*
X002771Y013798D02*
X005351Y013798D01*
X005351Y013897D02*
X002672Y013897D01*
X002574Y013995D02*
X005351Y013995D01*
X005387Y014094D02*
X002561Y014094D01*
X002561Y014192D02*
X005485Y014192D01*
X005584Y014291D02*
X002561Y014291D01*
X002561Y014390D02*
X028101Y014390D01*
X028101Y014488D02*
X002561Y014488D01*
X002561Y014587D02*
X028101Y014587D01*
X028101Y014685D02*
X002561Y014685D01*
X002561Y014784D02*
X028101Y014784D01*
X028101Y014882D02*
X002561Y014882D01*
X002561Y014981D02*
X028101Y014981D01*
X028101Y015079D02*
X002561Y015079D01*
X002561Y015178D02*
X028101Y015178D01*
X028101Y015276D02*
X002561Y015276D01*
X002561Y015375D02*
X028101Y015375D01*
X028101Y015474D02*
X002561Y015474D01*
X002561Y015572D02*
X028101Y015572D01*
X028101Y015671D02*
X002561Y015671D01*
X002561Y015769D02*
X028101Y015769D01*
X028101Y015868D02*
X002561Y015868D01*
X002561Y015966D02*
X028101Y015966D01*
X028101Y016065D02*
X002561Y016065D01*
X002561Y016163D02*
X028101Y016163D01*
X028101Y016262D02*
X002561Y016262D01*
X002561Y016360D02*
X028101Y016360D01*
X028101Y016459D02*
X002561Y016459D01*
X002561Y016558D02*
X028101Y016558D01*
X028101Y016656D02*
X002561Y016656D01*
X002561Y016755D02*
X028101Y016755D01*
X028101Y016853D02*
X002561Y016853D01*
X002561Y016952D02*
X028101Y016952D01*
X028101Y017050D02*
X002561Y017050D01*
X002561Y017149D02*
X028101Y017149D01*
X028101Y017247D02*
X002561Y017247D01*
X002561Y017346D02*
X028101Y017346D01*
X028101Y017444D02*
X002561Y017444D01*
X002561Y017543D02*
X028101Y017543D01*
X028101Y017641D02*
X002561Y017641D01*
X002561Y017740D02*
X028101Y017740D01*
X028101Y017839D02*
X002561Y017839D01*
X002561Y017937D02*
X028101Y017937D01*
X028101Y018036D02*
X002561Y018036D01*
X002561Y018134D02*
X028101Y018134D01*
X028101Y018233D02*
X002561Y018233D01*
X002561Y018331D02*
X028101Y018331D01*
X028101Y018430D02*
X015349Y018430D01*
X015448Y018528D02*
X028101Y018528D01*
X028101Y018627D02*
X015503Y018627D01*
X015539Y018725D02*
X028101Y018725D01*
X028101Y018824D02*
X015539Y018824D01*
X015525Y018923D02*
X028101Y018923D01*
X028101Y019021D02*
X015484Y019021D01*
X015401Y019120D02*
X028101Y019120D01*
X028101Y019218D02*
X015238Y019218D01*
X014964Y019218D02*
X004751Y019218D01*
X004850Y019120D02*
X014800Y019120D01*
X014754Y018528D02*
X002561Y018528D01*
X002561Y018430D02*
X014852Y018430D01*
X014949Y020241D02*
X015052Y020241D01*
X015148Y020280D01*
X015718Y020851D01*
X015983Y020851D01*
X016480Y020354D01*
X016554Y020280D01*
X016649Y020241D01*
X024949Y020241D01*
X025052Y020241D01*
X025148Y020280D01*
X025718Y020851D01*
X026058Y020851D01*
X026351Y021144D01*
X026644Y020851D01*
X027058Y020851D01*
X027351Y021144D01*
X027351Y021558D01*
X027058Y021851D01*
X026644Y021851D01*
X026351Y021558D01*
X026351Y021144D01*
X026351Y021558D01*
X026058Y021851D01*
X025644Y021851D01*
X025351Y021558D01*
X025351Y021218D01*
X024893Y020761D01*
X016808Y020761D01*
X016718Y020851D01*
X017058Y020851D01*
X017351Y021144D01*
X017351Y021558D01*
X017058Y021851D01*
X016644Y021851D01*
X016351Y021558D01*
X016351Y021218D01*
X016351Y021218D01*
X016351Y021558D01*
X016058Y021851D01*
X015644Y021851D01*
X015351Y021558D01*
X015351Y021218D01*
X014893Y020761D01*
X006808Y020761D01*
X006718Y020851D01*
X007058Y020851D01*
X007351Y021144D01*
X007351Y021558D01*
X007058Y021851D01*
X006644Y021851D01*
X006351Y021558D01*
X006351Y021218D01*
X006351Y021218D01*
X006351Y021558D01*
X006058Y021851D01*
X005644Y021851D01*
X005351Y021558D01*
X005351Y021144D01*
X005644Y020851D01*
X005983Y020851D01*
X006480Y020354D01*
X006554Y020280D01*
X006649Y020241D01*
X014949Y020241D01*
X015170Y020302D02*
X016532Y020302D01*
X016433Y020401D02*
X015268Y020401D01*
X015367Y020499D02*
X016335Y020499D01*
X016236Y020598D02*
X015465Y020598D01*
X015564Y020696D02*
X016138Y020696D01*
X016039Y020795D02*
X015663Y020795D01*
X015321Y021189D02*
X007351Y021189D01*
X007351Y021288D02*
X015351Y021288D01*
X015351Y021386D02*
X007351Y021386D01*
X007351Y021485D02*
X015351Y021485D01*
X015376Y021583D02*
X007325Y021583D01*
X007227Y021682D02*
X015475Y021682D01*
X015573Y021780D02*
X007128Y021780D01*
X006573Y021780D02*
X006128Y021780D01*
X006227Y021682D02*
X006475Y021682D01*
X006376Y021583D02*
X006325Y021583D01*
X006351Y021485D02*
X006351Y021485D01*
X006351Y021386D02*
X006351Y021386D01*
X006351Y021288D02*
X006351Y021288D01*
X006039Y020795D02*
X003174Y020795D01*
X003076Y020893D02*
X005601Y020893D01*
X005502Y020992D02*
X002977Y020992D01*
X002961Y021091D02*
X005404Y021091D01*
X005351Y021189D02*
X002961Y021189D01*
X002961Y021288D02*
X005351Y021288D01*
X005351Y021386D02*
X002961Y021386D01*
X002961Y021485D02*
X005351Y021485D01*
X005376Y021583D02*
X002961Y021583D01*
X002961Y021682D02*
X005475Y021682D01*
X005573Y021780D02*
X002961Y021780D01*
X002961Y021879D02*
X028101Y021879D01*
X028101Y021977D02*
X002961Y021977D01*
X002961Y022076D02*
X028101Y022076D01*
X028101Y022174D02*
X002961Y022174D01*
X002961Y022273D02*
X028101Y022273D01*
X028101Y022372D02*
X002961Y022372D01*
X002961Y022470D02*
X028101Y022470D01*
X028101Y022569D02*
X002961Y022569D01*
X002961Y022667D02*
X028101Y022667D01*
X028101Y022766D02*
X002961Y022766D01*
X002961Y022864D02*
X028101Y022864D01*
X028101Y022963D02*
X002961Y022963D01*
X002961Y023061D02*
X028101Y023061D01*
X028101Y023160D02*
X002961Y023160D01*
X002961Y023258D02*
X028101Y023258D01*
X028101Y023357D02*
X002961Y023357D01*
X002961Y023456D02*
X028101Y023456D01*
X028101Y023554D02*
X002961Y023554D01*
X002961Y023653D02*
X028101Y023653D01*
X028101Y023751D02*
X002961Y023751D01*
X002961Y023850D02*
X028101Y023850D01*
X028101Y023948D02*
X002961Y023948D01*
X002961Y024047D02*
X028101Y024047D01*
X028101Y024145D02*
X002961Y024145D01*
X002961Y024244D02*
X028101Y024244D01*
X028101Y024342D02*
X002961Y024342D01*
X002961Y024441D02*
X028101Y024441D01*
X028101Y024540D02*
X002961Y024540D01*
X002961Y024638D02*
X028101Y024638D01*
X028101Y024737D02*
X002961Y024737D01*
X002961Y024835D02*
X028101Y024835D01*
X028101Y024934D02*
X002961Y024934D01*
X002961Y025032D02*
X028101Y025032D01*
X028101Y025131D02*
X002961Y025131D01*
X002961Y025229D02*
X028101Y025229D01*
X028101Y025328D02*
X002961Y025328D01*
X002961Y025426D02*
X028101Y025426D01*
X028101Y025525D02*
X002961Y025525D01*
X002961Y025624D02*
X028101Y025624D01*
X028101Y025722D02*
X002961Y025722D01*
X002961Y025821D02*
X014974Y025821D01*
X014863Y025919D02*
X002961Y025919D01*
X002961Y026018D02*
X004616Y026018D01*
X004518Y026116D02*
X002961Y026116D01*
X002961Y026215D02*
X004419Y026215D01*
X004321Y026313D02*
X002961Y026313D01*
X002961Y026412D02*
X004222Y026412D01*
X004123Y026510D02*
X002961Y026510D01*
X002961Y026609D02*
X004025Y026609D01*
X003926Y026707D02*
X002961Y026707D01*
X002961Y026806D02*
X003828Y026806D01*
X003729Y026905D02*
X002961Y026905D01*
X002961Y027003D02*
X003631Y027003D01*
X003532Y027102D02*
X002961Y027102D01*
X002961Y027200D02*
X003434Y027200D01*
X003335Y027299D02*
X002961Y027299D01*
X002961Y027397D02*
X003237Y027397D01*
X003138Y027496D02*
X002961Y027496D01*
X002961Y027594D02*
X003039Y027594D01*
X002964Y027693D02*
X002961Y027693D01*
X003479Y027890D02*
X006444Y027890D01*
X006480Y027854D02*
X006554Y027780D01*
X006649Y027741D01*
X015052Y027741D01*
X015148Y027780D01*
X015221Y027854D01*
X015718Y028351D01*
X015983Y028351D01*
X016480Y027854D01*
X016554Y027780D01*
X016649Y027741D01*
X024949Y027741D01*
X025052Y027741D01*
X025148Y027780D01*
X025718Y028351D01*
X026058Y028351D01*
X026351Y028644D01*
X026644Y028351D01*
X027058Y028351D01*
X027351Y028644D01*
X027351Y029058D01*
X027058Y029351D01*
X026644Y029351D01*
X026351Y029058D01*
X026351Y028644D01*
X026351Y029058D01*
X026058Y029351D01*
X025644Y029351D01*
X025351Y029058D01*
X025351Y028718D01*
X024893Y028261D01*
X016808Y028261D01*
X016718Y028351D01*
X017058Y028351D01*
X017351Y028644D01*
X017351Y029058D01*
X017058Y029351D01*
X016644Y029351D01*
X016351Y029058D01*
X016351Y028718D01*
X016351Y028718D01*
X016351Y029058D01*
X016058Y029351D01*
X015644Y029351D01*
X015351Y029058D01*
X015351Y028718D01*
X014893Y028261D01*
X006808Y028261D01*
X006718Y028351D01*
X007058Y028351D01*
X007351Y028644D01*
X007351Y029058D01*
X007058Y029351D01*
X006644Y029351D01*
X006351Y029058D01*
X006351Y028718D01*
X006351Y028718D01*
X006351Y029058D01*
X006058Y029351D01*
X005644Y029351D01*
X005351Y029058D01*
X005351Y028644D01*
X005644Y028351D01*
X005983Y028351D01*
X006480Y027854D01*
X006542Y027791D02*
X003578Y027791D01*
X003676Y027693D02*
X028101Y027693D01*
X028101Y027791D02*
X025159Y027791D01*
X025258Y027890D02*
X028101Y027890D01*
X028101Y027989D02*
X025356Y027989D01*
X025455Y028087D02*
X028101Y028087D01*
X028101Y028186D02*
X025553Y028186D01*
X025652Y028284D02*
X028101Y028284D01*
X028101Y028383D02*
X027090Y028383D01*
X027188Y028481D02*
X028101Y028481D01*
X028101Y028580D02*
X027287Y028580D01*
X027351Y028678D02*
X028101Y028678D01*
X028101Y028777D02*
X027351Y028777D01*
X027351Y028875D02*
X028101Y028875D01*
X028101Y028974D02*
X027351Y028974D01*
X027336Y029073D02*
X028101Y029073D01*
X028101Y029171D02*
X027238Y029171D01*
X027139Y029270D02*
X028101Y029270D01*
X028101Y029368D02*
X003461Y029368D01*
X003461Y029270D02*
X005563Y029270D01*
X005464Y029171D02*
X003461Y029171D01*
X003461Y029073D02*
X005365Y029073D01*
X005351Y028974D02*
X003461Y028974D01*
X003461Y028875D02*
X005351Y028875D01*
X005351Y028777D02*
X003461Y028777D01*
X003461Y028678D02*
X005351Y028678D01*
X005415Y028580D02*
X003461Y028580D01*
X003461Y028481D02*
X005513Y028481D01*
X005612Y028383D02*
X003461Y028383D01*
X003461Y028284D02*
X006050Y028284D01*
X006148Y028186D02*
X003461Y028186D01*
X003461Y028087D02*
X006247Y028087D01*
X006345Y027989D02*
X003461Y027989D01*
X003775Y027594D02*
X028101Y027594D01*
X028101Y027496D02*
X003873Y027496D01*
X003972Y027397D02*
X028101Y027397D01*
X028101Y027299D02*
X004070Y027299D01*
X004169Y027200D02*
X028101Y027200D01*
X028101Y027102D02*
X004268Y027102D01*
X004366Y027003D02*
X028101Y027003D01*
X028101Y026905D02*
X004465Y026905D01*
X004563Y026806D02*
X028101Y026806D01*
X028101Y026707D02*
X004662Y026707D01*
X004760Y026609D02*
X015041Y026609D01*
X014891Y026510D02*
X004859Y026510D01*
X006785Y028284D02*
X014917Y028284D01*
X015015Y028383D02*
X007090Y028383D01*
X007188Y028481D02*
X015114Y028481D01*
X015212Y028580D02*
X007287Y028580D01*
X007351Y028678D02*
X015311Y028678D01*
X015351Y028777D02*
X007351Y028777D01*
X007351Y028875D02*
X015351Y028875D01*
X015351Y028974D02*
X007351Y028974D01*
X007336Y029073D02*
X015365Y029073D01*
X015464Y029171D02*
X007238Y029171D01*
X007139Y029270D02*
X015563Y029270D01*
X016139Y029270D02*
X016563Y029270D01*
X016464Y029171D02*
X016238Y029171D01*
X016336Y029073D02*
X016365Y029073D01*
X016351Y028974D02*
X016351Y028974D01*
X016351Y028875D02*
X016351Y028875D01*
X016351Y028777D02*
X016351Y028777D01*
X016050Y028284D02*
X015652Y028284D01*
X015553Y028186D02*
X016148Y028186D01*
X016247Y028087D02*
X015455Y028087D01*
X015356Y027989D02*
X016345Y027989D01*
X016444Y027890D02*
X015258Y027890D01*
X015221Y027854D02*
X015221Y027854D01*
X015159Y027791D02*
X016542Y027791D01*
X016480Y027854D02*
X016480Y027854D01*
X016785Y028284D02*
X024917Y028284D01*
X025015Y028383D02*
X017090Y028383D01*
X017188Y028481D02*
X025114Y028481D01*
X025212Y028580D02*
X017287Y028580D01*
X017351Y028678D02*
X025311Y028678D01*
X025351Y028777D02*
X017351Y028777D01*
X017351Y028875D02*
X025351Y028875D01*
X025351Y028974D02*
X017351Y028974D01*
X017336Y029073D02*
X025365Y029073D01*
X025464Y029171D02*
X017238Y029171D01*
X017139Y029270D02*
X025563Y029270D01*
X026139Y029270D02*
X026563Y029270D01*
X026464Y029171D02*
X026238Y029171D01*
X026336Y029073D02*
X026365Y029073D01*
X026351Y028974D02*
X026351Y028974D01*
X026351Y028875D02*
X026351Y028875D01*
X026351Y028777D02*
X026351Y028777D01*
X026351Y028678D02*
X026351Y028678D01*
X026287Y028580D02*
X026415Y028580D01*
X026513Y028481D02*
X026188Y028481D01*
X026090Y028383D02*
X026612Y028383D01*
X028101Y029467D02*
X003461Y029467D01*
X003461Y029565D02*
X028101Y029565D01*
X028101Y029664D02*
X003461Y029664D01*
X003461Y029762D02*
X028101Y029762D01*
X028101Y029861D02*
X003461Y029861D01*
X003461Y029959D02*
X028101Y029959D01*
X028101Y030058D02*
X003461Y030058D01*
X003461Y030156D02*
X028101Y030156D01*
X028101Y030255D02*
X003461Y030255D01*
X003461Y030354D02*
X028101Y030354D01*
X028101Y030452D02*
X003461Y030452D01*
X003461Y030551D02*
X028101Y030551D01*
X028101Y030649D02*
X003461Y030649D01*
X003461Y030748D02*
X028101Y030748D01*
X028101Y030846D02*
X003461Y030846D01*
X003461Y030945D02*
X028101Y030945D01*
X028101Y031043D02*
X003461Y031043D01*
X003461Y031142D02*
X028101Y031142D01*
X028101Y031240D02*
X003461Y031240D01*
X003461Y031339D02*
X028101Y031339D01*
X028101Y031438D02*
X003461Y031438D01*
X003461Y031536D02*
X028101Y031536D01*
X028101Y031635D02*
X003461Y031635D01*
X003461Y031733D02*
X028101Y031733D01*
X028101Y031832D02*
X003461Y031832D01*
X003461Y031930D02*
X028101Y031930D01*
X028101Y032029D02*
X003461Y032029D01*
X003461Y032127D02*
X028101Y032127D01*
X028101Y032226D02*
X003461Y032226D01*
X003461Y032324D02*
X028101Y032324D01*
X028101Y032423D02*
X014891Y032423D01*
X014921Y032454D02*
X015421Y032954D01*
X015461Y033049D01*
X015461Y033152D01*
X015461Y033441D01*
X015572Y033553D01*
X015639Y033714D01*
X015639Y033888D01*
X015572Y034049D01*
X015449Y034172D01*
X015288Y034239D01*
X015114Y034239D01*
X014953Y034172D01*
X014829Y034049D01*
X014763Y033888D01*
X014763Y033714D01*
X014829Y033553D01*
X014941Y033441D01*
X014941Y033208D01*
X014593Y032861D01*
X005908Y032861D01*
X004061Y034708D01*
X004061Y040793D01*
X004308Y041041D01*
X007417Y041041D01*
X006615Y040239D01*
X006514Y040239D01*
X006353Y040172D01*
X006229Y040049D01*
X006163Y039888D01*
X006163Y039714D01*
X006229Y039553D01*
X006353Y039429D01*
X006514Y039363D01*
X006688Y039363D01*
X006849Y039429D01*
X006972Y039553D01*
X007039Y039714D01*
X007039Y039815D01*
X007725Y040501D01*
X007981Y040501D01*
X008053Y040429D01*
X008214Y040363D01*
X008388Y040363D01*
X008549Y040429D01*
X008672Y040553D01*
X008739Y040714D01*
X008739Y040888D01*
X008676Y041041D01*
X011941Y041041D01*
X012053Y040929D01*
X012214Y040863D01*
X012388Y040863D01*
X012549Y040929D01*
X012672Y041053D01*
X012739Y041214D01*
X012739Y041388D01*
X012672Y041549D01*
X012549Y041672D01*
X012388Y041739D01*
X012214Y041739D01*
X012053Y041672D01*
X011941Y041561D01*
X004149Y041561D01*
X004054Y041521D01*
X003980Y041448D01*
X003580Y041048D01*
X003541Y040952D01*
X003541Y040849D01*
X003541Y034549D01*
X003580Y034454D01*
X003654Y034380D01*
X005654Y032380D01*
X005749Y032341D01*
X005852Y032341D01*
X014752Y032341D01*
X014848Y032380D01*
X014921Y032454D01*
X014989Y032522D02*
X028101Y032522D01*
X028101Y032620D02*
X015088Y032620D01*
X015186Y032719D02*
X028101Y032719D01*
X028101Y032817D02*
X015285Y032817D01*
X015383Y032916D02*
X028101Y032916D01*
X028101Y033014D02*
X015446Y033014D01*
X015461Y033113D02*
X028101Y033113D01*
X028101Y033211D02*
X015461Y033211D01*
X015461Y033310D02*
X028101Y033310D01*
X028101Y033408D02*
X015461Y033408D01*
X015527Y033507D02*
X028101Y033507D01*
X028101Y033606D02*
X015594Y033606D01*
X015635Y033704D02*
X028101Y033704D01*
X028101Y033803D02*
X015639Y033803D01*
X015633Y033901D02*
X028101Y033901D01*
X028101Y034000D02*
X015593Y034000D01*
X015523Y034098D02*
X028101Y034098D01*
X028101Y034197D02*
X015390Y034197D01*
X015012Y034197D02*
X005472Y034197D01*
X005374Y034295D02*
X028101Y034295D01*
X028101Y034394D02*
X005275Y034394D01*
X005177Y034492D02*
X028101Y034492D01*
X028101Y034591D02*
X005078Y034591D01*
X005061Y034608D02*
X005061Y036693D01*
X006108Y037741D01*
X009441Y037741D01*
X009553Y037629D01*
X009714Y037563D01*
X009888Y037563D01*
X010049Y037629D01*
X010172Y037753D01*
X010239Y037914D01*
X010239Y038088D01*
X010172Y038249D01*
X010049Y038372D01*
X009888Y038439D01*
X009714Y038439D01*
X009553Y038372D01*
X009441Y038261D01*
X005949Y038261D01*
X005854Y038221D01*
X005780Y038148D01*
X004580Y036948D01*
X004541Y036852D01*
X004541Y036749D01*
X004541Y034449D01*
X004580Y034354D01*
X004654Y034280D01*
X005854Y033080D01*
X005949Y033041D01*
X006052Y033041D01*
X011841Y033041D01*
X011953Y032929D01*
X012114Y032863D01*
X012288Y032863D01*
X012449Y032929D01*
X012572Y033053D01*
X012639Y033214D01*
X012639Y033388D01*
X012572Y033549D01*
X012449Y033672D01*
X012288Y033739D01*
X012114Y033739D01*
X011953Y033672D01*
X011841Y033561D01*
X006108Y033561D01*
X005061Y034608D01*
X005061Y034689D02*
X028101Y034689D01*
X028101Y034788D02*
X005061Y034788D01*
X005061Y034887D02*
X028101Y034887D01*
X028101Y034985D02*
X005061Y034985D01*
X005061Y035084D02*
X028101Y035084D01*
X028101Y035182D02*
X005061Y035182D01*
X005061Y035281D02*
X028101Y035281D01*
X028101Y035379D02*
X025245Y035379D01*
X025346Y035478D02*
X028101Y035478D01*
X028101Y035576D02*
X025444Y035576D01*
X025543Y035675D02*
X028101Y035675D01*
X028101Y035773D02*
X025641Y035773D01*
X026506Y036956D02*
X017196Y036956D01*
X017196Y037055D02*
X026506Y037055D01*
X026506Y037153D02*
X017196Y037153D01*
X017196Y037252D02*
X026506Y037252D01*
X026506Y037350D02*
X017196Y037350D01*
X017196Y037449D02*
X026506Y037449D01*
X026506Y037547D02*
X017196Y037547D01*
X017196Y037646D02*
X026506Y037646D01*
X026506Y037744D02*
X017196Y037744D01*
X017196Y037843D02*
X026506Y037843D01*
X026506Y037941D02*
X017196Y037941D01*
X017196Y038040D02*
X026506Y038040D01*
X026506Y038139D02*
X017196Y038139D01*
X017196Y038237D02*
X026506Y038237D01*
X026506Y038336D02*
X017196Y038336D01*
X017196Y038434D02*
X026506Y038434D01*
X026506Y038533D02*
X017196Y038533D01*
X017196Y038631D02*
X026506Y038631D01*
X026506Y038730D02*
X017196Y038730D01*
X017196Y038828D02*
X026506Y038828D01*
X026506Y038927D02*
X017196Y038927D01*
X017196Y039025D02*
X026506Y039025D01*
X026506Y039124D02*
X017196Y039124D01*
X017196Y039222D02*
X026506Y039222D01*
X026506Y039321D02*
X017196Y039321D01*
X017196Y039420D02*
X026506Y039420D01*
X026506Y039518D02*
X017196Y039518D01*
X017196Y039617D02*
X026506Y039617D01*
X026506Y039715D02*
X017196Y039715D01*
X017196Y039814D02*
X026506Y039814D01*
X026506Y039912D02*
X017196Y039912D01*
X017196Y040011D02*
X026506Y040011D01*
X026506Y040109D02*
X017196Y040109D01*
X017196Y040208D02*
X026506Y040208D01*
X026506Y040306D02*
X017196Y040306D01*
X017196Y040405D02*
X026506Y040405D01*
X026506Y040504D02*
X017196Y040504D01*
X017196Y040602D02*
X026506Y040602D01*
X026506Y040701D02*
X017196Y040701D01*
X017196Y040799D02*
X026506Y040799D01*
X026506Y040898D02*
X017196Y040898D01*
X017196Y040996D02*
X026506Y040996D01*
X026506Y041095D02*
X017196Y041095D01*
X017196Y041193D02*
X026506Y041193D01*
X026506Y041292D02*
X017196Y041292D01*
X017196Y041390D02*
X026506Y041390D01*
X026506Y041489D02*
X017196Y041489D01*
X017196Y041588D02*
X026506Y041588D01*
X026506Y041686D02*
X017196Y041686D01*
X017196Y041785D02*
X026506Y041785D01*
X026506Y041883D02*
X017196Y041883D01*
X017196Y041982D02*
X026506Y041982D01*
X026506Y042080D02*
X017196Y042080D01*
X017196Y042179D02*
X026506Y042179D01*
X026506Y042277D02*
X017196Y042277D01*
X017196Y042376D02*
X026506Y042376D01*
X026506Y042474D02*
X017196Y042474D01*
X017196Y042573D02*
X026506Y042573D01*
X026506Y042671D02*
X017196Y042671D01*
X017196Y042770D02*
X026506Y042770D01*
X026506Y042869D02*
X017196Y042869D01*
X017196Y042967D02*
X026506Y042967D01*
X026506Y043066D02*
X017196Y043066D01*
X017196Y043164D02*
X026506Y043164D01*
X026506Y043263D02*
X017196Y043263D01*
X017196Y043361D02*
X025633Y043361D01*
X025535Y043460D02*
X017196Y043460D01*
X017265Y043558D02*
X025436Y043558D01*
X025351Y043657D02*
X017351Y043657D01*
X017351Y043755D02*
X025351Y043755D01*
X025351Y043854D02*
X017351Y043854D01*
X017351Y043953D02*
X025351Y043953D01*
X025283Y044051D02*
X017351Y044051D01*
X017259Y044150D02*
X025184Y044150D01*
X025086Y044248D02*
X017160Y044248D01*
X017062Y044347D02*
X024987Y044347D01*
X025328Y044741D02*
X037441Y044741D01*
X037441Y044839D02*
X025230Y044839D01*
X025107Y044938D02*
X037441Y044938D01*
X037441Y044642D02*
X025427Y044642D01*
X025525Y044544D02*
X037441Y044544D01*
X037441Y044445D02*
X025624Y044445D01*
X026062Y044347D02*
X026640Y044347D01*
X026541Y044248D02*
X026160Y044248D01*
X026259Y044150D02*
X026443Y044150D01*
X026351Y044051D02*
X026351Y044051D01*
X026351Y043953D02*
X026351Y043953D01*
X026351Y043854D02*
X026351Y043854D01*
X026351Y043755D02*
X026351Y043755D01*
X026351Y043657D02*
X026351Y043657D01*
X026436Y043558D02*
X026265Y043558D01*
X026167Y043460D02*
X026506Y043460D01*
X026506Y043361D02*
X026068Y043361D01*
X027062Y044347D02*
X037441Y044347D01*
X037441Y044248D02*
X027160Y044248D01*
X027259Y044150D02*
X037382Y044150D01*
X037283Y044051D02*
X027351Y044051D01*
X027351Y043953D02*
X037185Y043953D01*
X037965Y047106D02*
X038436Y047106D01*
X038313Y047204D02*
X038088Y047204D01*
X038170Y047303D02*
X038231Y047303D01*
X038965Y047106D02*
X039436Y047106D01*
X039313Y047204D02*
X039088Y047204D01*
X039170Y047303D02*
X039231Y047303D01*
X039965Y047106D02*
X040436Y047106D01*
X040313Y047204D02*
X040088Y047204D01*
X040170Y047303D02*
X040231Y047303D01*
X040226Y048486D02*
X040176Y048486D01*
X040101Y048584D02*
X040300Y048584D01*
X040405Y048683D02*
X039997Y048683D01*
X039405Y048683D02*
X038997Y048683D01*
X039101Y048584D02*
X039300Y048584D01*
X039226Y048486D02*
X039176Y048486D01*
X038405Y048683D02*
X037997Y048683D01*
X038101Y048584D02*
X038300Y048584D01*
X038226Y048486D02*
X038176Y048486D01*
X037405Y048683D02*
X036997Y048683D01*
X037101Y048584D02*
X037300Y048584D01*
X037226Y048486D02*
X037176Y048486D01*
X036405Y048683D02*
X035997Y048683D01*
X036101Y048584D02*
X036300Y048584D01*
X036226Y048486D02*
X036176Y048486D01*
X035405Y048683D02*
X034997Y048683D01*
X035101Y048584D02*
X035300Y048584D01*
X035226Y048486D02*
X035176Y048486D01*
X040997Y048683D02*
X041613Y048683D01*
X041401Y048584D02*
X041101Y048584D01*
X041176Y048486D02*
X041312Y048486D01*
X041261Y048387D02*
X041216Y048387D01*
X042000Y048584D02*
X049101Y048584D01*
X049101Y048486D02*
X042089Y048486D01*
X042141Y048387D02*
X047226Y048387D01*
X047058Y048288D02*
X042166Y048288D01*
X042171Y048190D02*
X046960Y048190D01*
X046862Y048091D02*
X042171Y048091D01*
X042171Y047993D02*
X046822Y047993D01*
X047976Y048387D02*
X049101Y048387D01*
X049101Y048288D02*
X048143Y048288D01*
X048242Y048190D02*
X049101Y048190D01*
X049101Y048091D02*
X048339Y048091D01*
X048380Y047993D02*
X049101Y047993D01*
X049101Y047894D02*
X048421Y047894D01*
X048462Y047796D02*
X049101Y047796D01*
X049101Y047697D02*
X048471Y047697D01*
X048471Y047599D02*
X049101Y047599D01*
X049101Y047500D02*
X048471Y047500D01*
X048460Y047402D02*
X049101Y047402D01*
X049101Y047303D02*
X048419Y047303D01*
X048378Y047204D02*
X049101Y047204D01*
X049101Y047106D02*
X048336Y047106D01*
X048238Y047007D02*
X049101Y047007D01*
X049101Y046909D02*
X048139Y046909D01*
X047966Y046810D02*
X049101Y046810D01*
X049101Y048880D02*
X018527Y048880D01*
X018363Y048978D02*
X049101Y048978D01*
X049101Y049077D02*
X012308Y049077D01*
X007108Y047007D02*
X003338Y047007D01*
X003379Y047106D02*
X007008Y047106D01*
X006909Y047204D02*
X003420Y047204D01*
X003461Y047303D02*
X006811Y047303D01*
X006712Y047402D02*
X003471Y047402D01*
X003471Y047500D02*
X006614Y047500D01*
X006570Y047599D02*
X003471Y047599D01*
X003461Y047697D02*
X006521Y047697D01*
X006434Y047796D02*
X003420Y047796D01*
X003379Y047894D02*
X006394Y047894D01*
X006361Y047993D02*
X003339Y047993D01*
X003241Y048091D02*
X006361Y048091D01*
X006361Y048190D02*
X003142Y048190D01*
X002973Y048288D02*
X006361Y048288D01*
X003308Y045037D02*
X003304Y045037D01*
X002561Y043558D02*
X014343Y043558D01*
X014341Y043460D02*
X002561Y043460D01*
X002561Y043361D02*
X014341Y043361D01*
X014341Y043263D02*
X002561Y043263D01*
X002561Y043164D02*
X011045Y043164D01*
X010946Y043066D02*
X002561Y043066D01*
X002561Y042967D02*
X003199Y042967D01*
X003101Y042869D02*
X002561Y042869D01*
X002561Y042770D02*
X003002Y042770D01*
X002904Y042671D02*
X002561Y042671D01*
X002561Y042573D02*
X002805Y042573D01*
X002707Y042474D02*
X002561Y042474D01*
X002561Y042376D02*
X002608Y042376D01*
X003461Y041489D02*
X004021Y041489D01*
X003923Y041390D02*
X003461Y041390D01*
X003461Y041292D02*
X003824Y041292D01*
X003726Y041193D02*
X003461Y041193D01*
X003461Y041095D02*
X003627Y041095D01*
X003559Y040996D02*
X003461Y040996D01*
X003461Y040898D02*
X003541Y040898D01*
X003541Y040799D02*
X003461Y040799D01*
X003461Y040701D02*
X003541Y040701D01*
X003541Y040602D02*
X003461Y040602D01*
X003461Y040504D02*
X003541Y040504D01*
X003541Y040405D02*
X003461Y040405D01*
X003461Y040306D02*
X003541Y040306D01*
X003541Y040208D02*
X003461Y040208D01*
X003461Y040109D02*
X003541Y040109D01*
X003541Y040011D02*
X003461Y040011D01*
X003461Y039912D02*
X003541Y039912D01*
X003541Y039814D02*
X003461Y039814D01*
X003461Y039715D02*
X003541Y039715D01*
X003541Y039617D02*
X003461Y039617D01*
X003461Y039518D02*
X003541Y039518D01*
X003541Y039420D02*
X003461Y039420D01*
X003461Y039321D02*
X003541Y039321D01*
X003541Y039222D02*
X003461Y039222D01*
X003461Y039124D02*
X003541Y039124D01*
X003541Y039025D02*
X003461Y039025D01*
X003461Y038927D02*
X003541Y038927D01*
X003541Y038828D02*
X003461Y038828D01*
X003461Y038730D02*
X003541Y038730D01*
X003541Y038631D02*
X003461Y038631D01*
X003461Y038533D02*
X003541Y038533D01*
X003541Y038434D02*
X003461Y038434D01*
X003461Y038336D02*
X003541Y038336D01*
X003541Y038237D02*
X003461Y038237D01*
X003461Y038139D02*
X003541Y038139D01*
X003541Y038040D02*
X003461Y038040D01*
X003461Y037941D02*
X003541Y037941D01*
X003541Y037843D02*
X003461Y037843D01*
X003461Y037744D02*
X003541Y037744D01*
X003541Y037646D02*
X003461Y037646D01*
X003461Y037547D02*
X003541Y037547D01*
X003541Y037449D02*
X003461Y037449D01*
X003461Y037350D02*
X003541Y037350D01*
X003541Y037252D02*
X003461Y037252D01*
X003461Y037153D02*
X003541Y037153D01*
X003541Y037055D02*
X003461Y037055D01*
X003461Y036956D02*
X003541Y036956D01*
X003541Y036857D02*
X003461Y036857D01*
X003461Y036759D02*
X003541Y036759D01*
X003541Y036660D02*
X003461Y036660D01*
X003461Y036562D02*
X003541Y036562D01*
X003541Y036463D02*
X003461Y036463D01*
X003461Y036365D02*
X003541Y036365D01*
X003541Y036266D02*
X003461Y036266D01*
X003461Y036168D02*
X003541Y036168D01*
X003541Y036069D02*
X003461Y036069D01*
X003461Y035971D02*
X003541Y035971D01*
X003541Y035872D02*
X003461Y035872D01*
X003461Y035773D02*
X003541Y035773D01*
X003541Y035675D02*
X003461Y035675D01*
X003461Y035576D02*
X003541Y035576D01*
X003541Y035478D02*
X003461Y035478D01*
X003461Y035379D02*
X003541Y035379D01*
X003541Y035281D02*
X003461Y035281D01*
X003461Y035182D02*
X003541Y035182D01*
X003541Y035084D02*
X003461Y035084D01*
X003461Y034985D02*
X003541Y034985D01*
X003541Y034887D02*
X003461Y034887D01*
X003461Y034788D02*
X003541Y034788D01*
X003541Y034689D02*
X003461Y034689D01*
X003461Y034591D02*
X003541Y034591D01*
X003564Y034492D02*
X003461Y034492D01*
X003461Y034394D02*
X003640Y034394D01*
X003739Y034295D02*
X003461Y034295D01*
X003461Y034197D02*
X003837Y034197D01*
X003936Y034098D02*
X003461Y034098D01*
X003461Y034000D02*
X004034Y034000D01*
X004133Y033901D02*
X003461Y033901D01*
X003461Y033803D02*
X004231Y033803D01*
X004330Y033704D02*
X003461Y033704D01*
X003461Y033606D02*
X004428Y033606D01*
X004527Y033507D02*
X003461Y033507D01*
X003461Y033408D02*
X004625Y033408D01*
X004724Y033310D02*
X003461Y033310D01*
X003461Y033211D02*
X004823Y033211D01*
X004921Y033113D02*
X003461Y033113D01*
X003461Y033014D02*
X005020Y033014D01*
X005118Y032916D02*
X003461Y032916D01*
X003461Y032817D02*
X005217Y032817D01*
X005315Y032719D02*
X003461Y032719D01*
X003461Y032620D02*
X005414Y032620D01*
X005512Y032522D02*
X003461Y032522D01*
X003461Y032423D02*
X005611Y032423D01*
X005854Y032916D02*
X011986Y032916D01*
X011868Y033014D02*
X005755Y033014D01*
X005821Y033113D02*
X005656Y033113D01*
X005723Y033211D02*
X005558Y033211D01*
X005624Y033310D02*
X005459Y033310D01*
X005525Y033408D02*
X005361Y033408D01*
X005427Y033507D02*
X005262Y033507D01*
X005328Y033606D02*
X005164Y033606D01*
X005230Y033704D02*
X005065Y033704D01*
X005131Y033803D02*
X004967Y033803D01*
X005033Y033901D02*
X004868Y033901D01*
X004934Y034000D02*
X004770Y034000D01*
X004836Y034098D02*
X004671Y034098D01*
X004737Y034197D02*
X004572Y034197D01*
X004639Y034295D02*
X004474Y034295D01*
X004564Y034394D02*
X004375Y034394D01*
X004277Y034492D02*
X004541Y034492D01*
X004541Y034591D02*
X004178Y034591D01*
X004080Y034689D02*
X004541Y034689D01*
X004541Y034788D02*
X004061Y034788D01*
X004061Y034887D02*
X004541Y034887D01*
X004541Y034985D02*
X004061Y034985D01*
X004061Y035084D02*
X004541Y035084D01*
X004541Y035182D02*
X004061Y035182D01*
X004061Y035281D02*
X004541Y035281D01*
X004541Y035379D02*
X004061Y035379D01*
X004061Y035478D02*
X004541Y035478D01*
X004541Y035576D02*
X004061Y035576D01*
X004061Y035675D02*
X004541Y035675D01*
X004541Y035773D02*
X004061Y035773D01*
X004061Y035872D02*
X004541Y035872D01*
X004541Y035971D02*
X004061Y035971D01*
X004061Y036069D02*
X004541Y036069D01*
X004541Y036168D02*
X004061Y036168D01*
X004061Y036266D02*
X004541Y036266D01*
X004541Y036365D02*
X004061Y036365D01*
X004061Y036463D02*
X004541Y036463D01*
X004541Y036562D02*
X004061Y036562D01*
X004061Y036660D02*
X004541Y036660D01*
X004541Y036759D02*
X004061Y036759D01*
X004061Y036857D02*
X004543Y036857D01*
X004588Y036956D02*
X004061Y036956D01*
X004061Y037055D02*
X004687Y037055D01*
X004785Y037153D02*
X004061Y037153D01*
X004061Y037252D02*
X004884Y037252D01*
X004982Y037350D02*
X004061Y037350D01*
X004061Y037449D02*
X005081Y037449D01*
X005180Y037547D02*
X004061Y037547D01*
X004061Y037646D02*
X005278Y037646D01*
X005377Y037744D02*
X004061Y037744D01*
X004061Y037843D02*
X005475Y037843D01*
X005574Y037941D02*
X004061Y037941D01*
X004061Y038040D02*
X005672Y038040D01*
X005771Y038139D02*
X004061Y038139D01*
X004061Y038237D02*
X005892Y038237D01*
X006396Y038533D02*
X004061Y038533D01*
X004061Y038631D02*
X006363Y038631D01*
X006363Y038730D02*
X004061Y038730D01*
X004061Y038828D02*
X006379Y038828D01*
X006420Y038927D02*
X004061Y038927D01*
X004061Y039025D02*
X006506Y039025D01*
X006678Y039124D02*
X004061Y039124D01*
X004061Y039222D02*
X013355Y039222D01*
X013256Y039124D02*
X008924Y039124D01*
X009096Y039025D02*
X013158Y039025D01*
X013453Y039321D02*
X004061Y039321D01*
X004061Y039420D02*
X006376Y039420D01*
X006264Y039518D02*
X004061Y039518D01*
X004061Y039617D02*
X006203Y039617D01*
X006163Y039715D02*
X004061Y039715D01*
X004061Y039814D02*
X006163Y039814D01*
X006173Y039912D02*
X004061Y039912D01*
X004061Y040011D02*
X006214Y040011D01*
X006290Y040109D02*
X004061Y040109D01*
X004061Y040208D02*
X006439Y040208D01*
X006682Y040306D02*
X004061Y040306D01*
X004061Y040405D02*
X006781Y040405D01*
X006879Y040504D02*
X004061Y040504D01*
X004061Y040602D02*
X006978Y040602D01*
X007076Y040701D02*
X004061Y040701D01*
X004067Y040799D02*
X007175Y040799D01*
X007274Y040898D02*
X004165Y040898D01*
X004264Y040996D02*
X007372Y040996D01*
X007629Y040405D02*
X008111Y040405D01*
X008490Y040405D02*
X014341Y040405D01*
X014341Y040504D02*
X008623Y040504D01*
X008693Y040602D02*
X014341Y040602D01*
X014341Y040701D02*
X008733Y040701D01*
X008739Y040799D02*
X014341Y040799D01*
X014341Y040898D02*
X012472Y040898D01*
X012616Y040996D02*
X014341Y040996D01*
X014341Y041095D02*
X012690Y041095D01*
X012730Y041193D02*
X014341Y041193D01*
X014341Y041292D02*
X012739Y041292D01*
X012738Y041390D02*
X014341Y041390D01*
X014341Y041489D02*
X012697Y041489D01*
X012634Y041588D02*
X014341Y041588D01*
X014341Y041686D02*
X012515Y041686D01*
X012086Y041686D02*
X011844Y041686D01*
X011968Y041588D02*
X003555Y041588D01*
X003654Y041686D02*
X011557Y041686D01*
X012004Y041785D02*
X014341Y041785D01*
X014341Y041883D02*
X012085Y041883D01*
X012126Y041982D02*
X014341Y041982D01*
X014341Y042080D02*
X012139Y042080D01*
X012139Y042179D02*
X014341Y042179D01*
X014341Y042277D02*
X012102Y042277D01*
X012045Y042376D02*
X014341Y042376D01*
X014341Y042474D02*
X011944Y042474D01*
X011681Y042573D02*
X014341Y042573D01*
X014341Y042671D02*
X011721Y042671D01*
X011739Y042770D02*
X014341Y042770D01*
X014341Y042869D02*
X011739Y042869D01*
X011706Y042967D02*
X014341Y042967D01*
X014341Y043066D02*
X011655Y043066D01*
X011557Y043164D02*
X014341Y043164D01*
X014861Y043361D02*
X015633Y043361D01*
X015535Y043460D02*
X014927Y043460D01*
X015026Y043558D02*
X015436Y043558D01*
X015351Y043657D02*
X015125Y043657D01*
X015223Y043755D02*
X015351Y043755D01*
X015351Y043854D02*
X015322Y043854D01*
X015672Y042080D02*
X014861Y042080D01*
X014861Y041982D02*
X015562Y041982D01*
X015502Y041883D02*
X014861Y041883D01*
X014861Y041785D02*
X015463Y041785D01*
X015463Y041686D02*
X014861Y041686D01*
X014861Y041588D02*
X015473Y041588D01*
X015514Y041489D02*
X014861Y041489D01*
X014861Y041390D02*
X015556Y041390D01*
X015556Y041292D02*
X014861Y041292D01*
X014861Y041193D02*
X015556Y041193D01*
X015556Y041095D02*
X014861Y041095D01*
X014861Y040996D02*
X015556Y040996D01*
X015556Y040898D02*
X014861Y040898D01*
X014861Y040799D02*
X015556Y040799D01*
X015556Y040701D02*
X014861Y040701D01*
X014861Y040602D02*
X015556Y040602D01*
X015556Y040504D02*
X014861Y040504D01*
X014861Y040405D02*
X015556Y040405D01*
X015556Y040306D02*
X014861Y040306D01*
X014861Y040208D02*
X015556Y040208D01*
X015513Y040109D02*
X014861Y040109D01*
X014845Y040011D02*
X015472Y040011D01*
X015463Y039912D02*
X014780Y039912D01*
X014681Y039814D02*
X015426Y039814D01*
X015327Y039715D02*
X014583Y039715D01*
X014484Y039617D02*
X015229Y039617D01*
X015130Y039518D02*
X014386Y039518D01*
X014287Y039420D02*
X015032Y039420D01*
X014933Y039321D02*
X014189Y039321D01*
X014090Y039222D02*
X014835Y039222D01*
X014736Y039124D02*
X013992Y039124D01*
X013893Y039025D02*
X014638Y039025D01*
X014539Y038927D02*
X013795Y038927D01*
X013696Y038828D02*
X014440Y038828D01*
X014342Y038730D02*
X013597Y038730D01*
X013499Y038631D02*
X014243Y038631D01*
X014145Y038533D02*
X013400Y038533D01*
X013751Y038139D02*
X010218Y038139D01*
X010239Y038040D02*
X013652Y038040D01*
X013554Y037941D02*
X010239Y037941D01*
X010210Y037843D02*
X013455Y037843D01*
X013356Y037744D02*
X010164Y037744D01*
X010065Y037646D02*
X013258Y037646D01*
X013159Y037547D02*
X005915Y037547D01*
X005816Y037449D02*
X013061Y037449D01*
X012962Y037350D02*
X005718Y037350D01*
X005619Y037252D02*
X012864Y037252D01*
X012765Y037153D02*
X005521Y037153D01*
X005422Y037055D02*
X012667Y037055D01*
X012568Y036956D02*
X005324Y036956D01*
X005225Y036857D02*
X012470Y036857D01*
X012371Y036759D02*
X007150Y036759D01*
X007248Y036660D02*
X012141Y036660D01*
X012042Y036562D02*
X007347Y036562D01*
X007351Y036463D02*
X011994Y036463D01*
X011963Y036365D02*
X007351Y036365D01*
X007351Y036266D02*
X011963Y036266D01*
X011982Y036168D02*
X007351Y036168D01*
X007276Y036069D02*
X012023Y036069D01*
X012111Y035971D02*
X007178Y035971D01*
X007079Y035872D02*
X012291Y035872D01*
X012510Y035872D02*
X015004Y035872D01*
X015103Y035971D02*
X012690Y035971D01*
X012779Y036069D02*
X015201Y036069D01*
X014879Y034098D02*
X005571Y034098D01*
X005670Y034000D02*
X014809Y034000D01*
X014768Y033901D02*
X005768Y033901D01*
X005867Y033803D02*
X014763Y033803D01*
X014767Y033704D02*
X012372Y033704D01*
X012516Y033606D02*
X014807Y033606D01*
X014875Y033507D02*
X012590Y033507D01*
X012630Y033408D02*
X014941Y033408D01*
X014941Y033310D02*
X012639Y033310D01*
X012638Y033211D02*
X014941Y033211D01*
X014845Y033113D02*
X012597Y033113D01*
X012534Y033014D02*
X014747Y033014D01*
X014648Y032916D02*
X012416Y032916D01*
X011886Y033606D02*
X006064Y033606D01*
X005965Y033704D02*
X012030Y033704D01*
X009536Y037646D02*
X006013Y037646D01*
X006150Y036759D02*
X006552Y036759D01*
X006453Y036660D02*
X006248Y036660D01*
X006347Y036562D02*
X006355Y036562D01*
X006351Y036463D02*
X006351Y036463D01*
X006351Y036365D02*
X006351Y036365D01*
X006351Y036266D02*
X006351Y036266D01*
X006060Y035773D02*
X005061Y035773D01*
X005061Y035675D02*
X006159Y035675D01*
X006257Y035576D02*
X005061Y035576D01*
X005061Y035478D02*
X006356Y035478D01*
X006456Y035379D02*
X005061Y035379D01*
X005061Y035872D02*
X005622Y035872D01*
X005524Y035971D02*
X005061Y035971D01*
X005061Y036069D02*
X005425Y036069D01*
X005351Y036168D02*
X005061Y036168D01*
X005061Y036266D02*
X005351Y036266D01*
X005351Y036365D02*
X005061Y036365D01*
X005061Y036463D02*
X005351Y036463D01*
X005355Y036562D02*
X005061Y036562D01*
X005061Y036660D02*
X005453Y036660D01*
X005552Y036759D02*
X005127Y036759D01*
X004061Y038336D02*
X006546Y038336D01*
X006448Y038434D02*
X004061Y038434D01*
X006801Y038701D02*
X008801Y038701D01*
X008506Y039025D02*
X007096Y039025D01*
X006924Y039124D02*
X008678Y039124D01*
X008546Y038336D02*
X007055Y038336D01*
X006825Y039420D02*
X013552Y039420D01*
X013650Y039518D02*
X006938Y039518D01*
X006999Y039617D02*
X013749Y039617D01*
X013848Y039715D02*
X007039Y039715D01*
X007039Y039814D02*
X013946Y039814D01*
X014045Y039912D02*
X007137Y039912D01*
X007235Y040011D02*
X014143Y040011D01*
X014242Y040109D02*
X007334Y040109D01*
X007432Y040208D02*
X014340Y040208D01*
X014341Y040306D02*
X007531Y040306D01*
X008735Y040898D02*
X012129Y040898D01*
X011986Y040996D02*
X008694Y040996D01*
X009154Y038434D02*
X009702Y038434D01*
X009899Y038434D02*
X014046Y038434D01*
X013948Y038336D02*
X010086Y038336D01*
X010177Y038237D02*
X013849Y038237D01*
X009516Y038336D02*
X009055Y038336D01*
X006563Y029270D02*
X006139Y029270D01*
X006238Y029171D02*
X006464Y029171D01*
X006365Y029073D02*
X006336Y029073D01*
X006351Y028974D02*
X006351Y028974D01*
X006351Y028875D02*
X006351Y028875D01*
X006351Y028777D02*
X006351Y028777D01*
X007298Y021091D02*
X015223Y021091D01*
X015124Y020992D02*
X007199Y020992D01*
X007101Y020893D02*
X015026Y020893D01*
X014927Y020795D02*
X006774Y020795D01*
X006433Y020401D02*
X003569Y020401D01*
X003667Y020302D02*
X006532Y020302D01*
X006335Y020499D02*
X003470Y020499D01*
X003371Y020598D02*
X006236Y020598D01*
X006138Y020696D02*
X003273Y020696D01*
X002932Y020302D02*
X002561Y020302D01*
X002561Y020204D02*
X003030Y020204D01*
X003129Y020105D02*
X002561Y020105D01*
X002561Y020007D02*
X003227Y020007D01*
X003326Y019908D02*
X002561Y019908D01*
X002561Y019809D02*
X003424Y019809D01*
X003523Y019711D02*
X002561Y019711D01*
X002561Y019612D02*
X003621Y019612D01*
X003720Y019514D02*
X002561Y019514D01*
X002561Y019415D02*
X003819Y019415D01*
X003917Y019317D02*
X002561Y019317D01*
X002561Y019218D02*
X004016Y019218D01*
X004114Y019120D02*
X002561Y019120D01*
X002561Y019021D02*
X004213Y019021D01*
X004311Y018923D02*
X002561Y018923D01*
X002561Y018824D02*
X004410Y018824D01*
X004508Y018725D02*
X002561Y018725D01*
X002561Y018627D02*
X004607Y018627D01*
X004652Y019317D02*
X028101Y019317D01*
X028101Y019415D02*
X004554Y019415D01*
X004455Y019514D02*
X028101Y019514D01*
X028101Y019612D02*
X004357Y019612D01*
X004258Y019711D02*
X028101Y019711D01*
X028101Y019809D02*
X004160Y019809D01*
X004061Y019908D02*
X028101Y019908D01*
X028101Y020007D02*
X003963Y020007D01*
X003864Y020105D02*
X028101Y020105D01*
X028101Y020204D02*
X003766Y020204D01*
X002833Y020401D02*
X002561Y020401D01*
X002561Y020499D02*
X002735Y020499D01*
X002636Y020598D02*
X002561Y020598D01*
X006118Y014291D02*
X006584Y014291D01*
X006485Y014192D02*
X006216Y014192D01*
X006315Y014094D02*
X006387Y014094D01*
X006351Y013995D02*
X006351Y013995D01*
X006351Y013897D02*
X006351Y013897D01*
X006351Y013798D02*
X006351Y013798D01*
X006764Y013306D02*
X014938Y013306D01*
X015036Y013404D02*
X007111Y013404D01*
X007210Y013503D02*
X015135Y013503D01*
X015234Y013601D02*
X007308Y013601D01*
X007351Y013700D02*
X015332Y013700D01*
X015351Y013798D02*
X007351Y013798D01*
X007351Y013897D02*
X015351Y013897D01*
X015351Y013995D02*
X007351Y013995D01*
X007315Y014094D02*
X015387Y014094D01*
X015485Y014192D02*
X007216Y014192D01*
X007118Y014291D02*
X015584Y014291D01*
X016118Y014291D02*
X016584Y014291D01*
X016485Y014192D02*
X016216Y014192D01*
X016315Y014094D02*
X016387Y014094D01*
X016351Y013995D02*
X016351Y013995D01*
X016351Y013897D02*
X016351Y013897D01*
X016351Y013798D02*
X016351Y013798D01*
X016028Y013306D02*
X015673Y013306D01*
X015575Y013207D02*
X016127Y013207D01*
X016225Y013109D02*
X015476Y013109D01*
X015378Y013010D02*
X016324Y013010D01*
X016422Y012911D02*
X015279Y012911D01*
X015181Y012813D02*
X016521Y012813D01*
X016764Y013306D02*
X024938Y013306D01*
X025036Y013404D02*
X017111Y013404D01*
X017210Y013503D02*
X025135Y013503D01*
X025234Y013601D02*
X017308Y013601D01*
X017351Y013700D02*
X025332Y013700D01*
X025351Y013798D02*
X017351Y013798D01*
X017351Y013897D02*
X025351Y013897D01*
X025351Y013995D02*
X017351Y013995D01*
X017315Y014094D02*
X025387Y014094D01*
X025485Y014192D02*
X017216Y014192D01*
X017118Y014291D02*
X025584Y014291D01*
X026118Y014291D02*
X026584Y014291D01*
X026485Y014192D02*
X026216Y014192D01*
X026315Y014094D02*
X026387Y014094D01*
X026351Y013995D02*
X026351Y013995D01*
X026351Y013897D02*
X026351Y013897D01*
X026351Y013798D02*
X026351Y013798D01*
X026351Y013700D02*
X026351Y013700D01*
X026308Y013601D02*
X026393Y013601D01*
X026492Y013503D02*
X026210Y013503D01*
X026111Y013404D02*
X026590Y013404D01*
X027111Y013404D02*
X028101Y013404D01*
X028101Y013306D02*
X025673Y013306D01*
X025575Y013207D02*
X028101Y013207D01*
X028101Y013109D02*
X025476Y013109D01*
X025378Y013010D02*
X028101Y013010D01*
X028101Y012911D02*
X025279Y012911D01*
X025181Y012813D02*
X028101Y012813D01*
X028101Y013503D02*
X027210Y013503D01*
X027308Y013601D02*
X028101Y013601D01*
X028101Y013700D02*
X027351Y013700D01*
X027351Y013798D02*
X028101Y013798D01*
X028101Y013897D02*
X027351Y013897D01*
X027351Y013995D02*
X028101Y013995D01*
X028101Y014094D02*
X027315Y014094D01*
X027216Y014192D02*
X028101Y014192D01*
X028101Y014291D02*
X027118Y014291D01*
X028101Y010743D02*
X001101Y010743D01*
X001101Y010645D02*
X028101Y010645D01*
X028101Y010546D02*
X001101Y010546D01*
X001101Y010448D02*
X028101Y010448D01*
X028101Y010349D02*
X001101Y010349D01*
X001101Y010251D02*
X028101Y010251D01*
X028101Y010152D02*
X001101Y010152D01*
X001101Y010054D02*
X028101Y010054D01*
X028101Y009955D02*
X001101Y009955D01*
X001101Y009857D02*
X028101Y009857D01*
X028101Y009758D02*
X001101Y009758D01*
X001101Y009659D02*
X028101Y009659D01*
X028101Y009561D02*
X001101Y009561D01*
X001101Y009462D02*
X028101Y009462D01*
X028101Y009364D02*
X001101Y009364D01*
X001101Y009265D02*
X028101Y009265D01*
X028101Y009167D02*
X001101Y009167D01*
X001101Y009068D02*
X049101Y009068D01*
X049101Y008970D02*
X001101Y008970D01*
X001101Y008871D02*
X049101Y008871D01*
X049101Y008773D02*
X001101Y008773D01*
X001101Y008674D02*
X049101Y008674D01*
X049101Y008576D02*
X001101Y008576D01*
X001101Y008477D02*
X049101Y008477D01*
X049101Y008378D02*
X001101Y008378D01*
X001101Y008280D02*
X049101Y008280D01*
X049101Y008181D02*
X001101Y008181D01*
X001101Y008083D02*
X049101Y008083D01*
X049101Y007984D02*
X001101Y007984D01*
X001101Y007886D02*
X047558Y007886D01*
X047576Y007904D02*
X047464Y007792D01*
X047404Y007646D01*
X047404Y007488D01*
X047464Y007342D01*
X047576Y007230D01*
X047722Y007170D01*
X047880Y007170D01*
X048026Y007230D01*
X048137Y007342D01*
X048198Y007488D01*
X048198Y007646D01*
X048137Y007792D01*
X048026Y007904D01*
X047880Y007964D01*
X047722Y007964D01*
X047576Y007904D01*
X047462Y007787D02*
X001101Y007787D01*
X001101Y007689D02*
X047421Y007689D01*
X047404Y007590D02*
X001101Y007590D01*
X001101Y007492D02*
X047404Y007492D01*
X047443Y007393D02*
X001101Y007393D01*
X001101Y007294D02*
X047512Y007294D01*
X047659Y007196D02*
X001101Y007196D01*
X001101Y007097D02*
X049101Y007097D01*
X049101Y006999D02*
X001101Y006999D01*
X001101Y006900D02*
X049101Y006900D01*
X049101Y006802D02*
X027107Y006802D01*
X027058Y006851D02*
X026644Y006851D01*
X026351Y006558D01*
X026351Y006144D01*
X026644Y005851D01*
X027058Y005851D01*
X027351Y006144D01*
X027351Y006558D01*
X027058Y006851D01*
X027205Y006703D02*
X049101Y006703D01*
X049101Y006605D02*
X036900Y006605D01*
X036883Y006622D02*
X036700Y006698D01*
X036502Y006698D01*
X036319Y006622D01*
X036179Y006483D01*
X036103Y006300D01*
X036103Y006102D01*
X036179Y005919D01*
X036319Y005779D01*
X036502Y005703D01*
X036700Y005703D01*
X036883Y005779D01*
X037022Y005919D01*
X037098Y006102D01*
X037098Y006300D01*
X037022Y006483D01*
X036883Y006622D01*
X036999Y006506D02*
X049101Y006506D01*
X049101Y006408D02*
X037054Y006408D01*
X037094Y006309D02*
X049101Y006309D01*
X049101Y006210D02*
X047931Y006210D01*
X047880Y006232D02*
X047722Y006232D01*
X047576Y006171D01*
X047464Y006060D01*
X047404Y005914D01*
X047404Y005756D01*
X047464Y005610D01*
X047576Y005498D01*
X047722Y005437D01*
X047880Y005437D01*
X048026Y005498D01*
X048137Y005610D01*
X048198Y005756D01*
X048198Y005914D01*
X048137Y006060D01*
X048026Y006171D01*
X047880Y006232D01*
X047670Y006210D02*
X037098Y006210D01*
X037098Y006112D02*
X047516Y006112D01*
X047445Y006013D02*
X037062Y006013D01*
X037018Y005915D02*
X047404Y005915D01*
X047404Y005816D02*
X036920Y005816D01*
X036735Y005718D02*
X047419Y005718D01*
X047460Y005619D02*
X035387Y005619D01*
X035480Y005712D02*
X035502Y005703D01*
X035700Y005703D01*
X035883Y005779D01*
X036022Y005919D01*
X036098Y006102D01*
X036098Y006300D01*
X036022Y006483D01*
X035883Y006622D01*
X035700Y006698D01*
X035502Y006698D01*
X035319Y006622D01*
X035179Y006483D01*
X035103Y006300D01*
X035103Y006102D01*
X035112Y006080D01*
X032193Y003161D01*
X008260Y003161D01*
X008149Y003272D01*
X007988Y003339D01*
X007814Y003339D01*
X007653Y003272D01*
X007529Y003149D01*
X007463Y002988D01*
X007463Y002814D01*
X007529Y002653D01*
X007653Y002529D01*
X007814Y002463D01*
X007988Y002463D01*
X008149Y002529D01*
X008260Y002641D01*
X032249Y002641D01*
X032352Y002641D01*
X032448Y002680D01*
X035480Y005712D01*
X035735Y005718D02*
X036467Y005718D01*
X036282Y005816D02*
X035920Y005816D01*
X036018Y005915D02*
X036183Y005915D01*
X036140Y006013D02*
X036062Y006013D01*
X036098Y006112D02*
X036103Y006112D01*
X036098Y006210D02*
X036103Y006210D01*
X036094Y006309D02*
X036107Y006309D01*
X036148Y006408D02*
X036054Y006408D01*
X035999Y006506D02*
X036203Y006506D01*
X036301Y006605D02*
X035900Y006605D01*
X035301Y006605D02*
X027304Y006605D01*
X027351Y006506D02*
X035203Y006506D01*
X035148Y006408D02*
X027351Y006408D01*
X027351Y006309D02*
X035107Y006309D01*
X035103Y006210D02*
X027351Y006210D01*
X027319Y006112D02*
X035103Y006112D01*
X035046Y006013D02*
X027220Y006013D01*
X027122Y005915D02*
X034947Y005915D01*
X034849Y005816D02*
X025684Y005816D01*
X025718Y005851D02*
X026058Y005851D01*
X026351Y006144D01*
X026351Y006558D01*
X026058Y006851D01*
X025644Y006851D01*
X025351Y006558D01*
X025351Y006218D01*
X024893Y005761D01*
X016808Y005761D01*
X016718Y005851D01*
X017058Y005851D01*
X017351Y006144D01*
X017351Y006558D01*
X017058Y006851D01*
X016644Y006851D01*
X016351Y006558D01*
X016351Y006218D01*
X016351Y006218D01*
X016351Y006558D01*
X016058Y006851D01*
X015644Y006851D01*
X015351Y006558D01*
X015351Y006218D01*
X014893Y005761D01*
X006808Y005761D01*
X006718Y005851D01*
X007058Y005851D01*
X007351Y006144D01*
X007351Y006558D01*
X007058Y006851D01*
X006644Y006851D01*
X006351Y006558D01*
X006351Y006218D01*
X006351Y006218D01*
X006351Y006558D01*
X006058Y006851D01*
X005644Y006851D01*
X005351Y006558D01*
X005351Y006144D01*
X005644Y005851D01*
X005983Y005851D01*
X006480Y005354D01*
X006554Y005280D01*
X006649Y005241D01*
X014949Y005241D01*
X015052Y005241D01*
X015148Y005280D01*
X015718Y005851D01*
X015983Y005851D01*
X016480Y005354D01*
X016554Y005280D01*
X016649Y005241D01*
X024949Y005241D01*
X025052Y005241D01*
X025148Y005280D01*
X025718Y005851D01*
X025585Y005718D02*
X034750Y005718D01*
X034652Y005619D02*
X025487Y005619D01*
X025388Y005521D02*
X034553Y005521D01*
X034454Y005422D02*
X025290Y005422D01*
X025191Y005324D02*
X034356Y005324D01*
X034257Y005225D02*
X001101Y005225D01*
X001101Y005126D02*
X034159Y005126D01*
X034060Y005028D02*
X001101Y005028D01*
X001101Y004929D02*
X023918Y004929D01*
X023993Y004961D02*
X023795Y004879D01*
X023643Y004727D01*
X023561Y004528D01*
X023561Y003673D01*
X023643Y003475D01*
X023795Y003323D01*
X023993Y003241D01*
X024208Y003241D01*
X024407Y003323D01*
X024559Y003475D01*
X024601Y003577D01*
X024643Y003475D01*
X024795Y003323D01*
X024993Y003241D01*
X025208Y003241D01*
X025407Y003323D01*
X025559Y003475D01*
X025641Y003673D01*
X025641Y003681D01*
X025642Y003671D01*
X025665Y003600D01*
X025699Y003534D01*
X025742Y003475D01*
X025795Y003422D01*
X025854Y003379D01*
X025920Y003345D01*
X025991Y003322D01*
X026051Y003313D01*
X026051Y004051D01*
X026151Y004051D01*
X026151Y004151D01*
X026571Y004151D01*
X026571Y004458D01*
X026559Y004531D01*
X026536Y004601D01*
X026503Y004667D01*
X026459Y004727D01*
X026407Y004779D01*
X026347Y004823D01*
X026281Y004856D01*
X026211Y004879D01*
X026151Y004889D01*
X026151Y004151D01*
X026051Y004151D01*
X026051Y004889D01*
X025991Y004879D01*
X025920Y004856D01*
X025854Y004823D01*
X025795Y004779D01*
X025742Y004727D01*
X025699Y004667D01*
X025665Y004601D01*
X025642Y004531D01*
X025641Y004520D01*
X025641Y004528D01*
X025559Y004727D01*
X025407Y004879D01*
X025208Y004961D01*
X024993Y004961D01*
X024795Y004879D01*
X024643Y004727D01*
X024601Y004625D01*
X024559Y004727D01*
X024407Y004879D01*
X024208Y004961D01*
X023993Y004961D01*
X023747Y004831D02*
X001101Y004831D01*
X001101Y004732D02*
X023649Y004732D01*
X023605Y004634D02*
X001101Y004634D01*
X001101Y004535D02*
X023564Y004535D01*
X023561Y004437D02*
X001101Y004437D01*
X001101Y004338D02*
X023561Y004338D01*
X023561Y004240D02*
X005823Y004240D01*
X005762Y004265D02*
X005588Y004265D01*
X005427Y004198D01*
X005303Y004075D01*
X005237Y003914D01*
X005237Y003740D01*
X005303Y003579D01*
X005427Y003455D01*
X005588Y003389D01*
X005762Y003389D01*
X005923Y003455D01*
X006008Y003541D01*
X014941Y003541D01*
X015053Y003429D01*
X015214Y003363D01*
X015388Y003363D01*
X015549Y003429D01*
X015672Y003553D01*
X015739Y003714D01*
X015739Y003888D01*
X015672Y004049D01*
X015549Y004172D01*
X015388Y004239D01*
X015214Y004239D01*
X015053Y004172D01*
X014941Y004061D01*
X006052Y004061D01*
X006046Y004075D01*
X005923Y004198D01*
X005762Y004265D01*
X005527Y004240D02*
X001101Y004240D01*
X001101Y004141D02*
X005370Y004141D01*
X005290Y004043D02*
X001101Y004043D01*
X001101Y003944D02*
X005249Y003944D01*
X005237Y003845D02*
X001101Y003845D01*
X001101Y003747D02*
X005237Y003747D01*
X005274Y003648D02*
X001101Y003648D01*
X001101Y003550D02*
X005332Y003550D01*
X005436Y003451D02*
X002821Y003451D01*
X002774Y003471D02*
X002428Y003471D01*
X002108Y003338D01*
X001863Y003094D01*
X001731Y002774D01*
X001731Y002428D01*
X001863Y002108D01*
X002108Y001863D01*
X002428Y001731D01*
X002774Y001731D01*
X003094Y001863D01*
X003338Y002108D01*
X003471Y002428D01*
X003471Y002774D01*
X003338Y003094D01*
X003094Y003338D01*
X002774Y003471D01*
X003059Y003353D02*
X023765Y003353D01*
X023667Y003451D02*
X015571Y003451D01*
X015669Y003550D02*
X023612Y003550D01*
X023571Y003648D02*
X015712Y003648D01*
X015739Y003747D02*
X023561Y003747D01*
X023561Y003845D02*
X015739Y003845D01*
X015716Y003944D02*
X023561Y003944D01*
X023561Y004043D02*
X015675Y004043D01*
X015580Y004141D02*
X023561Y004141D01*
X023961Y003254D02*
X008167Y003254D01*
X007635Y003254D02*
X003178Y003254D01*
X003276Y003156D02*
X007536Y003156D01*
X007491Y003057D02*
X003353Y003057D01*
X003394Y002959D02*
X007463Y002959D01*
X007463Y002860D02*
X003435Y002860D01*
X003471Y002761D02*
X007484Y002761D01*
X007525Y002663D02*
X003471Y002663D01*
X003471Y002564D02*
X007618Y002564D01*
X007806Y002466D02*
X003471Y002466D01*
X003446Y002367D02*
X046756Y002367D01*
X046731Y002428D02*
X046863Y002108D01*
X047108Y001863D01*
X047428Y001731D01*
X047774Y001731D01*
X048094Y001863D01*
X048338Y002108D01*
X048471Y002428D01*
X048471Y002774D01*
X048338Y003094D01*
X048094Y003338D01*
X047774Y003471D01*
X047428Y003471D01*
X047108Y003338D01*
X046863Y003094D01*
X046731Y002774D01*
X046731Y002428D01*
X046731Y002466D02*
X007996Y002466D01*
X008184Y002564D02*
X046731Y002564D01*
X046731Y002663D02*
X032406Y002663D01*
X032529Y002761D02*
X046731Y002761D01*
X046766Y002860D02*
X032628Y002860D01*
X032726Y002959D02*
X046807Y002959D01*
X046848Y003057D02*
X032825Y003057D01*
X032923Y003156D02*
X046925Y003156D01*
X047024Y003254D02*
X033022Y003254D01*
X033120Y003353D02*
X047143Y003353D01*
X047381Y003451D02*
X033219Y003451D01*
X033317Y003550D02*
X049101Y003550D01*
X049101Y003648D02*
X033416Y003648D01*
X033515Y003747D02*
X049101Y003747D01*
X049101Y003845D02*
X033613Y003845D01*
X033712Y003944D02*
X049101Y003944D01*
X049101Y004043D02*
X033810Y004043D01*
X033909Y004141D02*
X049101Y004141D01*
X049101Y004240D02*
X034007Y004240D01*
X034106Y004338D02*
X049101Y004338D01*
X049101Y004437D02*
X034204Y004437D01*
X034303Y004535D02*
X049101Y004535D01*
X049101Y004634D02*
X034401Y004634D01*
X034500Y004732D02*
X049101Y004732D01*
X049101Y004831D02*
X034599Y004831D01*
X034697Y004929D02*
X049101Y004929D01*
X049101Y005028D02*
X034796Y005028D01*
X034894Y005126D02*
X049101Y005126D01*
X049101Y005225D02*
X034993Y005225D01*
X035091Y005324D02*
X049101Y005324D01*
X049101Y005422D02*
X035190Y005422D01*
X035288Y005521D02*
X047553Y005521D01*
X048048Y005521D02*
X049101Y005521D01*
X049101Y005619D02*
X048141Y005619D01*
X048182Y005718D02*
X049101Y005718D01*
X049101Y005816D02*
X048198Y005816D01*
X048197Y005915D02*
X049101Y005915D01*
X049101Y006013D02*
X048157Y006013D01*
X048085Y006112D02*
X049101Y006112D01*
X049101Y007196D02*
X047943Y007196D01*
X048090Y007294D02*
X049101Y007294D01*
X049101Y007393D02*
X048159Y007393D01*
X048198Y007492D02*
X049101Y007492D01*
X049101Y007590D02*
X048198Y007590D01*
X048180Y007689D02*
X049101Y007689D01*
X049101Y007787D02*
X048139Y007787D01*
X048044Y007886D02*
X049101Y007886D01*
X049101Y003451D02*
X047821Y003451D01*
X048059Y003353D02*
X049101Y003353D01*
X049101Y003254D02*
X048178Y003254D01*
X048276Y003156D02*
X049101Y003156D01*
X049101Y003057D02*
X048353Y003057D01*
X048394Y002959D02*
X049101Y002959D01*
X049101Y002860D02*
X048435Y002860D01*
X048471Y002761D02*
X049101Y002761D01*
X049101Y002663D02*
X048471Y002663D01*
X048471Y002564D02*
X049101Y002564D01*
X049101Y002466D02*
X048471Y002466D01*
X048446Y002367D02*
X049101Y002367D01*
X049101Y002269D02*
X048405Y002269D01*
X048364Y002170D02*
X049101Y002170D01*
X049101Y002072D02*
X048302Y002072D01*
X048203Y001973D02*
X049101Y001973D01*
X049101Y001875D02*
X048105Y001875D01*
X047883Y001776D02*
X049101Y001776D01*
X049101Y001677D02*
X001101Y001677D01*
X001101Y001579D02*
X049101Y001579D01*
X049101Y001480D02*
X001101Y001480D01*
X001101Y001382D02*
X049101Y001382D01*
X049101Y001283D02*
X001101Y001283D01*
X001101Y001185D02*
X049101Y001185D01*
X047318Y001776D02*
X002883Y001776D01*
X003105Y001875D02*
X047097Y001875D01*
X046998Y001973D02*
X003203Y001973D01*
X003302Y002072D02*
X046900Y002072D01*
X046837Y002170D02*
X003364Y002170D01*
X003405Y002269D02*
X046797Y002269D01*
X033962Y004929D02*
X025284Y004929D01*
X025454Y004831D02*
X025870Y004831D01*
X025748Y004732D02*
X025553Y004732D01*
X025597Y004634D02*
X025682Y004634D01*
X025644Y004535D02*
X025638Y004535D01*
X026051Y004535D02*
X026151Y004535D01*
X026151Y004437D02*
X026051Y004437D01*
X026051Y004338D02*
X026151Y004338D01*
X026151Y004240D02*
X026051Y004240D01*
X026151Y004141D02*
X033173Y004141D01*
X033075Y004043D02*
X026571Y004043D01*
X026571Y004051D02*
X026151Y004051D01*
X026151Y003313D01*
X026211Y003322D01*
X026281Y003345D01*
X026347Y003379D01*
X026407Y003422D01*
X026459Y003475D01*
X026503Y003534D01*
X026536Y003600D01*
X026559Y003671D01*
X026571Y003744D01*
X026571Y004051D01*
X026571Y003944D02*
X032976Y003944D01*
X032878Y003845D02*
X026571Y003845D01*
X026571Y003747D02*
X032779Y003747D01*
X032681Y003648D02*
X026552Y003648D01*
X026511Y003550D02*
X032582Y003550D01*
X032484Y003451D02*
X026436Y003451D01*
X026296Y003353D02*
X032385Y003353D01*
X032287Y003254D02*
X025240Y003254D01*
X025436Y003353D02*
X025906Y003353D01*
X026051Y003353D02*
X026151Y003353D01*
X026151Y003451D02*
X026051Y003451D01*
X026051Y003550D02*
X026151Y003550D01*
X026151Y003648D02*
X026051Y003648D01*
X026051Y003747D02*
X026151Y003747D01*
X026151Y003845D02*
X026051Y003845D01*
X026051Y003944D02*
X026151Y003944D01*
X026151Y004043D02*
X026051Y004043D01*
X026571Y004240D02*
X033272Y004240D01*
X033371Y004338D02*
X026571Y004338D01*
X026571Y004437D02*
X033469Y004437D01*
X033568Y004535D02*
X026558Y004535D01*
X026520Y004634D02*
X033666Y004634D01*
X033765Y004732D02*
X026454Y004732D01*
X026331Y004831D02*
X033863Y004831D01*
X026580Y005915D02*
X026122Y005915D01*
X026220Y006013D02*
X026481Y006013D01*
X026383Y006112D02*
X026319Y006112D01*
X026351Y006210D02*
X026351Y006210D01*
X026351Y006309D02*
X026351Y006309D01*
X026351Y006408D02*
X026351Y006408D01*
X026351Y006506D02*
X026351Y006506D01*
X026304Y006605D02*
X026398Y006605D01*
X026496Y006703D02*
X026205Y006703D01*
X026107Y006802D02*
X026595Y006802D01*
X025595Y006802D02*
X017107Y006802D01*
X017205Y006703D02*
X025496Y006703D01*
X025398Y006605D02*
X017304Y006605D01*
X017351Y006506D02*
X025351Y006506D01*
X025351Y006408D02*
X017351Y006408D01*
X017351Y006309D02*
X025351Y006309D01*
X025343Y006210D02*
X017351Y006210D01*
X017319Y006112D02*
X025244Y006112D01*
X025146Y006013D02*
X017220Y006013D01*
X017122Y005915D02*
X025047Y005915D01*
X024949Y005816D02*
X016753Y005816D01*
X016412Y005422D02*
X015290Y005422D01*
X015388Y005521D02*
X016313Y005521D01*
X016215Y005619D02*
X015487Y005619D01*
X015585Y005718D02*
X016116Y005718D01*
X016018Y005816D02*
X015684Y005816D01*
X015343Y006210D02*
X007351Y006210D01*
X007351Y006309D02*
X015351Y006309D01*
X015351Y006408D02*
X007351Y006408D01*
X007351Y006506D02*
X015351Y006506D01*
X015398Y006605D02*
X007304Y006605D01*
X007205Y006703D02*
X015496Y006703D01*
X015595Y006802D02*
X007107Y006802D01*
X006595Y006802D02*
X006107Y006802D01*
X006205Y006703D02*
X006496Y006703D01*
X006398Y006605D02*
X006304Y006605D01*
X006351Y006506D02*
X006351Y006506D01*
X006351Y006408D02*
X006351Y006408D01*
X006351Y006309D02*
X006351Y006309D01*
X006018Y005816D02*
X001101Y005816D01*
X001101Y005718D02*
X006116Y005718D01*
X006215Y005619D02*
X001101Y005619D01*
X001101Y005521D02*
X006313Y005521D01*
X006412Y005422D02*
X001101Y005422D01*
X001101Y005324D02*
X006510Y005324D01*
X006753Y005816D02*
X014949Y005816D01*
X015047Y005915D02*
X007122Y005915D01*
X007220Y006013D02*
X015146Y006013D01*
X015244Y006112D02*
X007319Y006112D01*
X005580Y005915D02*
X001101Y005915D01*
X001101Y006013D02*
X005481Y006013D01*
X005383Y006112D02*
X001101Y006112D01*
X001101Y006210D02*
X005351Y006210D01*
X005351Y006309D02*
X001101Y006309D01*
X001101Y006408D02*
X005351Y006408D01*
X005351Y006506D02*
X001101Y006506D01*
X001101Y006605D02*
X005398Y006605D01*
X005496Y006703D02*
X001101Y006703D01*
X001101Y006802D02*
X005595Y006802D01*
X005980Y004141D02*
X015021Y004141D01*
X015031Y003451D02*
X005913Y003451D01*
X002381Y003451D02*
X001101Y003451D01*
X001101Y003353D02*
X002143Y003353D01*
X002024Y003254D02*
X001101Y003254D01*
X001101Y003156D02*
X001925Y003156D01*
X001848Y003057D02*
X001101Y003057D01*
X001101Y002959D02*
X001807Y002959D01*
X001766Y002860D02*
X001101Y002860D01*
X001101Y002761D02*
X001731Y002761D01*
X001731Y002663D02*
X001101Y002663D01*
X001101Y002564D02*
X001731Y002564D01*
X001731Y002466D02*
X001101Y002466D01*
X001101Y002367D02*
X001756Y002367D01*
X001797Y002269D02*
X001101Y002269D01*
X001101Y002170D02*
X001837Y002170D01*
X001900Y002072D02*
X001101Y002072D01*
X001101Y001973D02*
X001998Y001973D01*
X002097Y001875D02*
X001101Y001875D01*
X001101Y001776D02*
X002318Y001776D01*
X004939Y011630D02*
X014911Y011630D01*
X016107Y006802D02*
X016595Y006802D01*
X016496Y006703D02*
X016205Y006703D01*
X016304Y006605D02*
X016398Y006605D01*
X016351Y006506D02*
X016351Y006506D01*
X016351Y006408D02*
X016351Y006408D01*
X016351Y006309D02*
X016351Y006309D01*
X016510Y005324D02*
X015191Y005324D01*
X024284Y004929D02*
X024918Y004929D01*
X024747Y004831D02*
X024454Y004831D01*
X024553Y004732D02*
X024649Y004732D01*
X024605Y004634D02*
X024597Y004634D01*
X024590Y003550D02*
X024612Y003550D01*
X024667Y003451D02*
X024535Y003451D01*
X024436Y003353D02*
X024765Y003353D01*
X024961Y003254D02*
X024240Y003254D01*
X025535Y003451D02*
X025766Y003451D01*
X025691Y003550D02*
X025590Y003550D01*
X025630Y003648D02*
X025650Y003648D01*
X026051Y004634D02*
X026151Y004634D01*
X026151Y004732D02*
X026051Y004732D01*
X026051Y004831D02*
X026151Y004831D01*
X025170Y020302D02*
X028101Y020302D01*
X028101Y020401D02*
X025268Y020401D01*
X025367Y020499D02*
X028101Y020499D01*
X028101Y020598D02*
X025465Y020598D01*
X025564Y020696D02*
X028101Y020696D01*
X028101Y020795D02*
X025663Y020795D01*
X026101Y020893D02*
X026601Y020893D01*
X026502Y020992D02*
X026199Y020992D01*
X026298Y021091D02*
X026404Y021091D01*
X026351Y021189D02*
X026351Y021189D01*
X026351Y021288D02*
X026351Y021288D01*
X026351Y021386D02*
X026351Y021386D01*
X026351Y021485D02*
X026351Y021485D01*
X026325Y021583D02*
X026376Y021583D01*
X026475Y021682D02*
X026227Y021682D01*
X026128Y021780D02*
X026573Y021780D01*
X027128Y021780D02*
X028101Y021780D01*
X028101Y021682D02*
X027227Y021682D01*
X027325Y021583D02*
X028101Y021583D01*
X028101Y021485D02*
X027351Y021485D01*
X027351Y021386D02*
X028101Y021386D01*
X028101Y021288D02*
X027351Y021288D01*
X027351Y021189D02*
X028101Y021189D01*
X028101Y021091D02*
X027298Y021091D01*
X027199Y020992D02*
X028101Y020992D01*
X028101Y020893D02*
X027101Y020893D01*
X025573Y021780D02*
X017128Y021780D01*
X017227Y021682D02*
X025475Y021682D01*
X025376Y021583D02*
X017325Y021583D01*
X017351Y021485D02*
X025351Y021485D01*
X025351Y021386D02*
X017351Y021386D01*
X017351Y021288D02*
X025351Y021288D01*
X025321Y021189D02*
X017351Y021189D01*
X017298Y021091D02*
X025223Y021091D01*
X025124Y020992D02*
X017199Y020992D01*
X017101Y020893D02*
X025026Y020893D01*
X024927Y020795D02*
X016774Y020795D01*
X016351Y021288D02*
X016351Y021288D01*
X016351Y021386D02*
X016351Y021386D01*
X016351Y021485D02*
X016351Y021485D01*
X016325Y021583D02*
X016376Y021583D01*
X016475Y021682D02*
X016227Y021682D01*
X016128Y021780D02*
X016573Y021780D01*
X015428Y025821D02*
X028101Y025821D01*
X028101Y025919D02*
X015539Y025919D01*
X015599Y026018D02*
X028101Y026018D01*
X028101Y026116D02*
X015639Y026116D01*
X015639Y026215D02*
X028101Y026215D01*
X028101Y026313D02*
X015628Y026313D01*
X015588Y026412D02*
X028101Y026412D01*
X028101Y026510D02*
X015511Y026510D01*
X015360Y026609D02*
X028101Y026609D01*
X027965Y037646D02*
X028101Y037646D01*
X028101Y037744D02*
X028064Y037744D01*
X028832Y043164D02*
X049101Y043164D01*
D17*
X037701Y044101D02*
X037701Y047901D01*
X037701Y044101D02*
X037201Y043601D01*
X028901Y043601D01*
X027751Y042451D01*
X027701Y042401D01*
X027701Y038001D01*
X025851Y036351D02*
X025101Y035601D01*
X016601Y035601D01*
X015851Y036351D01*
X015101Y035601D01*
X006601Y035601D01*
X005851Y036351D01*
X004801Y036801D02*
X006001Y038001D01*
X009801Y038001D01*
X008801Y038701D02*
X013201Y038701D01*
X014601Y040101D01*
X014601Y043501D01*
X016601Y045501D01*
X019701Y045501D01*
X020801Y046601D01*
X016701Y044701D02*
X025001Y044701D01*
X025851Y043851D01*
X016701Y044701D02*
X015851Y043851D01*
X013301Y045201D02*
X013301Y047201D01*
X013401Y047301D01*
X015601Y046691D02*
X015621Y046711D01*
X011301Y042801D02*
X003401Y042801D01*
X002701Y042101D01*
X002701Y020901D01*
X004801Y018801D01*
X015101Y018801D01*
X015001Y020501D02*
X015851Y021351D01*
X016701Y020501D01*
X025001Y020501D01*
X025851Y021351D01*
X025001Y028001D02*
X025851Y028851D01*
X025001Y028001D02*
X016701Y028001D01*
X015851Y028851D01*
X015001Y028001D01*
X006701Y028001D01*
X005851Y028851D01*
X003201Y027801D02*
X004801Y026201D01*
X015201Y026201D01*
X015001Y020501D02*
X006701Y020501D01*
X005851Y021351D01*
X003201Y027801D02*
X003201Y041601D01*
X003601Y042001D01*
X011601Y042001D01*
X011701Y042101D01*
X012301Y041301D02*
X004201Y041301D01*
X003801Y040901D01*
X003801Y034601D01*
X005801Y032601D01*
X014701Y032601D01*
X015201Y033101D01*
X015201Y033801D01*
X012201Y033301D02*
X006001Y033301D01*
X004801Y034501D01*
X004801Y036801D01*
X003401Y044601D02*
X009801Y044601D01*
X009701Y045501D02*
X005301Y045501D01*
X004101Y046201D02*
X010601Y046201D01*
X004101Y046201D02*
X002301Y044401D01*
X002301Y013901D01*
X004901Y011301D01*
X015201Y011301D01*
X015001Y013001D02*
X015851Y013851D01*
X016701Y013001D01*
X025001Y013001D01*
X025851Y013851D01*
X025851Y006351D02*
X025001Y005501D01*
X016701Y005501D01*
X015851Y006351D01*
X015001Y005501D01*
X006701Y005501D01*
X005851Y006351D01*
X005675Y003827D02*
X005701Y003801D01*
X015301Y003801D01*
X007901Y002901D02*
X032301Y002901D01*
X035601Y006201D01*
X015001Y013001D02*
X006701Y013001D01*
X005851Y013851D01*
D18*
X006601Y039801D02*
X007601Y040801D01*
X008301Y040801D01*
M02*
