G75*
G70*
%OFA0B0*%
%FSLAX24Y24*%
%IPPOS*%
%LPD*%
%AMOC8*
5,1,8,0,0,1.08239X$1,22.5*
%
%ADD10C,0.1380*%
%ADD11OC8,0.0640*%
%ADD12C,0.0720*%
%ADD13C,0.0635*%
%ADD14C,0.0434*%
%ADD15C,0.0820*%
D10*
X002601Y002601D03*
X002601Y047501D03*
X047601Y047601D03*
X047601Y002601D03*
D11*
X026851Y006351D03*
X025851Y006351D03*
X025851Y013851D03*
X026851Y013851D03*
X026851Y021351D03*
X025851Y021351D03*
X025851Y028851D03*
X026851Y028851D03*
X026851Y036351D03*
X025851Y036351D03*
X025851Y043851D03*
X026851Y043851D03*
X016851Y043851D03*
X015851Y043851D03*
X015851Y036351D03*
X016851Y036351D03*
X016851Y028851D03*
X015851Y028851D03*
X015851Y021351D03*
X016851Y021351D03*
X016851Y013851D03*
X015851Y013851D03*
X015851Y006351D03*
X016851Y006351D03*
X006851Y006351D03*
X005851Y006351D03*
X005851Y013851D03*
X006851Y013851D03*
X006851Y021351D03*
X005851Y021351D03*
X005851Y028851D03*
X006851Y028851D03*
X006851Y036351D03*
X005851Y036351D03*
D12*
X006901Y048081D02*
X006901Y048721D01*
X007901Y048721D02*
X007901Y048081D01*
X008901Y048081D02*
X008901Y048721D01*
X009901Y048721D02*
X009901Y048081D01*
X010901Y048081D02*
X010901Y048721D01*
X011901Y048721D02*
X011901Y048081D01*
X034701Y048221D02*
X034701Y047581D01*
X035701Y047581D02*
X035701Y048221D01*
X036701Y048221D02*
X036701Y047581D01*
X037701Y047581D02*
X037701Y048221D01*
X038701Y048221D02*
X038701Y047581D01*
X039701Y047581D02*
X039701Y048221D01*
X040701Y048221D02*
X040701Y047581D01*
X041701Y047581D02*
X041701Y048221D01*
X026101Y004421D02*
X026101Y003781D01*
X025101Y003781D02*
X025101Y004421D01*
X024101Y004421D02*
X024101Y003781D01*
D13*
X035601Y006201D03*
X036601Y006201D03*
D14*
X047801Y005835D03*
X047801Y007567D03*
D15*
X018181Y046711D03*
X018181Y048491D03*
X015621Y048491D03*
X015621Y046711D03*
M02*
