%
M48
M72
T01C0.0236
T02C0.0315
T03C0.0320
T04C0.0354
T05C0.0400
T06C0.1300
%
T01
X5675Y3827
X7901Y2901
X15301Y3801
X15201Y11301
X15101Y18801
X15201Y26201
X12201Y33301
X10801Y34901
X12401Y36301
X9801Y38001
X8801Y38701
X6801Y38701
X6601Y39801
X8301Y40801
X6701Y43701
X5301Y45501
X3401Y44601
X9701Y45501
X9801Y44601
X11301Y42801
X11701Y42101
X12301Y41301
X15901Y41701
X15901Y39901
X20801Y34801
X15201Y33801
X13301Y45201
X10601Y46201
X20801Y46601
X23701Y46001
X27701Y38001
X44301Y35601
X44101Y20801
X45901Y8501
X45901Y4901
X41001Y7901
X32801Y6201
T02
X35601Y6201
X36601Y6201
T03
X26851Y6351
X25851Y6351
X25851Y13851
X26851Y13851
X26851Y21351
X25851Y21351
X25851Y28851
X26851Y28851
X26851Y36351
X25851Y36351
X25851Y43851
X26851Y43851
X16851Y43851
X15851Y43851
X15851Y36351
X16851Y36351
X16851Y28851
X15851Y28851
X15851Y21351
X16851Y21351
X16851Y13851
X15851Y13851
X15851Y6351
X16851Y6351
X6851Y6351
X5851Y6351
X5851Y13851
X6851Y13851
X6851Y21351
X5851Y21351
X5851Y28851
X6851Y28851
X6851Y36351
X5851Y36351
T04
X47801Y7567
X47801Y5835
T05
X26101Y4101
X25101Y4101
X24101Y4101
X18181Y46711
X18181Y48491
X15621Y48491
X15621Y46711
X11901Y48401
X10901Y48401
X9901Y48401
X8901Y48401
X7901Y48401
X6901Y48401
X34701Y47901
X35701Y47901
X36701Y47901
X37701Y47901
X38701Y47901
X39701Y47901
X40701Y47901
X41701Y47901
T06
X2601Y2601
X2601Y47501
X47601Y47601
X47601Y2601
M30
