G75*
G70*
%OFA0B0*%
%FSLAX24Y24*%
%IPPOS*%
%LPD*%
%AMOC8*
5,1,8,0,0,1.08239X$1,22.5*
%
%ADD10C,0.1380*%
%ADD11R,0.0316X0.0671*%
%ADD12OC8,0.0640*%
%ADD13R,0.0671X0.0592*%
%ADD14R,0.0710X0.0592*%
%ADD15R,0.0631X0.0474*%
%ADD16C,0.0720*%
%ADD17C,0.0635*%
%ADD18R,0.0592X0.0710*%
%ADD19R,0.1064X0.0277*%
%ADD20R,0.1064X0.0867*%
%ADD21C,0.0434*%
%ADD22C,0.0820*%
%ADD23R,0.0592X0.0671*%
%ADD24R,0.0789X0.0710*%
%ADD25R,0.1419X0.0789*%
D10*
X002601Y002601D03*
X002601Y047501D03*
X047601Y047601D03*
X047601Y002601D03*
D11*
X012251Y039832D03*
X011751Y039832D03*
X011251Y039832D03*
X010751Y039832D03*
X010251Y039832D03*
X009751Y039832D03*
X009251Y039832D03*
X008751Y039832D03*
X008251Y039832D03*
X007751Y039832D03*
X007751Y043769D03*
X008251Y043769D03*
X008751Y043769D03*
X009251Y043769D03*
X009751Y043769D03*
X010251Y043769D03*
X010751Y043769D03*
X011251Y043769D03*
X011751Y043769D03*
X012251Y043769D03*
D12*
X015851Y043851D03*
X016851Y043851D03*
X016851Y036351D03*
X015851Y036351D03*
X015851Y028851D03*
X016851Y028851D03*
X016851Y021351D03*
X015851Y021351D03*
X015851Y013851D03*
X016851Y013851D03*
X016851Y006351D03*
X015851Y006351D03*
X006851Y006351D03*
X005851Y006351D03*
X005851Y013851D03*
X006851Y013851D03*
X006851Y021351D03*
X005851Y021351D03*
X005851Y028851D03*
X006851Y028851D03*
X006851Y036351D03*
X005851Y036351D03*
X025851Y036351D03*
X026851Y036351D03*
X026851Y043851D03*
X025851Y043851D03*
X025851Y028851D03*
X026851Y028851D03*
X026851Y021351D03*
X025851Y021351D03*
X025851Y013851D03*
X026851Y013851D03*
X026851Y006351D03*
X025851Y006351D03*
D13*
X014201Y006335D03*
X014201Y005666D03*
X042601Y006366D03*
X042601Y007035D03*
X044301Y007035D03*
X044301Y006366D03*
X006701Y041366D03*
X006701Y042035D03*
X005301Y042035D03*
X005301Y041366D03*
X022901Y046066D03*
X022901Y046735D03*
X024401Y046735D03*
X024401Y046066D03*
D14*
X024201Y043875D03*
X024201Y043127D03*
X021501Y034775D03*
X021501Y034027D03*
X020001Y034027D03*
X020001Y034775D03*
X014301Y035627D03*
X014301Y036375D03*
X011601Y034875D03*
X011601Y034127D03*
X010001Y034127D03*
X010001Y034875D03*
X014201Y028775D03*
X014201Y028027D03*
X014201Y021375D03*
X014201Y020627D03*
X014301Y013875D03*
X014301Y013127D03*
D15*
X014334Y012075D03*
X014334Y011327D03*
X013468Y011701D03*
X014234Y018827D03*
X014234Y019575D03*
X013368Y019201D03*
X014234Y026227D03*
X014234Y026975D03*
X013368Y026601D03*
X014234Y033827D03*
X014234Y034575D03*
X013368Y034201D03*
X017568Y034401D03*
X018434Y034775D03*
X018434Y034027D03*
X024234Y041327D03*
X024234Y042075D03*
X023368Y041701D03*
X025968Y046027D03*
X025968Y046775D03*
X026834Y046401D03*
X008434Y034875D03*
X007568Y034501D03*
X008434Y034127D03*
X014234Y004575D03*
X014234Y003827D03*
X013368Y004201D03*
D16*
X024101Y004421D02*
X024101Y003781D01*
X025101Y003781D02*
X025101Y004421D01*
X026101Y004421D02*
X026101Y003781D01*
X034701Y047581D02*
X034701Y048221D01*
X035701Y048221D02*
X035701Y047581D01*
X036701Y047581D02*
X036701Y048221D01*
X037701Y048221D02*
X037701Y047581D01*
X038701Y047581D02*
X038701Y048221D01*
X039701Y048221D02*
X039701Y047581D01*
X040701Y047581D02*
X040701Y048221D01*
X041701Y048221D02*
X041701Y047581D01*
X011901Y048081D02*
X011901Y048721D01*
X010901Y048721D02*
X010901Y048081D01*
X009901Y048081D02*
X009901Y048721D01*
X008901Y048721D02*
X008901Y048081D01*
X007901Y048081D02*
X007901Y048721D01*
X006901Y048721D02*
X006901Y048081D01*
D17*
X035601Y006201D03*
X036601Y006201D03*
D18*
X034375Y006201D03*
X033627Y006201D03*
X043527Y037001D03*
X044275Y037001D03*
D19*
X046817Y007331D03*
X046817Y007016D03*
X046817Y006701D03*
X046817Y006386D03*
X046817Y006071D03*
D20*
X046817Y004929D03*
X048982Y004929D03*
X048982Y008472D03*
X046817Y008472D03*
D21*
X047801Y007567D03*
X047801Y005835D03*
D22*
X018181Y046711D03*
X018181Y048491D03*
X015621Y048491D03*
X015621Y046711D03*
D23*
X005735Y038701D03*
X005066Y038701D03*
X040966Y044301D03*
X041635Y044301D03*
X041635Y045701D03*
X040966Y045701D03*
X043466Y022301D03*
X044135Y022301D03*
D24*
X041001Y007252D03*
X041001Y006150D03*
D25*
X005401Y039801D03*
M02*
