G75*
G70*
%OFA0B0*%
%FSLAX24Y24*%
%IPPOS*%
%LPD*%
%AMOC8*
5,1,8,0,0,1.08239X$1,22.5*
%
%ADD10C,0.0000*%
%ADD11R,0.0236X0.0591*%
%ADD12OC8,0.0560*%
%ADD13R,0.0591X0.0512*%
%ADD14R,0.0630X0.0512*%
%ADD15R,0.0551X0.0394*%
%ADD16C,0.0640*%
%ADD17C,0.0555*%
%ADD18R,0.0512X0.0630*%
%ADD19R,0.0984X0.0197*%
%ADD20R,0.0984X0.0787*%
%ADD21C,0.0740*%
%ADD22R,0.0512X0.0591*%
%ADD23R,0.0709X0.0630*%
%ADD24R,0.1339X0.0709*%
%ADD25C,0.0250*%
%ADD26C,0.0080*%
%ADD27C,0.0436*%
%ADD28C,0.0160*%
%ADD29C,0.0100*%
D10*
X000101Y000101D02*
X000101Y050101D01*
X050101Y050101D01*
X050101Y000101D01*
X000101Y000101D01*
X001951Y002601D02*
X001953Y002651D01*
X001959Y002701D01*
X001969Y002751D01*
X001982Y002799D01*
X001999Y002847D01*
X002020Y002893D01*
X002044Y002937D01*
X002072Y002979D01*
X002103Y003019D01*
X002137Y003056D01*
X002174Y003091D01*
X002213Y003122D01*
X002254Y003151D01*
X002298Y003176D01*
X002344Y003198D01*
X002391Y003216D01*
X002439Y003230D01*
X002488Y003241D01*
X002538Y003248D01*
X002588Y003251D01*
X002639Y003250D01*
X002689Y003245D01*
X002739Y003236D01*
X002787Y003224D01*
X002835Y003207D01*
X002881Y003187D01*
X002926Y003164D01*
X002969Y003137D01*
X003009Y003107D01*
X003047Y003074D01*
X003082Y003038D01*
X003115Y002999D01*
X003144Y002958D01*
X003170Y002915D01*
X003193Y002870D01*
X003212Y002823D01*
X003227Y002775D01*
X003239Y002726D01*
X003247Y002676D01*
X003251Y002626D01*
X003251Y002576D01*
X003247Y002526D01*
X003239Y002476D01*
X003227Y002427D01*
X003212Y002379D01*
X003193Y002332D01*
X003170Y002287D01*
X003144Y002244D01*
X003115Y002203D01*
X003082Y002164D01*
X003047Y002128D01*
X003009Y002095D01*
X002969Y002065D01*
X002926Y002038D01*
X002881Y002015D01*
X002835Y001995D01*
X002787Y001978D01*
X002739Y001966D01*
X002689Y001957D01*
X002639Y001952D01*
X002588Y001951D01*
X002538Y001954D01*
X002488Y001961D01*
X002439Y001972D01*
X002391Y001986D01*
X002344Y002004D01*
X002298Y002026D01*
X002254Y002051D01*
X002213Y002080D01*
X002174Y002111D01*
X002137Y002146D01*
X002103Y002183D01*
X002072Y002223D01*
X002044Y002265D01*
X002020Y002309D01*
X001999Y002355D01*
X001982Y002403D01*
X001969Y002451D01*
X001959Y002501D01*
X001953Y002551D01*
X001951Y002601D01*
X001951Y047501D02*
X001953Y047551D01*
X001959Y047601D01*
X001969Y047651D01*
X001982Y047699D01*
X001999Y047747D01*
X002020Y047793D01*
X002044Y047837D01*
X002072Y047879D01*
X002103Y047919D01*
X002137Y047956D01*
X002174Y047991D01*
X002213Y048022D01*
X002254Y048051D01*
X002298Y048076D01*
X002344Y048098D01*
X002391Y048116D01*
X002439Y048130D01*
X002488Y048141D01*
X002538Y048148D01*
X002588Y048151D01*
X002639Y048150D01*
X002689Y048145D01*
X002739Y048136D01*
X002787Y048124D01*
X002835Y048107D01*
X002881Y048087D01*
X002926Y048064D01*
X002969Y048037D01*
X003009Y048007D01*
X003047Y047974D01*
X003082Y047938D01*
X003115Y047899D01*
X003144Y047858D01*
X003170Y047815D01*
X003193Y047770D01*
X003212Y047723D01*
X003227Y047675D01*
X003239Y047626D01*
X003247Y047576D01*
X003251Y047526D01*
X003251Y047476D01*
X003247Y047426D01*
X003239Y047376D01*
X003227Y047327D01*
X003212Y047279D01*
X003193Y047232D01*
X003170Y047187D01*
X003144Y047144D01*
X003115Y047103D01*
X003082Y047064D01*
X003047Y047028D01*
X003009Y046995D01*
X002969Y046965D01*
X002926Y046938D01*
X002881Y046915D01*
X002835Y046895D01*
X002787Y046878D01*
X002739Y046866D01*
X002689Y046857D01*
X002639Y046852D01*
X002588Y046851D01*
X002538Y046854D01*
X002488Y046861D01*
X002439Y046872D01*
X002391Y046886D01*
X002344Y046904D01*
X002298Y046926D01*
X002254Y046951D01*
X002213Y046980D01*
X002174Y047011D01*
X002137Y047046D01*
X002103Y047083D01*
X002072Y047123D01*
X002044Y047165D01*
X002020Y047209D01*
X001999Y047255D01*
X001982Y047303D01*
X001969Y047351D01*
X001959Y047401D01*
X001953Y047451D01*
X001951Y047501D01*
X046951Y047601D02*
X046953Y047651D01*
X046959Y047701D01*
X046969Y047751D01*
X046982Y047799D01*
X046999Y047847D01*
X047020Y047893D01*
X047044Y047937D01*
X047072Y047979D01*
X047103Y048019D01*
X047137Y048056D01*
X047174Y048091D01*
X047213Y048122D01*
X047254Y048151D01*
X047298Y048176D01*
X047344Y048198D01*
X047391Y048216D01*
X047439Y048230D01*
X047488Y048241D01*
X047538Y048248D01*
X047588Y048251D01*
X047639Y048250D01*
X047689Y048245D01*
X047739Y048236D01*
X047787Y048224D01*
X047835Y048207D01*
X047881Y048187D01*
X047926Y048164D01*
X047969Y048137D01*
X048009Y048107D01*
X048047Y048074D01*
X048082Y048038D01*
X048115Y047999D01*
X048144Y047958D01*
X048170Y047915D01*
X048193Y047870D01*
X048212Y047823D01*
X048227Y047775D01*
X048239Y047726D01*
X048247Y047676D01*
X048251Y047626D01*
X048251Y047576D01*
X048247Y047526D01*
X048239Y047476D01*
X048227Y047427D01*
X048212Y047379D01*
X048193Y047332D01*
X048170Y047287D01*
X048144Y047244D01*
X048115Y047203D01*
X048082Y047164D01*
X048047Y047128D01*
X048009Y047095D01*
X047969Y047065D01*
X047926Y047038D01*
X047881Y047015D01*
X047835Y046995D01*
X047787Y046978D01*
X047739Y046966D01*
X047689Y046957D01*
X047639Y046952D01*
X047588Y046951D01*
X047538Y046954D01*
X047488Y046961D01*
X047439Y046972D01*
X047391Y046986D01*
X047344Y047004D01*
X047298Y047026D01*
X047254Y047051D01*
X047213Y047080D01*
X047174Y047111D01*
X047137Y047146D01*
X047103Y047183D01*
X047072Y047223D01*
X047044Y047265D01*
X047020Y047309D01*
X046999Y047355D01*
X046982Y047403D01*
X046969Y047451D01*
X046959Y047501D01*
X046953Y047551D01*
X046951Y047601D01*
X047624Y007567D02*
X047626Y007593D01*
X047632Y007619D01*
X047642Y007644D01*
X047655Y007667D01*
X047671Y007687D01*
X047691Y007705D01*
X047713Y007720D01*
X047736Y007732D01*
X047762Y007740D01*
X047788Y007744D01*
X047814Y007744D01*
X047840Y007740D01*
X047866Y007732D01*
X047890Y007720D01*
X047911Y007705D01*
X047931Y007687D01*
X047947Y007667D01*
X047960Y007644D01*
X047970Y007619D01*
X047976Y007593D01*
X047978Y007567D01*
X047976Y007541D01*
X047970Y007515D01*
X047960Y007490D01*
X047947Y007467D01*
X047931Y007447D01*
X047911Y007429D01*
X047889Y007414D01*
X047866Y007402D01*
X047840Y007394D01*
X047814Y007390D01*
X047788Y007390D01*
X047762Y007394D01*
X047736Y007402D01*
X047712Y007414D01*
X047691Y007429D01*
X047671Y007447D01*
X047655Y007467D01*
X047642Y007490D01*
X047632Y007515D01*
X047626Y007541D01*
X047624Y007567D01*
X047624Y005835D02*
X047626Y005861D01*
X047632Y005887D01*
X047642Y005912D01*
X047655Y005935D01*
X047671Y005955D01*
X047691Y005973D01*
X047713Y005988D01*
X047736Y006000D01*
X047762Y006008D01*
X047788Y006012D01*
X047814Y006012D01*
X047840Y006008D01*
X047866Y006000D01*
X047890Y005988D01*
X047911Y005973D01*
X047931Y005955D01*
X047947Y005935D01*
X047960Y005912D01*
X047970Y005887D01*
X047976Y005861D01*
X047978Y005835D01*
X047976Y005809D01*
X047970Y005783D01*
X047960Y005758D01*
X047947Y005735D01*
X047931Y005715D01*
X047911Y005697D01*
X047889Y005682D01*
X047866Y005670D01*
X047840Y005662D01*
X047814Y005658D01*
X047788Y005658D01*
X047762Y005662D01*
X047736Y005670D01*
X047712Y005682D01*
X047691Y005697D01*
X047671Y005715D01*
X047655Y005735D01*
X047642Y005758D01*
X047632Y005783D01*
X047626Y005809D01*
X047624Y005835D01*
X046951Y002601D02*
X046953Y002651D01*
X046959Y002701D01*
X046969Y002751D01*
X046982Y002799D01*
X046999Y002847D01*
X047020Y002893D01*
X047044Y002937D01*
X047072Y002979D01*
X047103Y003019D01*
X047137Y003056D01*
X047174Y003091D01*
X047213Y003122D01*
X047254Y003151D01*
X047298Y003176D01*
X047344Y003198D01*
X047391Y003216D01*
X047439Y003230D01*
X047488Y003241D01*
X047538Y003248D01*
X047588Y003251D01*
X047639Y003250D01*
X047689Y003245D01*
X047739Y003236D01*
X047787Y003224D01*
X047835Y003207D01*
X047881Y003187D01*
X047926Y003164D01*
X047969Y003137D01*
X048009Y003107D01*
X048047Y003074D01*
X048082Y003038D01*
X048115Y002999D01*
X048144Y002958D01*
X048170Y002915D01*
X048193Y002870D01*
X048212Y002823D01*
X048227Y002775D01*
X048239Y002726D01*
X048247Y002676D01*
X048251Y002626D01*
X048251Y002576D01*
X048247Y002526D01*
X048239Y002476D01*
X048227Y002427D01*
X048212Y002379D01*
X048193Y002332D01*
X048170Y002287D01*
X048144Y002244D01*
X048115Y002203D01*
X048082Y002164D01*
X048047Y002128D01*
X048009Y002095D01*
X047969Y002065D01*
X047926Y002038D01*
X047881Y002015D01*
X047835Y001995D01*
X047787Y001978D01*
X047739Y001966D01*
X047689Y001957D01*
X047639Y001952D01*
X047588Y001951D01*
X047538Y001954D01*
X047488Y001961D01*
X047439Y001972D01*
X047391Y001986D01*
X047344Y002004D01*
X047298Y002026D01*
X047254Y002051D01*
X047213Y002080D01*
X047174Y002111D01*
X047137Y002146D01*
X047103Y002183D01*
X047072Y002223D01*
X047044Y002265D01*
X047020Y002309D01*
X046999Y002355D01*
X046982Y002403D01*
X046969Y002451D01*
X046959Y002501D01*
X046953Y002551D01*
X046951Y002601D01*
D11*
X012251Y039832D03*
X011751Y039832D03*
X011251Y039832D03*
X010751Y039832D03*
X010251Y039832D03*
X009751Y039832D03*
X009251Y039832D03*
X008751Y039832D03*
X008251Y039832D03*
X007751Y039832D03*
X007751Y043769D03*
X008251Y043769D03*
X008751Y043769D03*
X009251Y043769D03*
X009751Y043769D03*
X010251Y043769D03*
X010751Y043769D03*
X011251Y043769D03*
X011751Y043769D03*
X012251Y043769D03*
D12*
X015851Y043851D03*
X016851Y043851D03*
X016851Y036351D03*
X015851Y036351D03*
X015851Y028851D03*
X016851Y028851D03*
X016851Y021351D03*
X015851Y021351D03*
X015851Y013851D03*
X016851Y013851D03*
X016851Y006351D03*
X015851Y006351D03*
X006851Y006351D03*
X005851Y006351D03*
X005851Y013851D03*
X006851Y013851D03*
X006851Y021351D03*
X005851Y021351D03*
X005851Y028851D03*
X006851Y028851D03*
X006851Y036351D03*
X005851Y036351D03*
X025851Y036351D03*
X026851Y036351D03*
X026851Y043851D03*
X025851Y043851D03*
X025851Y028851D03*
X026851Y028851D03*
X026851Y021351D03*
X025851Y021351D03*
X025851Y013851D03*
X026851Y013851D03*
X026851Y006351D03*
X025851Y006351D03*
D13*
X014201Y006335D03*
X014201Y005666D03*
X042601Y006366D03*
X042601Y007035D03*
X044301Y007035D03*
X044301Y006366D03*
X006701Y041366D03*
X006701Y042035D03*
X005301Y042035D03*
X005301Y041366D03*
X022901Y046066D03*
X022901Y046735D03*
X024401Y046735D03*
X024401Y046066D03*
D14*
X024201Y043875D03*
X024201Y043127D03*
X021501Y034775D03*
X021501Y034027D03*
X020001Y034027D03*
X020001Y034775D03*
X014301Y035627D03*
X014301Y036375D03*
X011601Y034875D03*
X011601Y034127D03*
X010001Y034127D03*
X010001Y034875D03*
X014201Y028775D03*
X014201Y028027D03*
X014201Y021375D03*
X014201Y020627D03*
X014301Y013875D03*
X014301Y013127D03*
D15*
X014334Y012075D03*
X014334Y011327D03*
X013468Y011701D03*
X014234Y018827D03*
X014234Y019575D03*
X013368Y019201D03*
X014234Y026227D03*
X014234Y026975D03*
X013368Y026601D03*
X014234Y033827D03*
X014234Y034575D03*
X013368Y034201D03*
X017568Y034401D03*
X018434Y034775D03*
X018434Y034027D03*
X024234Y041327D03*
X024234Y042075D03*
X023368Y041701D03*
X025968Y046027D03*
X025968Y046775D03*
X026834Y046401D03*
X008434Y034875D03*
X007568Y034501D03*
X008434Y034127D03*
X014234Y004575D03*
X014234Y003827D03*
X013368Y004201D03*
D16*
X024101Y004421D02*
X024101Y003781D01*
X025101Y003781D02*
X025101Y004421D01*
X026101Y004421D02*
X026101Y003781D01*
X034701Y047581D02*
X034701Y048221D01*
X035701Y048221D02*
X035701Y047581D01*
X036701Y047581D02*
X036701Y048221D01*
X037701Y048221D02*
X037701Y047581D01*
X038701Y047581D02*
X038701Y048221D01*
X039701Y048221D02*
X039701Y047581D01*
X040701Y047581D02*
X040701Y048221D01*
X041701Y048221D02*
X041701Y047581D01*
X011901Y048081D02*
X011901Y048721D01*
X010901Y048721D02*
X010901Y048081D01*
X009901Y048081D02*
X009901Y048721D01*
X008901Y048721D02*
X008901Y048081D01*
X007901Y048081D02*
X007901Y048721D01*
X006901Y048721D02*
X006901Y048081D01*
D17*
X035601Y006201D03*
X036601Y006201D03*
D18*
X034375Y006201D03*
X033627Y006201D03*
X043527Y037001D03*
X044275Y037001D03*
D19*
X046817Y007331D03*
X046817Y007016D03*
X046817Y006701D03*
X046817Y006386D03*
X046817Y006071D03*
D20*
X046817Y004929D03*
X048982Y004929D03*
X048982Y008472D03*
X046817Y008472D03*
D21*
X018181Y046711D03*
X018181Y048491D03*
X015621Y048491D03*
X015621Y046711D03*
D22*
X005735Y038701D03*
X005066Y038701D03*
X040966Y044301D03*
X041635Y044301D03*
X041635Y045701D03*
X040966Y045701D03*
X043466Y022301D03*
X044135Y022301D03*
D23*
X041001Y007252D03*
X041001Y006150D03*
D24*
X005401Y039801D03*
D25*
X005301Y041366D02*
X006701Y041366D01*
X006701Y040801D01*
X007669Y039832D01*
X007751Y039832D01*
X007801Y039782D01*
X007801Y038701D01*
X010201Y036301D01*
X012401Y036301D01*
X013368Y035334D01*
X013368Y034201D01*
X013368Y026601D01*
X013368Y019201D01*
X013368Y011801D01*
X013468Y011701D01*
X013368Y011601D01*
X013368Y004201D01*
X013368Y003534D01*
X014101Y002801D01*
X024201Y002801D01*
X024101Y002901D01*
X024101Y004101D01*
X024201Y002801D02*
X037652Y002801D01*
X041001Y006150D01*
X042384Y006150D01*
X042601Y006366D01*
X044301Y006366D01*
X044380Y006071D01*
X046817Y006071D01*
X046817Y007331D02*
X044380Y007331D01*
X044301Y007035D01*
X042601Y007035D01*
X042384Y007252D01*
X041001Y007252D01*
X041001Y007901D01*
X040950Y006201D02*
X041001Y006150D01*
X040950Y006201D02*
X036601Y006201D01*
X026851Y006351D02*
X026851Y013851D01*
X026851Y021351D01*
X026851Y028851D01*
X026851Y036351D01*
X024301Y039801D02*
X016001Y039801D01*
X015901Y039901D01*
X015901Y041701D02*
X023368Y041701D01*
X024301Y039801D02*
X028101Y043601D01*
X040266Y043601D01*
X040966Y044301D01*
X040966Y045701D01*
X041001Y045735D01*
X041001Y047601D01*
X040701Y047901D01*
X041635Y047835D02*
X041701Y047901D01*
X041635Y047835D02*
X041635Y045701D01*
X041635Y044301D01*
X041801Y044135D01*
X040966Y044301D02*
X040801Y044135D01*
X026834Y043868D02*
X026834Y046401D01*
X025968Y046027D02*
X023727Y046027D01*
X016851Y036351D02*
X016851Y034501D01*
X016951Y034401D01*
X017568Y034401D01*
X016851Y034501D02*
X016851Y028851D01*
X016851Y021351D01*
X016851Y013851D01*
X016851Y006351D01*
X006851Y006351D02*
X006851Y013851D01*
X006851Y021351D01*
X006851Y028851D01*
X006851Y034501D01*
X007568Y034501D01*
X008434Y034875D02*
X010001Y034875D01*
X010775Y034875D01*
X006851Y034501D02*
X006851Y036351D01*
X006701Y041366D02*
X004635Y041366D01*
X004301Y041701D01*
X004301Y043201D01*
X007901Y046801D01*
X007901Y048401D01*
X008901Y048401D02*
X008901Y047101D01*
X007751Y045951D01*
X007751Y043769D01*
X007682Y043701D01*
X006701Y043701D01*
X006701Y042035D01*
X005301Y042035D01*
X018434Y034775D02*
X020001Y034775D01*
X020775Y034775D01*
D26*
X020801Y034801D01*
X021501Y034775D02*
X021501Y036101D01*
X020301Y037301D01*
X011501Y037301D01*
X010201Y038601D01*
X010201Y039782D01*
X010251Y039832D01*
X009801Y039782D02*
X009751Y039832D01*
X009801Y039782D02*
X009801Y038001D01*
X010751Y038751D02*
X011501Y038001D01*
X027701Y038001D01*
X025001Y038701D02*
X011601Y038701D01*
X011301Y039001D01*
X011301Y039782D01*
X011251Y039832D01*
X011701Y039782D02*
X011701Y039501D01*
X012001Y039201D01*
X024701Y039201D01*
X028301Y042801D01*
X042901Y042801D01*
X043527Y042175D01*
X043527Y037001D01*
X044275Y037001D02*
X044275Y035627D01*
X044301Y035601D01*
X038401Y042001D02*
X038001Y042401D01*
X028701Y042401D01*
X025001Y038701D01*
X023801Y040701D02*
X014101Y040701D01*
X013201Y039801D01*
X012282Y039801D01*
X012251Y039832D01*
X011751Y039832D02*
X011701Y039782D01*
X010751Y039832D02*
X010751Y038751D01*
X009251Y039832D02*
X009251Y040451D01*
X009501Y040701D01*
X012801Y040701D01*
X013301Y041201D01*
X013301Y045201D01*
X011866Y046066D02*
X010801Y045001D01*
X010801Y043819D01*
X010751Y043769D01*
X010301Y043819D02*
X010251Y043769D01*
X010301Y043819D02*
X010301Y045801D01*
X010601Y046101D01*
X010601Y046201D01*
X009701Y045501D02*
X009601Y045501D01*
X009201Y045101D01*
X009201Y043819D01*
X009251Y043769D01*
X009751Y043769D02*
X009801Y043819D01*
X009801Y044601D01*
X008751Y045351D02*
X010901Y047501D01*
X010901Y048401D01*
X009901Y048401D02*
X009901Y047501D01*
X008301Y045901D01*
X008301Y043819D01*
X008251Y043769D01*
X008751Y043769D02*
X008751Y045351D01*
X011251Y043769D02*
X011301Y043719D01*
X011301Y042801D01*
X011701Y042101D02*
X011701Y043719D01*
X011751Y043769D01*
X012251Y043769D02*
X012301Y043719D01*
X012301Y041301D01*
X008801Y039782D02*
X008801Y038701D01*
X008801Y039782D02*
X008751Y039832D01*
X010801Y034901D02*
X010775Y034875D01*
X011601Y034875D02*
X012227Y034875D01*
X012601Y034501D01*
X012601Y033701D01*
X012201Y033301D01*
X011601Y034127D02*
X010001Y034127D01*
X008434Y034127D01*
X014234Y033827D02*
X015175Y033827D01*
X015201Y033801D01*
X014301Y034608D02*
X014234Y034575D01*
X014301Y034642D01*
X014301Y035627D01*
X014301Y036375D02*
X015827Y036375D01*
X015851Y036351D01*
X018434Y034027D02*
X020001Y034027D01*
X021501Y034027D01*
X015851Y028851D02*
X015775Y028775D01*
X014201Y028775D01*
X014201Y028027D02*
X014234Y027994D01*
X014234Y026975D01*
X014234Y026227D02*
X015175Y026227D01*
X015201Y026201D01*
X015827Y021375D02*
X014201Y021375D01*
X014201Y020627D02*
X014201Y019608D01*
X014234Y019575D01*
X014234Y018827D02*
X015075Y018827D01*
X015101Y018801D01*
X015851Y021351D02*
X015827Y021375D01*
X015827Y013875D02*
X014301Y013875D01*
X014301Y013127D02*
X014334Y013094D01*
X014334Y012075D01*
X014334Y011327D02*
X015175Y011327D01*
X015201Y011301D01*
X015851Y013851D02*
X015827Y013875D01*
X015851Y006351D02*
X015835Y006335D01*
X014201Y006335D01*
X014201Y005666D02*
X014234Y005633D01*
X014234Y004575D01*
X014234Y003827D02*
X015275Y003827D01*
X015301Y003801D01*
X007901Y002901D02*
X003101Y007701D01*
X003101Y043301D01*
X005301Y045501D01*
X003401Y044601D02*
X002301Y043501D01*
X002301Y007201D01*
X005675Y003827D01*
X032801Y006201D02*
X033627Y006201D01*
X034375Y006201D02*
X035601Y006201D01*
X044101Y020801D02*
X044135Y020835D01*
X044135Y022301D01*
X043466Y022301D02*
X041801Y022301D01*
X038401Y025701D01*
X038401Y042001D01*
X036701Y047901D02*
X036701Y048801D01*
X036301Y049201D01*
X022101Y049201D01*
X020801Y047901D01*
X020801Y046601D01*
X022901Y046735D02*
X024401Y046735D01*
X024440Y046775D01*
X025968Y046775D01*
X025968Y046027D02*
X024440Y046027D01*
X024401Y046066D01*
X023727Y046027D02*
X023701Y046001D01*
X022901Y046066D02*
X011866Y046066D01*
X023801Y040701D02*
X024234Y041134D01*
X024234Y041327D01*
X024234Y042075D02*
X024234Y043094D01*
X024201Y043127D01*
X024225Y043851D02*
X024201Y043875D01*
X024225Y043851D02*
X025851Y043851D01*
X026834Y043868D02*
X026851Y043851D01*
D27*
X023701Y046001D03*
X020801Y046601D03*
X015901Y041701D03*
X015901Y039901D03*
X012301Y041301D03*
X011701Y042101D03*
X011301Y042801D03*
X009801Y044601D03*
X009701Y045501D03*
X010601Y046201D03*
X013301Y045201D03*
X008301Y040801D03*
X006601Y039801D03*
X006801Y038701D03*
X008801Y038701D03*
X009801Y038001D03*
X012401Y036301D03*
X010801Y034901D03*
X012201Y033301D03*
X015201Y033801D03*
X020801Y034801D03*
X027701Y038001D03*
X015201Y026201D03*
X015101Y018801D03*
X015201Y011301D03*
X015301Y003801D03*
X007901Y002901D03*
X005675Y003827D03*
X032801Y006201D03*
X041001Y007901D03*
X045901Y008501D03*
X045901Y004901D03*
X044101Y020801D03*
X044301Y035601D03*
X006701Y043701D03*
X005301Y045501D03*
X003401Y044601D03*
D28*
X005401Y039801D02*
X006601Y039801D01*
X008251Y039832D02*
X008301Y039832D01*
X008301Y040801D01*
X039101Y035901D02*
X039101Y025901D01*
X049101Y025901D01*
X049101Y035901D01*
X039101Y035901D01*
X039101Y035773D02*
X049101Y035773D01*
X049101Y035614D02*
X039101Y035614D01*
X039101Y035456D02*
X049101Y035456D01*
X049101Y035297D02*
X039101Y035297D01*
X039101Y035139D02*
X049101Y035139D01*
X049101Y034980D02*
X039101Y034980D01*
X039101Y034822D02*
X049101Y034822D01*
X049101Y034663D02*
X039101Y034663D01*
X039101Y034505D02*
X049101Y034505D01*
X049101Y034346D02*
X039101Y034346D01*
X039101Y034188D02*
X049101Y034188D01*
X049101Y034029D02*
X039101Y034029D01*
X039101Y033871D02*
X049101Y033871D01*
X049101Y033712D02*
X039101Y033712D01*
X039101Y033553D02*
X049101Y033553D01*
X049101Y033395D02*
X039101Y033395D01*
X039101Y033236D02*
X049101Y033236D01*
X049101Y033078D02*
X039101Y033078D01*
X039101Y032919D02*
X049101Y032919D01*
X049101Y032761D02*
X039101Y032761D01*
X039101Y032602D02*
X049101Y032602D01*
X049101Y032444D02*
X039101Y032444D01*
X039101Y032285D02*
X049101Y032285D01*
X049101Y032127D02*
X039101Y032127D01*
X039101Y031968D02*
X049101Y031968D01*
X049101Y031809D02*
X039101Y031809D01*
X039101Y031651D02*
X049101Y031651D01*
X049101Y031492D02*
X039101Y031492D01*
X039101Y031334D02*
X049101Y031334D01*
X049101Y031175D02*
X039101Y031175D01*
X039101Y031017D02*
X049101Y031017D01*
X049101Y030858D02*
X039101Y030858D01*
X039101Y030700D02*
X049101Y030700D01*
X049101Y030541D02*
X039101Y030541D01*
X039101Y030383D02*
X049101Y030383D01*
X049101Y030224D02*
X039101Y030224D01*
X039101Y030065D02*
X049101Y030065D01*
X049101Y029907D02*
X039101Y029907D01*
X039101Y029748D02*
X049101Y029748D01*
X049101Y029590D02*
X039101Y029590D01*
X039101Y029431D02*
X049101Y029431D01*
X049101Y029273D02*
X039101Y029273D01*
X039101Y029114D02*
X049101Y029114D01*
X049101Y028956D02*
X039101Y028956D01*
X039101Y028797D02*
X049101Y028797D01*
X049101Y028639D02*
X039101Y028639D01*
X039101Y028480D02*
X049101Y028480D01*
X049101Y028321D02*
X039101Y028321D01*
X039101Y028163D02*
X049101Y028163D01*
X049101Y028004D02*
X039101Y028004D01*
X039101Y027846D02*
X049101Y027846D01*
X049101Y027687D02*
X039101Y027687D01*
X039101Y027529D02*
X049101Y027529D01*
X049101Y027370D02*
X039101Y027370D01*
X039101Y027212D02*
X049101Y027212D01*
X049101Y027053D02*
X039101Y027053D01*
X039101Y026895D02*
X049101Y026895D01*
X049101Y026736D02*
X039101Y026736D01*
X039101Y026578D02*
X049101Y026578D01*
X049101Y026419D02*
X039101Y026419D01*
X039101Y026260D02*
X049101Y026260D01*
X049101Y026102D02*
X039101Y026102D01*
X039101Y025943D02*
X049101Y025943D01*
X049001Y021201D02*
X049001Y011201D01*
X039001Y011201D01*
X039001Y021201D01*
X049001Y021201D01*
X049001Y021187D02*
X039001Y021187D01*
X039001Y021029D02*
X049001Y021029D01*
X049001Y020870D02*
X039001Y020870D01*
X039001Y020711D02*
X049001Y020711D01*
X049001Y020553D02*
X039001Y020553D01*
X039001Y020394D02*
X049001Y020394D01*
X049001Y020236D02*
X039001Y020236D01*
X039001Y020077D02*
X049001Y020077D01*
X049001Y019919D02*
X039001Y019919D01*
X039001Y019760D02*
X049001Y019760D01*
X049001Y019602D02*
X039001Y019602D01*
X039001Y019443D02*
X049001Y019443D01*
X049001Y019285D02*
X039001Y019285D01*
X039001Y019126D02*
X049001Y019126D01*
X049001Y018967D02*
X039001Y018967D01*
X039001Y018809D02*
X049001Y018809D01*
X049001Y018650D02*
X039001Y018650D01*
X039001Y018492D02*
X049001Y018492D01*
X049001Y018333D02*
X039001Y018333D01*
X039001Y018175D02*
X049001Y018175D01*
X049001Y018016D02*
X039001Y018016D01*
X039001Y017858D02*
X049001Y017858D01*
X049001Y017699D02*
X039001Y017699D01*
X039001Y017541D02*
X049001Y017541D01*
X049001Y017382D02*
X039001Y017382D01*
X039001Y017223D02*
X049001Y017223D01*
X049001Y017065D02*
X039001Y017065D01*
X039001Y016906D02*
X049001Y016906D01*
X049001Y016748D02*
X039001Y016748D01*
X039001Y016589D02*
X049001Y016589D01*
X049001Y016431D02*
X039001Y016431D01*
X039001Y016272D02*
X049001Y016272D01*
X049001Y016114D02*
X039001Y016114D01*
X039001Y015955D02*
X049001Y015955D01*
X049001Y015797D02*
X039001Y015797D01*
X039001Y015638D02*
X049001Y015638D01*
X049001Y015479D02*
X039001Y015479D01*
X039001Y015321D02*
X049001Y015321D01*
X049001Y015162D02*
X039001Y015162D01*
X039001Y015004D02*
X049001Y015004D01*
X049001Y014845D02*
X039001Y014845D01*
X039001Y014687D02*
X049001Y014687D01*
X049001Y014528D02*
X039001Y014528D01*
X039001Y014370D02*
X049001Y014370D01*
X049001Y014211D02*
X039001Y014211D01*
X039001Y014053D02*
X049001Y014053D01*
X049001Y013894D02*
X039001Y013894D01*
X039001Y013736D02*
X049001Y013736D01*
X049001Y013577D02*
X039001Y013577D01*
X039001Y013418D02*
X049001Y013418D01*
X049001Y013260D02*
X039001Y013260D01*
X039001Y013101D02*
X049001Y013101D01*
X049001Y012943D02*
X039001Y012943D01*
X039001Y012784D02*
X049001Y012784D01*
X049001Y012626D02*
X039001Y012626D01*
X039001Y012467D02*
X049001Y012467D01*
X049001Y012309D02*
X039001Y012309D01*
X039001Y012150D02*
X049001Y012150D01*
X049001Y011992D02*
X039001Y011992D01*
X039001Y011833D02*
X049001Y011833D01*
X049001Y011674D02*
X039001Y011674D01*
X039001Y011516D02*
X049001Y011516D01*
X049001Y011357D02*
X039001Y011357D01*
X045901Y008501D02*
X045901Y008472D01*
X046817Y008472D01*
X046817Y007331D01*
X046817Y008472D02*
X048982Y008472D01*
X048982Y004929D02*
X046817Y004929D01*
X045901Y004929D01*
X045901Y004901D01*
D29*
X006801Y038701D02*
X005735Y038701D01*
X005066Y038701D02*
X005066Y039466D01*
X005401Y039801D01*
X010701Y043819D02*
X010751Y043769D01*
M02*
